%TF.GenerationSoftware,KiCad,Pcbnew,9.0.4*%
%TF.CreationDate,2025-11-20T14:14:08-06:00*%
%TF.ProjectId,Ballmouse,42616c6c-6d6f-4757-9365-2e6b69636164,rev?*%
%TF.SameCoordinates,Original*%
%TF.FileFunction,Paste,Top*%
%TF.FilePolarity,Positive*%
%FSLAX46Y46*%
G04 Gerber Fmt 4.6, Leading zero omitted, Abs format (unit mm)*
G04 Created by KiCad (PCBNEW 9.0.4) date 2025-11-20 14:14:08*
%MOMM*%
%LPD*%
G01*
G04 APERTURE LIST*
G04 Aperture macros list*
%AMRoundRect*
0 Rectangle with rounded corners*
0 $1 Rounding radius*
0 $2 $3 $4 $5 $6 $7 $8 $9 X,Y pos of 4 corners*
0 Add a 4 corners polygon primitive as box body*
4,1,4,$2,$3,$4,$5,$6,$7,$8,$9,$2,$3,0*
0 Add four circle primitives for the rounded corners*
1,1,$1+$1,$2,$3*
1,1,$1+$1,$4,$5*
1,1,$1+$1,$6,$7*
1,1,$1+$1,$8,$9*
0 Add four rect primitives between the rounded corners*
20,1,$1+$1,$2,$3,$4,$5,0*
20,1,$1+$1,$4,$5,$6,$7,0*
20,1,$1+$1,$6,$7,$8,$9,0*
20,1,$1+$1,$8,$9,$2,$3,0*%
G04 Aperture macros list end*
%ADD10C,1.200000*%
%ADD11R,1.800000X0.820000*%
%ADD12RoundRect,0.225000X0.225000X0.250000X-0.225000X0.250000X-0.225000X-0.250000X0.225000X-0.250000X0*%
%ADD13RoundRect,0.225000X-0.225000X-0.250000X0.225000X-0.250000X0.225000X0.250000X-0.225000X0.250000X0*%
%ADD14RoundRect,0.150000X0.150000X-0.587500X0.150000X0.587500X-0.150000X0.587500X-0.150000X-0.587500X0*%
%ADD15RoundRect,0.375000X-0.625000X-0.375000X0.625000X-0.375000X0.625000X0.375000X-0.625000X0.375000X0*%
%ADD16RoundRect,0.500000X-0.500000X-1.400000X0.500000X-1.400000X0.500000X1.400000X-0.500000X1.400000X0*%
%ADD17RoundRect,0.075000X0.075000X-0.662500X0.075000X0.662500X-0.075000X0.662500X-0.075000X-0.662500X0*%
%ADD18RoundRect,0.075000X0.662500X-0.075000X0.662500X0.075000X-0.662500X0.075000X-0.662500X-0.075000X0*%
%ADD19R,1.000000X0.500000*%
%ADD20R,1.500000X0.800000*%
%ADD21R,0.800000X0.500000*%
%ADD22R,0.800000X0.400000*%
%ADD23RoundRect,0.250000X0.262500X0.450000X-0.262500X0.450000X-0.262500X-0.450000X0.262500X-0.450000X0*%
%ADD24R,0.250000X1.400000*%
%ADD25R,0.220000X1.600000*%
%ADD26RoundRect,0.243750X-0.456250X0.243750X-0.456250X-0.243750X0.456250X-0.243750X0.456250X0.243750X0*%
%ADD27RoundRect,0.243750X0.456250X-0.243750X0.456250X0.243750X-0.456250X0.243750X-0.456250X-0.243750X0*%
%ADD28RoundRect,0.250000X-0.250000X-0.475000X0.250000X-0.475000X0.250000X0.475000X-0.250000X0.475000X0*%
%ADD29RoundRect,0.250000X0.475000X-0.250000X0.475000X0.250000X-0.475000X0.250000X-0.475000X-0.250000X0*%
%ADD30RoundRect,0.250000X-0.475000X0.250000X-0.475000X-0.250000X0.475000X-0.250000X0.475000X0.250000X0*%
%ADD31RoundRect,0.250000X0.250000X0.475000X-0.250000X0.475000X-0.250000X-0.475000X0.250000X-0.475000X0*%
G04 APERTURE END LIST*
D10*
%TO.C,H4*%
X158860000Y-122780000D02*
G75*
G02*
X158993673Y-121362214I1539997J569999D01*
G01*
X160560000Y-120557003D02*
G75*
G02*
X161824942Y-121357042I-160001J-1652997D01*
G01*
X161761219Y-123120815D02*
G75*
G02*
X160240000Y-123839999I-1361219J910817D01*
G01*
%TO.C,H3*%
X116460000Y-122580000D02*
G75*
G02*
X116593673Y-121162214I1539997J569999D01*
G01*
X118160000Y-120357003D02*
G75*
G02*
X119424942Y-121157042I-160001J-1652997D01*
G01*
X119361219Y-122920815D02*
G75*
G02*
X117840000Y-123639999I-1361219J910817D01*
G01*
%TO.C,H2*%
X158860000Y-57580000D02*
G75*
G02*
X158993673Y-56162214I1539997J569999D01*
G01*
X160560000Y-55357003D02*
G75*
G02*
X161824942Y-56157042I-160001J-1652997D01*
G01*
X161761219Y-57920815D02*
G75*
G02*
X160240000Y-58639999I-1361219J910817D01*
G01*
%TO.C,H1*%
X116260000Y-57580000D02*
G75*
G02*
X116393673Y-56162214I1539997J569999D01*
G01*
X117960000Y-55357003D02*
G75*
G02*
X119224942Y-56157042I-160001J-1652997D01*
G01*
X119161219Y-57920815D02*
G75*
G02*
X117640000Y-58639999I-1361219J910817D01*
G01*
%TD*%
D11*
%TO.C,D6*%
X148450000Y-94825000D03*
X148450000Y-96360000D03*
X153550000Y-96360000D03*
X153550000Y-94825000D03*
%TD*%
%TO.C,D5*%
X141735503Y-108860312D03*
X141735503Y-107325312D03*
X136635503Y-107325312D03*
X136635503Y-108860312D03*
%TD*%
%TO.C,D4*%
X125050000Y-94825000D03*
X125050000Y-96360000D03*
X130150000Y-96360000D03*
X130150000Y-94825000D03*
%TD*%
%TO.C,D3*%
X136650000Y-82025000D03*
X136650000Y-83560000D03*
X141750000Y-83560000D03*
X141750000Y-82025000D03*
%TD*%
D12*
%TO.C,C16*%
X137392500Y-63800000D03*
X135842500Y-63800000D03*
%TD*%
D13*
%TO.C,C8*%
X140025000Y-63800000D03*
X141575000Y-63800000D03*
%TD*%
D14*
%TO.C,U4*%
X150250000Y-75875000D03*
X152150000Y-75875000D03*
X151200000Y-74000000D03*
%TD*%
D15*
%TO.C,U3*%
X149350000Y-60550000D03*
X149350000Y-62850000D03*
D16*
X155650000Y-62850000D03*
D15*
X149350000Y-65150000D03*
%TD*%
D17*
%TO.C,U2*%
X137017500Y-74020000D03*
X137517500Y-74020000D03*
X138017500Y-74020000D03*
X138517500Y-74020000D03*
X139017500Y-74020000D03*
X139517500Y-74020000D03*
X140017500Y-74020000D03*
X140517500Y-74020000D03*
X141017500Y-74020000D03*
X141517500Y-74020000D03*
X142017500Y-74020000D03*
X142517500Y-74020000D03*
D18*
X143930000Y-72607500D03*
X143930000Y-72107500D03*
X143930000Y-71607500D03*
X143930000Y-71107500D03*
X143930000Y-70607500D03*
X143930000Y-70107500D03*
X143930000Y-69607500D03*
X143930000Y-69107500D03*
X143930000Y-68607500D03*
X143930000Y-68107500D03*
X143930000Y-67607500D03*
X143930000Y-67107500D03*
D17*
X142517500Y-65695000D03*
X142017500Y-65695000D03*
X141517500Y-65695000D03*
X141017500Y-65695000D03*
X140517500Y-65695000D03*
X140017500Y-65695000D03*
X139517500Y-65695000D03*
X139017500Y-65695000D03*
X138517500Y-65695000D03*
X138017500Y-65695000D03*
X137517500Y-65695000D03*
X137017500Y-65695000D03*
D18*
X135605000Y-67107500D03*
X135605000Y-67607500D03*
X135605000Y-68107500D03*
X135605000Y-68607500D03*
X135605000Y-69107500D03*
X135605000Y-69607500D03*
X135605000Y-70107500D03*
X135605000Y-70607500D03*
X135605000Y-71107500D03*
X135605000Y-71607500D03*
X135605000Y-72107500D03*
X135605000Y-72607500D03*
%TD*%
D19*
%TO.C,SW5*%
X158625000Y-77600000D03*
X158625000Y-80800000D03*
D20*
X156875000Y-78200000D03*
X160375000Y-78200000D03*
X156875000Y-80200000D03*
X160375000Y-80200000D03*
%TD*%
D19*
%TO.C,SW4*%
X158100000Y-114600000D03*
X158100000Y-117800000D03*
D20*
X156350000Y-115200000D03*
X159850000Y-115200000D03*
X156350000Y-117200000D03*
X159850000Y-117200000D03*
%TD*%
D19*
%TO.C,SW3*%
X139000000Y-114600000D03*
X139000000Y-117800000D03*
D20*
X137250000Y-115200000D03*
X140750000Y-115200000D03*
X137250000Y-117200000D03*
X140750000Y-117200000D03*
%TD*%
D19*
%TO.C,SW2*%
X119900000Y-114600000D03*
X119900000Y-117800000D03*
D20*
X118150000Y-115200000D03*
X121650000Y-115200000D03*
X118150000Y-117200000D03*
X121650000Y-117200000D03*
%TD*%
D19*
%TO.C,SW1*%
X119400000Y-77600000D03*
X119400000Y-80800000D03*
D20*
X117650000Y-78200000D03*
X121150000Y-78200000D03*
X117650000Y-80200000D03*
X121150000Y-80200000D03*
%TD*%
D21*
%TO.C,RN2*%
X154300000Y-68400000D03*
D22*
X154300000Y-69200000D03*
X154300000Y-70000000D03*
D21*
X154300000Y-70800000D03*
X156100000Y-70800000D03*
D22*
X156100000Y-70000000D03*
X156100000Y-69200000D03*
D21*
X156100000Y-68400000D03*
%TD*%
%TO.C,RN1*%
X129700000Y-57400000D03*
D22*
X129700000Y-58200000D03*
X129700000Y-59000000D03*
D21*
X129700000Y-59800000D03*
X131500000Y-59800000D03*
D22*
X131500000Y-59000000D03*
X131500000Y-58200000D03*
D21*
X131500000Y-57400000D03*
%TD*%
D23*
%TO.C,R1*%
X127912500Y-91600000D03*
X126087500Y-91600000D03*
%TD*%
D14*
%TO.C,Q1*%
X125900000Y-88400000D03*
X127800000Y-88400000D03*
X126850000Y-86525000D03*
%TD*%
D24*
%TO.C,J11*%
X142655000Y-61200000D03*
X141855000Y-61200000D03*
D25*
X140580000Y-61300000D03*
X139580000Y-61300000D03*
X139080000Y-61300000D03*
X141080000Y-61300000D03*
D24*
X136805000Y-61200000D03*
X136005000Y-61200000D03*
X136255000Y-61200000D03*
X137055000Y-61200000D03*
D25*
X137580000Y-61300000D03*
X138580000Y-61300000D03*
X140080000Y-61300000D03*
X138080000Y-61300000D03*
D24*
X141605000Y-61200000D03*
X142405000Y-61200000D03*
%TD*%
D26*
%TO.C,D2*%
X158400000Y-64062500D03*
X158400000Y-65937500D03*
%TD*%
D27*
%TO.C,D1*%
X158400000Y-72137500D03*
X158400000Y-70262500D03*
%TD*%
D28*
%TO.C,C12*%
X150850000Y-91600000D03*
X152750000Y-91600000D03*
%TD*%
%TO.C,C11*%
X150700000Y-89200000D03*
X152600000Y-89200000D03*
%TD*%
D29*
%TO.C,C10*%
X154300000Y-75562500D03*
X154300000Y-73662500D03*
%TD*%
D30*
%TO.C,C9*%
X148050000Y-73650000D03*
X148050000Y-75550000D03*
%TD*%
D31*
%TO.C,C7*%
X151400000Y-57800000D03*
X149500000Y-57800000D03*
%TD*%
D28*
%TO.C,C6*%
X150250000Y-67800000D03*
X152150000Y-67800000D03*
%TD*%
%TO.C,C5*%
X141650000Y-76600000D03*
X143550000Y-76600000D03*
%TD*%
D31*
%TO.C,C4*%
X136550000Y-76600000D03*
X134650000Y-76600000D03*
%TD*%
%TO.C,C3*%
X133350000Y-73200000D03*
X131450000Y-73200000D03*
%TD*%
%TO.C,C2*%
X133350000Y-65800000D03*
X131450000Y-65800000D03*
%TD*%
D28*
%TO.C,C1*%
X146050000Y-67800000D03*
X147950000Y-67800000D03*
%TD*%
M02*
