%TF.GenerationSoftware,KiCad,Pcbnew,9.0.4*%
%TF.CreationDate,2025-11-20T14:14:08-06:00*%
%TF.ProjectId,Ballmouse,42616c6c-6d6f-4757-9365-2e6b69636164,rev?*%
%TF.SameCoordinates,Original*%
%TF.FileFunction,Copper,L1,Top*%
%TF.FilePolarity,Positive*%
%FSLAX46Y46*%
G04 Gerber Fmt 4.6, Leading zero omitted, Abs format (unit mm)*
G04 Created by KiCad (PCBNEW 9.0.4) date 2025-11-20 14:14:08*
%MOMM*%
%LPD*%
G01*
G04 APERTURE LIST*
G04 Aperture macros list*
%AMRoundRect*
0 Rectangle with rounded corners*
0 $1 Rounding radius*
0 $2 $3 $4 $5 $6 $7 $8 $9 X,Y pos of 4 corners*
0 Add a 4 corners polygon primitive as box body*
4,1,4,$2,$3,$4,$5,$6,$7,$8,$9,$2,$3,0*
0 Add four circle primitives for the rounded corners*
1,1,$1+$1,$2,$3*
1,1,$1+$1,$4,$5*
1,1,$1+$1,$6,$7*
1,1,$1+$1,$8,$9*
0 Add four rect primitives between the rounded corners*
20,1,$1+$1,$2,$3,$4,$5,0*
20,1,$1+$1,$4,$5,$6,$7,0*
20,1,$1+$1,$6,$7,$8,$9,0*
20,1,$1+$1,$8,$9,$2,$3,0*%
G04 Aperture macros list end*
%TA.AperFunction,SMDPad,CuDef*%
%ADD10R,1.800000X0.820000*%
%TD*%
%TA.AperFunction,ComponentPad*%
%ADD11C,4.500000*%
%TD*%
%TA.AperFunction,ComponentPad*%
%ADD12R,1.700000X1.700000*%
%TD*%
%TA.AperFunction,ComponentPad*%
%ADD13C,1.700000*%
%TD*%
%TA.AperFunction,SMDPad,CuDef*%
%ADD14RoundRect,0.225000X0.225000X0.250000X-0.225000X0.250000X-0.225000X-0.250000X0.225000X-0.250000X0*%
%TD*%
%TA.AperFunction,SMDPad,CuDef*%
%ADD15RoundRect,0.225000X-0.225000X-0.250000X0.225000X-0.250000X0.225000X0.250000X-0.225000X0.250000X0*%
%TD*%
%TA.AperFunction,SMDPad,CuDef*%
%ADD16RoundRect,0.150000X0.150000X-0.587500X0.150000X0.587500X-0.150000X0.587500X-0.150000X-0.587500X0*%
%TD*%
%TA.AperFunction,SMDPad,CuDef*%
%ADD17RoundRect,0.375000X-0.625000X-0.375000X0.625000X-0.375000X0.625000X0.375000X-0.625000X0.375000X0*%
%TD*%
%TA.AperFunction,SMDPad,CuDef*%
%ADD18RoundRect,0.500000X-0.500000X-1.400000X0.500000X-1.400000X0.500000X1.400000X-0.500000X1.400000X0*%
%TD*%
%TA.AperFunction,SMDPad,CuDef*%
%ADD19RoundRect,0.075000X0.075000X-0.662500X0.075000X0.662500X-0.075000X0.662500X-0.075000X-0.662500X0*%
%TD*%
%TA.AperFunction,SMDPad,CuDef*%
%ADD20RoundRect,0.075000X0.662500X-0.075000X0.662500X0.075000X-0.662500X0.075000X-0.662500X-0.075000X0*%
%TD*%
%TA.AperFunction,ComponentPad*%
%ADD21C,1.300000*%
%TD*%
%TA.AperFunction,SMDPad,CuDef*%
%ADD22R,1.000000X0.500000*%
%TD*%
%TA.AperFunction,SMDPad,CuDef*%
%ADD23R,1.500000X0.800000*%
%TD*%
%TA.AperFunction,SMDPad,CuDef*%
%ADD24R,0.800000X0.500000*%
%TD*%
%TA.AperFunction,SMDPad,CuDef*%
%ADD25R,0.800000X0.400000*%
%TD*%
%TA.AperFunction,SMDPad,CuDef*%
%ADD26RoundRect,0.250000X0.262500X0.450000X-0.262500X0.450000X-0.262500X-0.450000X0.262500X-0.450000X0*%
%TD*%
%TA.AperFunction,SMDPad,CuDef*%
%ADD27R,0.250000X1.400000*%
%TD*%
%TA.AperFunction,SMDPad,CuDef*%
%ADD28R,0.220000X1.600000*%
%TD*%
%TA.AperFunction,ComponentPad*%
%ADD29O,1.000000X2.100000*%
%TD*%
%TA.AperFunction,ComponentPad*%
%ADD30O,1.000000X1.800000*%
%TD*%
%TA.AperFunction,ComponentPad*%
%ADD31R,1.000000X1.000000*%
%TD*%
%TA.AperFunction,ComponentPad*%
%ADD32C,1.000000*%
%TD*%
%TA.AperFunction,SMDPad,CuDef*%
%ADD33RoundRect,0.243750X-0.456250X0.243750X-0.456250X-0.243750X0.456250X-0.243750X0.456250X0.243750X0*%
%TD*%
%TA.AperFunction,SMDPad,CuDef*%
%ADD34RoundRect,0.243750X0.456250X-0.243750X0.456250X0.243750X-0.456250X0.243750X-0.456250X-0.243750X0*%
%TD*%
%TA.AperFunction,SMDPad,CuDef*%
%ADD35RoundRect,0.250000X-0.250000X-0.475000X0.250000X-0.475000X0.250000X0.475000X-0.250000X0.475000X0*%
%TD*%
%TA.AperFunction,SMDPad,CuDef*%
%ADD36RoundRect,0.250000X0.475000X-0.250000X0.475000X0.250000X-0.475000X0.250000X-0.475000X-0.250000X0*%
%TD*%
%TA.AperFunction,SMDPad,CuDef*%
%ADD37RoundRect,0.250000X-0.475000X0.250000X-0.475000X-0.250000X0.475000X-0.250000X0.475000X0.250000X0*%
%TD*%
%TA.AperFunction,SMDPad,CuDef*%
%ADD38RoundRect,0.250000X0.250000X0.475000X-0.250000X0.475000X-0.250000X-0.475000X0.250000X-0.475000X0*%
%TD*%
%TA.AperFunction,ViaPad*%
%ADD39C,0.600000*%
%TD*%
%TA.AperFunction,Conductor*%
%ADD40C,0.200000*%
%TD*%
G04 APERTURE END LIST*
D10*
%TO.P,D6,1,VDD*%
%TO.N,+5V*%
X148450000Y-94825000D03*
%TO.P,D6,2,DOUT*%
%TO.N,unconnected-(D6-DOUT-Pad2)*%
X148450000Y-96360000D03*
%TO.P,D6,3,VSS*%
%TO.N,VSS*%
X153550000Y-96360000D03*
%TO.P,D6,4,DIN*%
%TO.N,Net-(D5-DOUT)*%
X153550000Y-94825000D03*
%TD*%
%TO.P,D5,1,VDD*%
%TO.N,+5V*%
X141735503Y-108860312D03*
%TO.P,D5,2,DOUT*%
%TO.N,Net-(D5-DOUT)*%
X141735503Y-107325312D03*
%TO.P,D5,3,VSS*%
%TO.N,VSS*%
X136635503Y-107325312D03*
%TO.P,D5,4,DIN*%
%TO.N,Net-(D4-DOUT)*%
X136635503Y-108860312D03*
%TD*%
%TO.P,D4,1,VDD*%
%TO.N,+5V*%
X125050000Y-94825000D03*
%TO.P,D4,2,DOUT*%
%TO.N,Net-(D4-DOUT)*%
X125050000Y-96360000D03*
%TO.P,D4,3,VSS*%
%TO.N,VSS*%
X130150000Y-96360000D03*
%TO.P,D4,4,DIN*%
%TO.N,Net-(D3-DOUT)*%
X130150000Y-94825000D03*
%TD*%
%TO.P,D3,1,VDD*%
%TO.N,+5V*%
X136650000Y-82025000D03*
%TO.P,D3,2,DOUT*%
%TO.N,Net-(D3-DOUT)*%
X136650000Y-83560000D03*
%TO.P,D3,3,VSS*%
%TO.N,VSS*%
X141750000Y-83560000D03*
%TO.P,D3,4,DIN*%
%TO.N,Neo*%
X141750000Y-82025000D03*
%TD*%
D11*
%TO.P,H4,1*%
%TO.N,N/C*%
X160400000Y-122200000D03*
%TD*%
%TO.P,H3,1*%
%TO.N,N/C*%
X118000000Y-122000000D03*
%TD*%
%TO.P,H2,1*%
%TO.N,N/C*%
X160400000Y-57000000D03*
%TD*%
%TO.P,H1,1*%
%TO.N,N/C*%
X117800000Y-57000000D03*
%TD*%
D12*
%TO.P,J2,1,Pin_1*%
%TO.N,VCC*%
X125800000Y-75550000D03*
D13*
%TO.P,J2,2,Pin_2*%
%TO.N,Reset*%
X125800000Y-73010000D03*
%TO.P,J2,3,Pin_3*%
%TO.N,Boot*%
X125800000Y-70470000D03*
%TO.P,J2,4,Pin_4*%
%TO.N,VSS*%
X125800000Y-67930000D03*
%TO.P,J2,5,Pin_5*%
%TO.N,SWCLK*%
X125800000Y-65390000D03*
%TO.P,J2,6,Pin_6*%
%TO.N,SWDIO*%
X125800000Y-62850000D03*
%TD*%
D14*
%TO.P,C16,1*%
%TO.N,/D+*%
X137392500Y-63800000D03*
%TO.P,C16,2*%
%TO.N,VSS*%
X135842500Y-63800000D03*
%TD*%
D15*
%TO.P,C8,1*%
%TO.N,/D-*%
X140025000Y-63800000D03*
%TO.P,C8,2*%
%TO.N,VSS*%
X141575000Y-63800000D03*
%TD*%
D16*
%TO.P,U4,1,GND*%
%TO.N,VSS*%
X150250000Y-75875000D03*
%TO.P,U4,2,VO*%
%TO.N,+1V8*%
X152150000Y-75875000D03*
%TO.P,U4,3,VI*%
%TO.N,+5V*%
X151200000Y-74000000D03*
%TD*%
D17*
%TO.P,U3,1,GND*%
%TO.N,VSS*%
X149350000Y-60550000D03*
%TO.P,U3,2,VO*%
%TO.N,VCC*%
X149350000Y-62850000D03*
D18*
X155650000Y-62850000D03*
D17*
%TO.P,U3,3,VI*%
%TO.N,+5V*%
X149350000Y-65150000D03*
%TD*%
D19*
%TO.P,U2,1,VBAT*%
%TO.N,VCC*%
X137017500Y-74020000D03*
%TO.P,U2,2,PC13*%
%TO.N,Led_power*%
X137517500Y-74020000D03*
%TO.P,U2,3,PC14*%
%TO.N,Neo*%
X138017500Y-74020000D03*
%TO.P,U2,4,PC15*%
%TO.N,unconnected-(U2-PC15-Pad4)*%
X138517500Y-74020000D03*
%TO.P,U2,5,PF0*%
%TO.N,unconnected-(U2-PF0-Pad5)*%
X139017500Y-74020000D03*
%TO.P,U2,6,PF1*%
%TO.N,unconnected-(U2-PF1-Pad6)*%
X139517500Y-74020000D03*
%TO.P,U2,7,NRST*%
%TO.N,Reset*%
X140017500Y-74020000D03*
%TO.P,U2,8,VSSA*%
%TO.N,VSS*%
X140517500Y-74020000D03*
%TO.P,U2,9,VDDA*%
%TO.N,VCC*%
X141017500Y-74020000D03*
%TO.P,U2,10,PA0*%
%TO.N,unconnected-(U2-PA0-Pad10)*%
X141517500Y-74020000D03*
%TO.P,U2,11,PA1*%
%TO.N,3360_Reset*%
X142017500Y-74020000D03*
%TO.P,U2,12,PA2*%
%TO.N,Motion*%
X142517500Y-74020000D03*
D20*
%TO.P,U2,13,PA3*%
%TO.N,Five*%
X143930000Y-72607500D03*
%TO.P,U2,14,PA4*%
%TO.N,~{CS}*%
X143930000Y-72107500D03*
%TO.P,U2,15,PA5*%
%TO.N,SCLK*%
X143930000Y-71607500D03*
%TO.P,U2,16,PA6*%
%TO.N,MISO*%
X143930000Y-71107500D03*
%TO.P,U2,17,PA7*%
%TO.N,MOSI*%
X143930000Y-70607500D03*
%TO.P,U2,18,PB0*%
%TO.N,Net-(RN2-R2.1)*%
X143930000Y-70107500D03*
%TO.P,U2,19,PB1*%
%TO.N,Net-(RN2-R1.1)*%
X143930000Y-69607500D03*
%TO.P,U2,20,PB2*%
%TO.N,unconnected-(U2-PB2-Pad20)*%
X143930000Y-69107500D03*
%TO.P,U2,21,PB10*%
%TO.N,Net-(J1-Pin_1)*%
X143930000Y-68607500D03*
%TO.P,U2,22,PB11*%
%TO.N,Net-(J1-Pin_2)*%
X143930000Y-68107500D03*
%TO.P,U2,23,VSS*%
%TO.N,VSS*%
X143930000Y-67607500D03*
%TO.P,U2,24,VDD*%
%TO.N,VCC*%
X143930000Y-67107500D03*
D19*
%TO.P,U2,25,PB12*%
%TO.N,Net-(J1-Pin_3)*%
X142517500Y-65695000D03*
%TO.P,U2,26,PB13*%
%TO.N,Net-(J1-Pin_4)*%
X142017500Y-65695000D03*
%TO.P,U2,27,PB14*%
%TO.N,Net-(J1-Pin_5)*%
X141517500Y-65695000D03*
%TO.P,U2,28,PB15*%
%TO.N,Net-(J1-Pin_6)*%
X141017500Y-65695000D03*
%TO.P,U2,29,PA8*%
%TO.N,unconnected-(U2-PA8-Pad29)*%
X140517500Y-65695000D03*
%TO.P,U2,30,PA9*%
%TO.N,unconnected-(U2-PA9-Pad30)*%
X140017500Y-65695000D03*
%TO.P,U2,31,PA10*%
%TO.N,unconnected-(U2-PA10-Pad31)*%
X139517500Y-65695000D03*
%TO.P,U2,32,PA11*%
%TO.N,/D-*%
X139017500Y-65695000D03*
%TO.P,U2,33,PA12*%
%TO.N,/D+*%
X138517500Y-65695000D03*
%TO.P,U2,34,PA13*%
%TO.N,SWDIO*%
X138017500Y-65695000D03*
%TO.P,U2,35,VSS*%
%TO.N,VSS*%
X137517500Y-65695000D03*
%TO.P,U2,36,VDDIO2*%
%TO.N,VCC*%
X137017500Y-65695000D03*
D20*
%TO.P,U2,37,PA14*%
%TO.N,SWCLK*%
X135605000Y-67107500D03*
%TO.P,U2,38,PA15*%
%TO.N,unconnected-(U2-PA15-Pad38)*%
X135605000Y-67607500D03*
%TO.P,U2,39,PB3*%
%TO.N,unconnected-(U2-PB3-Pad39)*%
X135605000Y-68107500D03*
%TO.P,U2,40,PB4*%
%TO.N,One*%
X135605000Y-68607500D03*
%TO.P,U2,41,PB5*%
%TO.N,Two*%
X135605000Y-69107500D03*
%TO.P,U2,42,PB6*%
%TO.N,Three*%
X135605000Y-69607500D03*
%TO.P,U2,43,PB7*%
%TO.N,Four*%
X135605000Y-70107500D03*
%TO.P,U2,44,BOOT0*%
%TO.N,Boot*%
X135605000Y-70607500D03*
%TO.P,U2,45,PB8*%
%TO.N,unconnected-(U2-PB8-Pad45)*%
X135605000Y-71107500D03*
%TO.P,U2,46,PB9*%
%TO.N,unconnected-(U2-PB9-Pad46)*%
X135605000Y-71607500D03*
%TO.P,U2,47,VSS*%
%TO.N,VSS*%
X135605000Y-72107500D03*
%TO.P,U2,48,VDD*%
%TO.N,VCC*%
X135605000Y-72607500D03*
%TD*%
D21*
%TO.P,U1,1*%
%TO.N,N/C*%
X144500000Y-88925000D03*
%TO.P,U1,2*%
X144500000Y-90705000D03*
%TO.P,U1,3,VDDPIX*%
%TO.N,Net-(U1-VDDPIX)*%
X144500000Y-92485000D03*
%TO.P,U1,4,VDD*%
%TO.N,+1V8*%
X144500000Y-94265000D03*
%TO.P,U1,5,VDDIO*%
%TO.N,VCC*%
X144500000Y-96045000D03*
%TO.P,U1,6*%
%TO.N,N/C*%
X144500000Y-97825000D03*
%TO.P,U1,7,~{RESET}*%
%TO.N,3360_Reset*%
X144500000Y-99605000D03*
%TO.P,U1,8,GND*%
%TO.N,VSS*%
X144500000Y-101385000D03*
%TO.P,U1,9,MOTION*%
%TO.N,Motion*%
X133800000Y-102275000D03*
%TO.P,U1,10,SCLK*%
%TO.N,SCLK*%
X133800000Y-100495000D03*
%TO.P,U1,11,MOSI*%
%TO.N,MOSI*%
X133800000Y-98715000D03*
%TO.P,U1,12,MISO*%
%TO.N,MISO*%
X133800000Y-96935000D03*
%TO.P,U1,13,~{CS}*%
%TO.N,~{CS}*%
X133800000Y-95155000D03*
%TO.P,U1,14*%
%TO.N,N/C*%
X133800000Y-93375000D03*
%TO.P,U1,15,LED_P*%
%TO.N,Net-(U1-LED_P)*%
X133800000Y-91595000D03*
%TO.P,U1,16*%
%TO.N,N/C*%
X133800000Y-89815000D03*
%TD*%
D22*
%TO.P,SW5,*%
%TO.N,*%
X158625000Y-77600000D03*
X158625000Y-80800000D03*
D23*
%TO.P,SW5,1,A*%
%TO.N,Five*%
X156875000Y-78200000D03*
X160375000Y-78200000D03*
%TO.P,SW5,2,B*%
%TO.N,VSS*%
X156875000Y-80200000D03*
X160375000Y-80200000D03*
%TD*%
D22*
%TO.P,SW4,*%
%TO.N,*%
X158100000Y-114600000D03*
X158100000Y-117800000D03*
D23*
%TO.P,SW4,1,A*%
%TO.N,Four*%
X156350000Y-115200000D03*
X159850000Y-115200000D03*
%TO.P,SW4,2,B*%
%TO.N,VSS*%
X156350000Y-117200000D03*
X159850000Y-117200000D03*
%TD*%
D22*
%TO.P,SW3,*%
%TO.N,*%
X139000000Y-114600000D03*
X139000000Y-117800000D03*
D23*
%TO.P,SW3,1,A*%
%TO.N,Three*%
X137250000Y-115200000D03*
X140750000Y-115200000D03*
%TO.P,SW3,2,B*%
%TO.N,VSS*%
X137250000Y-117200000D03*
X140750000Y-117200000D03*
%TD*%
D22*
%TO.P,SW2,*%
%TO.N,*%
X119900000Y-114600000D03*
X119900000Y-117800000D03*
D23*
%TO.P,SW2,1,A*%
%TO.N,Two*%
X118150000Y-115200000D03*
X121650000Y-115200000D03*
%TO.P,SW2,2,B*%
%TO.N,VSS*%
X118150000Y-117200000D03*
X121650000Y-117200000D03*
%TD*%
D22*
%TO.P,SW1,*%
%TO.N,*%
X119400000Y-77600000D03*
X119400000Y-80800000D03*
D23*
%TO.P,SW1,1,A*%
%TO.N,One*%
X117650000Y-78200000D03*
X121150000Y-78200000D03*
%TO.P,SW1,2,B*%
%TO.N,VSS*%
X117650000Y-80200000D03*
X121150000Y-80200000D03*
%TD*%
D24*
%TO.P,RN2,1,R1.1*%
%TO.N,Net-(RN2-R1.1)*%
X154300000Y-68400000D03*
D25*
%TO.P,RN2,2,R2.1*%
%TO.N,Net-(RN2-R2.1)*%
X154300000Y-69200000D03*
%TO.P,RN2,3,R3.1*%
%TO.N,unconnected-(RN2-R3.1-Pad3)*%
X154300000Y-70000000D03*
D24*
%TO.P,RN2,4,R4.1*%
%TO.N,unconnected-(RN2-R4.1-Pad4)*%
X154300000Y-70800000D03*
%TO.P,RN2,5,R4.2*%
%TO.N,unconnected-(RN2-R4.2-Pad5)*%
X156100000Y-70800000D03*
D25*
%TO.P,RN2,6,R3.2*%
%TO.N,unconnected-(RN2-R3.2-Pad6)*%
X156100000Y-70000000D03*
%TO.P,RN2,7,R2.2*%
%TO.N,Net-(D1-A)*%
X156100000Y-69200000D03*
D24*
%TO.P,RN2,8,R1.2*%
%TO.N,Net-(D2-A)*%
X156100000Y-68400000D03*
%TD*%
%TO.P,RN1,1,R1.1*%
%TO.N,VSS*%
X129700000Y-57400000D03*
D25*
%TO.P,RN1,2,R2.1*%
X129700000Y-58200000D03*
%TO.P,RN1,3,R3.1*%
%TO.N,unconnected-(RN1-R3.1-Pad3)*%
X129700000Y-59000000D03*
D24*
%TO.P,RN1,4,R4.1*%
%TO.N,unconnected-(RN1-R4.1-Pad4)*%
X129700000Y-59800000D03*
%TO.P,RN1,5,R4.2*%
%TO.N,unconnected-(RN1-R4.2-Pad5)*%
X131500000Y-59800000D03*
D25*
%TO.P,RN1,6,R3.2*%
%TO.N,unconnected-(RN1-R3.2-Pad6)*%
X131500000Y-59000000D03*
%TO.P,RN1,7,R2.2*%
%TO.N,Net-(J11-CC2)*%
X131500000Y-58200000D03*
D24*
%TO.P,RN1,8,R1.2*%
%TO.N,Net-(J11-CC1)*%
X131500000Y-57400000D03*
%TD*%
D26*
%TO.P,R1,1*%
%TO.N,Net-(U1-LED_P)*%
X127912500Y-91600000D03*
%TO.P,R1,2*%
%TO.N,Net-(Q1-S)*%
X126087500Y-91600000D03*
%TD*%
D16*
%TO.P,Q1,1,G*%
%TO.N,Led_power*%
X125900000Y-88400000D03*
%TO.P,Q1,2,S*%
%TO.N,Net-(Q1-S)*%
X127800000Y-88400000D03*
%TO.P,Q1,3,D*%
%TO.N,+5V*%
X126850000Y-86525000D03*
%TD*%
D27*
%TO.P,J11,A1,GND*%
%TO.N,VSS*%
X142655000Y-61200000D03*
%TO.P,J11,A4,VBUS*%
%TO.N,+5V*%
X141855000Y-61200000D03*
D28*
%TO.P,J11,A5,CC1*%
%TO.N,Net-(J11-CC1)*%
X140580000Y-61300000D03*
%TO.P,J11,A6,D+*%
%TO.N,/D+*%
X139580000Y-61300000D03*
%TO.P,J11,A7,D-*%
%TO.N,/D-*%
X139080000Y-61300000D03*
%TO.P,J11,A8,SBU1*%
%TO.N,unconnected-(J11-SBU1-PadA8)*%
X141080000Y-61300000D03*
D27*
%TO.P,J11,A9,VBUS*%
%TO.N,+5V*%
X136805000Y-61200000D03*
%TO.P,J11,A12,GND*%
%TO.N,VSS*%
X136005000Y-61200000D03*
%TO.P,J11,B1,GND*%
X136255000Y-61200000D03*
%TO.P,J11,B4,VBUS*%
%TO.N,+5V*%
X137055000Y-61200000D03*
D28*
%TO.P,J11,B5,CC2*%
%TO.N,Net-(J11-CC2)*%
X137580000Y-61300000D03*
%TO.P,J11,B6,D+*%
%TO.N,/D+*%
X138580000Y-61300000D03*
%TO.P,J11,B7,D-*%
%TO.N,/D-*%
X140080000Y-61300000D03*
%TO.P,J11,B8,SBU2*%
%TO.N,unconnected-(J11-SBU2-PadB8)*%
X138080000Y-61300000D03*
D27*
%TO.P,J11,B9,VBUS*%
%TO.N,+5V*%
X141605000Y-61200000D03*
%TO.P,J11,B12,GND*%
%TO.N,VSS*%
X142405000Y-61200000D03*
D29*
%TO.P,J11,S1,SHIELD*%
X143650000Y-60500000D03*
D30*
X143650000Y-56350000D03*
D29*
X135010000Y-60500000D03*
D30*
X135010000Y-56350000D03*
%TD*%
D31*
%TO.P,J1,1,Pin_1*%
%TO.N,Net-(J1-Pin_1)*%
X146200000Y-64810000D03*
D32*
%TO.P,J1,2,Pin_2*%
%TO.N,Net-(J1-Pin_2)*%
X146200000Y-63540000D03*
%TO.P,J1,3,Pin_3*%
%TO.N,Net-(J1-Pin_3)*%
X146200000Y-62270000D03*
%TO.P,J1,4,Pin_4*%
%TO.N,Net-(J1-Pin_4)*%
X146200000Y-61000000D03*
%TO.P,J1,5,Pin_5*%
%TO.N,Net-(J1-Pin_5)*%
X146200000Y-59730000D03*
%TO.P,J1,6,Pin_6*%
%TO.N,Net-(J1-Pin_6)*%
X146200000Y-58460000D03*
%TD*%
D33*
%TO.P,D2,1,K*%
%TO.N,VSS*%
X158400000Y-64062500D03*
%TO.P,D2,2,A*%
%TO.N,Net-(D2-A)*%
X158400000Y-65937500D03*
%TD*%
D34*
%TO.P,D1,1,K*%
%TO.N,VSS*%
X158400000Y-72137500D03*
%TO.P,D1,2,A*%
%TO.N,Net-(D1-A)*%
X158400000Y-70262500D03*
%TD*%
D35*
%TO.P,C12,1*%
%TO.N,Net-(U1-VDDPIX)*%
X150850000Y-91600000D03*
%TO.P,C12,2*%
%TO.N,VSS*%
X152750000Y-91600000D03*
%TD*%
%TO.P,C11,1*%
%TO.N,Net-(U1-VDDPIX)*%
X150700000Y-89200000D03*
%TO.P,C11,2*%
%TO.N,VSS*%
X152600000Y-89200000D03*
%TD*%
D36*
%TO.P,C10,1*%
%TO.N,+1V8*%
X154300000Y-75562500D03*
%TO.P,C10,2*%
%TO.N,VSS*%
X154300000Y-73662500D03*
%TD*%
D37*
%TO.P,C9,1*%
%TO.N,+5V*%
X148050000Y-73650000D03*
%TO.P,C9,2*%
%TO.N,VSS*%
X148050000Y-75550000D03*
%TD*%
D38*
%TO.P,C7,1*%
%TO.N,VCC*%
X151400000Y-57800000D03*
%TO.P,C7,2*%
%TO.N,VSS*%
X149500000Y-57800000D03*
%TD*%
D35*
%TO.P,C6,1*%
%TO.N,+5V*%
X150250000Y-67800000D03*
%TO.P,C6,2*%
%TO.N,VSS*%
X152150000Y-67800000D03*
%TD*%
%TO.P,C5,1*%
%TO.N,VCC*%
X141650000Y-76600000D03*
%TO.P,C5,2*%
%TO.N,VSS*%
X143550000Y-76600000D03*
%TD*%
D38*
%TO.P,C4,1*%
%TO.N,VCC*%
X136550000Y-76600000D03*
%TO.P,C4,2*%
%TO.N,VSS*%
X134650000Y-76600000D03*
%TD*%
%TO.P,C3,1*%
%TO.N,VCC*%
X133350000Y-73200000D03*
%TO.P,C3,2*%
%TO.N,VSS*%
X131450000Y-73200000D03*
%TD*%
%TO.P,C2,1*%
%TO.N,VCC*%
X133350000Y-65800000D03*
%TO.P,C2,2*%
%TO.N,VSS*%
X131450000Y-65800000D03*
%TD*%
D35*
%TO.P,C1,1*%
%TO.N,VCC*%
X146050000Y-67800000D03*
%TO.P,C1,2*%
%TO.N,VSS*%
X147950000Y-67800000D03*
%TD*%
D39*
%TO.N,Net-(D3-DOUT)*%
X130600000Y-85800000D03*
X130400000Y-93800000D03*
%TO.N,Neo*%
X139400000Y-78200000D03*
X142000000Y-81200000D03*
%TO.N,Net-(J1-Pin_1)*%
X142400000Y-68200000D03*
%TO.N,+5V*%
X137150000Y-59400000D03*
%TO.N,VSS*%
X129600000Y-65800000D03*
X138200000Y-69800000D03*
X132800000Y-71200000D03*
X158000000Y-83400000D03*
X150000000Y-83800000D03*
X142600000Y-83000000D03*
X138930781Y-79171315D03*
X149000000Y-67800000D03*
X152600000Y-65400000D03*
X138600000Y-67200000D03*
%TO.N,VCC*%
X133000000Y-74600000D03*
%TO.N,VSS*%
X139800000Y-76200000D03*
%TO.N,Motion*%
X130600000Y-83600000D03*
%TO.N,SCLK*%
X140940380Y-71340380D03*
%TO.N,MOSI*%
X142113959Y-70534430D03*
%TO.N,MISO*%
X142741729Y-71107499D03*
%TO.N,~{CS}*%
X142691315Y-72512850D03*
%TO.N,3360_Reset*%
X142057044Y-75391544D03*
%TO.N,VCC*%
X141600000Y-78800000D03*
%TO.N,Five*%
X153600000Y-78000000D03*
X144200000Y-73400000D03*
%TO.N,Boot*%
X134400000Y-70757500D03*
%TO.N,Net-(RN2-R2.1)*%
X152400000Y-70400000D03*
X148800000Y-70200000D03*
%TO.N,Net-(RN2-R1.1)*%
X152345929Y-69534832D03*
X148855866Y-69351835D03*
%TO.N,VCC*%
X146715380Y-68115380D03*
X141590448Y-68547332D03*
%TO.N,Reset*%
X139184629Y-71896132D03*
%TO.N,Net-(J1-Pin_6)*%
X141087565Y-67416552D03*
%TO.N,Net-(J1-Pin_5)*%
X141928504Y-67292755D03*
%TO.N,+5V*%
X151000000Y-65200000D03*
X141600000Y-58000000D03*
%TD*%
D40*
%TO.N,Net-(U1-VDDPIX)*%
X148300000Y-91600000D02*
X150850000Y-91600000D01*
%TO.N,+1V8*%
X147219372Y-94265000D02*
X144500000Y-94265000D01*
%TO.N,Net-(U1-VDDPIX)*%
X147415000Y-92485000D02*
X148300000Y-91600000D01*
%TO.N,+1V8*%
X148685372Y-92799000D02*
X147219372Y-94265000D01*
X153314627Y-92799000D02*
X148685372Y-92799000D01*
X154400000Y-91713627D02*
X153314627Y-92799000D01*
X154400000Y-83200000D02*
X154400000Y-91713627D01*
X152150000Y-80950000D02*
X154400000Y-83200000D01*
%TO.N,+5V*%
X148450000Y-93600058D02*
X148450000Y-94825000D01*
%TO.N,+1V8*%
X152150000Y-75875000D02*
X152150000Y-80950000D01*
%TO.N,+5V*%
X154199000Y-93199000D02*
X148851058Y-93199000D01*
X148851058Y-93199000D02*
X148450000Y-93600058D01*
X147139688Y-108860312D02*
X156200000Y-99800000D01*
X156200000Y-99800000D02*
X156200000Y-95200000D01*
X156200000Y-95200000D02*
X154199000Y-93199000D01*
X141735503Y-108860312D02*
X147139688Y-108860312D01*
%TO.N,Net-(U1-VDDPIX)*%
X144500000Y-92485000D02*
X147415000Y-92485000D01*
X150700000Y-91450000D02*
X150700000Y-89200000D01*
X150850000Y-91600000D02*
X150700000Y-91450000D01*
%TO.N,+5V*%
X141200000Y-110800000D02*
X141735503Y-110264497D01*
X123849000Y-99449000D02*
X135200000Y-110800000D01*
X141735503Y-110264497D02*
X141735503Y-108860312D01*
X123849000Y-95649000D02*
X123849000Y-99449000D01*
X125050000Y-94825000D02*
X124673000Y-94825000D01*
X124673000Y-94825000D02*
X123849000Y-95649000D01*
X135200000Y-110800000D02*
X141200000Y-110800000D01*
%TO.N,Net-(D5-DOUT)*%
X155800000Y-96400000D02*
X154225000Y-94825000D01*
X154225000Y-94825000D02*
X153550000Y-94825000D01*
X155800000Y-99600000D02*
X155800000Y-96400000D01*
X148074688Y-107325312D02*
X155800000Y-99600000D01*
X141735503Y-107325312D02*
X148074688Y-107325312D01*
%TO.N,Net-(D4-DOUT)*%
X134260312Y-108860312D02*
X136635503Y-108860312D01*
X125050000Y-99650000D02*
X134260312Y-108860312D01*
X125050000Y-96360000D02*
X125050000Y-99650000D01*
%TO.N,+5V*%
X125050000Y-90629468D02*
X125050000Y-94825000D01*
%TO.N,Net-(Q1-S)*%
X127250000Y-88995153D02*
X127250000Y-88950000D01*
X127250000Y-88950000D02*
X127800000Y-88400000D01*
X126087500Y-90157654D02*
X127250000Y-88995153D01*
%TO.N,+5V*%
X126850000Y-88829468D02*
X125050000Y-90629468D01*
%TO.N,Net-(Q1-S)*%
X126087500Y-91600000D02*
X126087500Y-90157654D01*
%TO.N,+5V*%
X126850000Y-86525000D02*
X126850000Y-88829468D01*
X148200000Y-80400000D02*
X150200000Y-78400000D01*
X137050058Y-80400000D02*
X148200000Y-80400000D01*
X136650000Y-80800058D02*
X137050058Y-80400000D01*
X136650000Y-82025000D02*
X136650000Y-80800058D01*
X150200000Y-78400000D02*
X151200000Y-77400000D01*
%TO.N,Motion*%
X132200000Y-82000000D02*
X130600000Y-83600000D01*
X134600000Y-82000000D02*
X132200000Y-82000000D01*
X136600000Y-80000000D02*
X134600000Y-82000000D01*
X141600000Y-80000000D02*
X136600000Y-80000000D01*
X142749000Y-74251500D02*
X142749000Y-78851000D01*
X142749000Y-78851000D02*
X141600000Y-80000000D01*
X142517500Y-74020000D02*
X142749000Y-74251500D01*
%TO.N,+5V*%
X136075000Y-82600000D02*
X136650000Y-82025000D01*
X132800000Y-82600000D02*
X136075000Y-82600000D01*
X128875000Y-86525000D02*
X132800000Y-82600000D01*
X126850000Y-86525000D02*
X128875000Y-86525000D01*
%TO.N,Net-(D3-DOUT)*%
X130400000Y-94575000D02*
X130150000Y-94825000D01*
X130400000Y-93800000D02*
X130400000Y-94575000D01*
%TO.N,Neo*%
X138017500Y-76817500D02*
X138017500Y-74020000D01*
X139400000Y-78200000D02*
X138017500Y-76817500D01*
X141750000Y-81450000D02*
X142000000Y-81200000D01*
X141750000Y-82025000D02*
X141750000Y-81450000D01*
%TO.N,Five*%
X156875000Y-78200000D02*
X160375000Y-78200000D01*
%TO.N,Net-(J1-Pin_1)*%
X143930000Y-68607500D02*
X142807500Y-68607500D01*
%TO.N,Net-(J1-Pin_2)*%
X145943824Y-63540000D02*
X146200000Y-63540000D01*
X142891500Y-66592324D02*
X145943824Y-63540000D01*
X143158676Y-68107500D02*
X142891500Y-67840324D01*
X143930000Y-68107500D02*
X143158676Y-68107500D01*
%TO.N,VCC*%
X141443116Y-68400000D02*
X141590448Y-68547332D01*
X140400000Y-68400000D02*
X141443116Y-68400000D01*
X141590448Y-68609552D02*
X141590448Y-68547332D01*
X140200000Y-70000000D02*
X141590448Y-68609552D01*
X141017500Y-74020000D02*
X141017500Y-73017500D01*
%TO.N,Net-(J1-Pin_6)*%
X141017500Y-67346487D02*
X141087565Y-67416552D01*
%TO.N,Net-(J1-Pin_5)*%
X141517500Y-66881751D02*
X141928504Y-67292755D01*
%TO.N,Net-(J1-Pin_2)*%
X142891500Y-67840324D02*
X142891500Y-66592324D01*
%TO.N,Net-(J1-Pin_1)*%
X142807500Y-68607500D02*
X142400000Y-68200000D01*
%TO.N,Net-(J1-Pin_6)*%
X141017500Y-65695000D02*
X141017500Y-67346487D01*
%TO.N,Net-(J1-Pin_5)*%
X141517500Y-65695000D02*
X141517500Y-66881751D01*
%TO.N,VCC*%
X141017500Y-73017500D02*
X140200000Y-72200000D01*
X140200000Y-72200000D02*
X140200000Y-70000000D01*
%TO.N,Net-(J11-CC2)*%
X137580000Y-60288000D02*
X137580000Y-61300000D01*
X137800000Y-60068000D02*
X137580000Y-60288000D01*
X137800000Y-58600000D02*
X137800000Y-60068000D01*
%TO.N,+5V*%
X137150000Y-60205000D02*
X137150000Y-59400000D01*
X137055000Y-61200000D02*
X137055000Y-60300000D01*
X137055000Y-60300000D02*
X137150000Y-60205000D01*
%TO.N,Net-(J11-CC2)*%
X137400000Y-58200000D02*
X137800000Y-58600000D01*
X131500000Y-58200000D02*
X137400000Y-58200000D01*
%TO.N,Net-(J11-CC1)*%
X140580000Y-60288000D02*
X140580000Y-61300000D01*
X137843000Y-57551000D02*
X140580000Y-60288000D01*
X131651000Y-57551000D02*
X137843000Y-57551000D01*
X131500000Y-57400000D02*
X131651000Y-57551000D01*
%TO.N,VSS*%
X136643500Y-71356500D02*
X138200000Y-69800000D01*
X136643500Y-71840324D02*
X136643500Y-71356500D01*
X136376324Y-72107500D02*
X136643500Y-71840324D01*
X135605000Y-72107500D02*
X136376324Y-72107500D01*
%TO.N,VCC*%
X137017500Y-74020000D02*
X137017500Y-72032010D01*
X136376324Y-72607500D02*
X136476324Y-72507500D01*
X136476324Y-72507500D02*
X136542010Y-72507500D01*
X137017500Y-72032010D02*
X137191912Y-71857598D01*
X135605000Y-72607500D02*
X136376324Y-72607500D01*
X136542010Y-72507500D02*
X137043500Y-72006009D01*
X137191912Y-71857598D02*
X137191912Y-71791912D01*
%TO.N,VSS*%
X133707500Y-72107500D02*
X132800000Y-71200000D01*
X135605000Y-72107500D02*
X133707500Y-72107500D01*
%TO.N,Reset*%
X140017500Y-74020000D02*
X140017500Y-72800000D01*
%TO.N,SCLK*%
X141315253Y-71715253D02*
X140940380Y-71340380D01*
X143079603Y-71607500D02*
X142971850Y-71715253D01*
X143930000Y-71607500D02*
X143079603Y-71607500D01*
X142971850Y-71715253D02*
X141315253Y-71715253D01*
%TO.N,VSS*%
X146750000Y-69000000D02*
X147950000Y-67800000D01*
X145738840Y-69000000D02*
X146750000Y-69000000D01*
X145200000Y-68461160D02*
X145738840Y-69000000D01*
X145200000Y-68106176D02*
X145200000Y-68461160D01*
X144701324Y-67607500D02*
X145200000Y-68106176D01*
X143930000Y-67607500D02*
X144701324Y-67607500D01*
%TO.N,VCC*%
X146050000Y-67800000D02*
X146550000Y-67800000D01*
X146550000Y-67800000D02*
X146715380Y-67965380D01*
X146715380Y-67965380D02*
X146715380Y-68115380D01*
%TO.N,VSS*%
X137517500Y-66466324D02*
X138251176Y-67200000D01*
X138251176Y-67200000D02*
X138600000Y-67200000D01*
X137517500Y-65695000D02*
X137517500Y-66466324D01*
%TO.N,VCC*%
X133000000Y-74600000D02*
X133000000Y-73550000D01*
X133000000Y-73550000D02*
X133350000Y-73200000D01*
%TO.N,VSS*%
X140517500Y-75482500D02*
X139800000Y-76200000D01*
X140517500Y-74020000D02*
X140517500Y-75482500D01*
%TO.N,~{CS}*%
X143096664Y-72107500D02*
X142691315Y-72512850D01*
X143930000Y-72107500D02*
X143096664Y-72107500D01*
%TO.N,MOSI*%
X142190890Y-70457499D02*
X142113959Y-70534430D01*
X143010968Y-70457499D02*
X142190890Y-70457499D01*
X143930000Y-70607500D02*
X143160969Y-70607500D01*
%TO.N,MISO*%
X143930000Y-71107500D02*
X142741729Y-71107499D01*
%TO.N,MOSI*%
X143160969Y-70607500D02*
X143010968Y-70457499D01*
%TO.N,Reset*%
X140017500Y-72729003D02*
X139184629Y-71896132D01*
X140017500Y-72800000D02*
X140017500Y-72729003D01*
%TO.N,3360_Reset*%
X142057044Y-74059544D02*
X142017500Y-74020000D01*
X142057044Y-75391544D02*
X142057044Y-74059544D01*
%TO.N,VCC*%
X141600000Y-78800000D02*
X141650000Y-78750000D01*
X141650000Y-78750000D02*
X141650000Y-76600000D01*
%TO.N,Four*%
X131692500Y-70107500D02*
X135605000Y-70107500D01*
X128800000Y-73000000D02*
X131692500Y-70107500D01*
X128800000Y-76800000D02*
X128800000Y-73000000D01*
X122800000Y-82800000D02*
X128800000Y-76800000D01*
X122800000Y-108800000D02*
X122800000Y-82800000D01*
X126000000Y-112000000D02*
X122800000Y-108800000D01*
X144000000Y-112000000D02*
X126000000Y-112000000D01*
X147200000Y-115200000D02*
X144000000Y-112000000D01*
X156350000Y-115200000D02*
X147200000Y-115200000D01*
%TO.N,Boot*%
X134550000Y-70607500D02*
X134400000Y-70757500D01*
X135605000Y-70607500D02*
X134550000Y-70607500D01*
%TO.N,Three*%
X134773185Y-69607500D02*
X135605000Y-69607500D01*
X134765685Y-69600000D02*
X134773185Y-69607500D01*
X128400000Y-72800000D02*
X131600000Y-69600000D01*
X128400000Y-76600000D02*
X128400000Y-72800000D01*
X122200000Y-108800000D02*
X122200000Y-82800000D01*
X128600000Y-115200000D02*
X122200000Y-108800000D01*
X137250000Y-115200000D02*
X128600000Y-115200000D01*
X122200000Y-82800000D02*
X128400000Y-76600000D01*
X131600000Y-69600000D02*
X134765685Y-69600000D01*
%TO.N,Four*%
X159850000Y-115200000D02*
X156350000Y-115200000D01*
%TO.N,Three*%
X140750000Y-115200000D02*
X137250000Y-115200000D01*
%TO.N,Two*%
X131492500Y-69107500D02*
X135605000Y-69107500D01*
X128000000Y-72600000D02*
X131492500Y-69107500D01*
X128000000Y-76400000D02*
X128000000Y-72600000D01*
X121650000Y-82750000D02*
X128000000Y-76400000D01*
X121650000Y-115200000D02*
X121650000Y-82750000D01*
X118150000Y-115200000D02*
X121650000Y-115200000D01*
%TO.N,Led_power*%
X137517500Y-78117500D02*
X137517500Y-74020000D01*
X137500000Y-78100000D02*
X137517500Y-78117500D01*
X130595532Y-81400000D02*
X134200000Y-81400000D01*
X125900000Y-88400000D02*
X125900000Y-86095532D01*
X125900000Y-86095532D02*
X130595532Y-81400000D01*
X134200000Y-81400000D02*
X137500000Y-78100000D01*
%TO.N,Five*%
X144200000Y-72877500D02*
X144200000Y-73400000D01*
X143930000Y-72607500D02*
X144200000Y-72877500D01*
X153800000Y-78200000D02*
X153600000Y-78000000D01*
X156875000Y-78200000D02*
X153800000Y-78200000D01*
%TO.N,One*%
X131407500Y-68607500D02*
X135605000Y-68607500D01*
X131400000Y-68600000D02*
X131407500Y-68607500D01*
X127600000Y-76052000D02*
X127600000Y-72400000D01*
X125452000Y-78200000D02*
X127600000Y-76052000D01*
X121150000Y-78200000D02*
X125452000Y-78200000D01*
X127600000Y-72400000D02*
X131400000Y-68600000D01*
X117650000Y-78200000D02*
X121150000Y-78200000D01*
%TO.N,Net-(U1-LED_P)*%
X133795000Y-91600000D02*
X133800000Y-91595000D01*
X127912500Y-91600000D02*
X133795000Y-91600000D01*
%TO.N,Net-(D2-A)*%
X157250000Y-67250000D02*
X158400000Y-66100000D01*
X158400000Y-66100000D02*
X158400000Y-65937500D01*
%TO.N,Net-(D1-A)*%
X157337500Y-69200000D02*
X158400000Y-70262500D01*
X156100000Y-69200000D02*
X157337500Y-69200000D01*
%TO.N,Net-(D2-A)*%
X157250000Y-67250000D02*
X156100000Y-68400000D01*
%TO.N,Net-(RN2-R2.1)*%
X153600000Y-69200000D02*
X154300000Y-69200000D01*
X152400000Y-70400000D02*
X153600000Y-69200000D01*
%TO.N,Net-(RN2-R1.1)*%
X154300000Y-68400000D02*
X153480761Y-68400000D01*
%TO.N,Net-(RN2-R2.1)*%
X148707500Y-70107500D02*
X148800000Y-70200000D01*
X143930000Y-70107500D02*
X148707500Y-70107500D01*
%TO.N,Net-(RN2-R1.1)*%
X153480761Y-68400000D02*
X152345929Y-69534832D01*
X143930000Y-69607500D02*
X148600201Y-69607500D01*
X148600201Y-69607500D02*
X148855866Y-69351835D01*
%TO.N,Net-(D2-A)*%
X157300000Y-67200000D02*
X157250000Y-67250000D01*
%TO.N,+5V*%
X151200000Y-68750000D02*
X150250000Y-67800000D01*
X151200000Y-74000000D02*
X151200000Y-68750000D01*
%TO.N,+1V8*%
X152462500Y-75562500D02*
X152150000Y-75875000D01*
X154300000Y-75562500D02*
X152462500Y-75562500D01*
%TO.N,VCC*%
X137191912Y-71791912D02*
X140400000Y-68583824D01*
X140400000Y-68583824D02*
X140400000Y-68400000D01*
X138800000Y-68400000D02*
X140400000Y-68400000D01*
X137017500Y-66617500D02*
X138800000Y-68400000D01*
X137017500Y-65695000D02*
X137017500Y-66617500D01*
%TO.N,Boot*%
X125800000Y-70470000D02*
X125937500Y-70607500D01*
%TO.N,SWCLK*%
X127517500Y-67107500D02*
X125800000Y-65390000D01*
X135605000Y-67107500D02*
X127517500Y-67107500D01*
%TO.N,SWDIO*%
X127550000Y-64600000D02*
X125800000Y-62850000D01*
X137693824Y-64600000D02*
X127550000Y-64600000D01*
X138017500Y-64923676D02*
X137693824Y-64600000D01*
X138017500Y-65695000D02*
X138017500Y-64923676D01*
%TO.N,/D+*%
X137392500Y-63800000D02*
X138542500Y-63800000D01*
X138542500Y-63800000D02*
X138542500Y-64563749D01*
%TO.N,/D-*%
X140025000Y-63800000D02*
X138992500Y-63800000D01*
X138992500Y-63800000D02*
X138992500Y-63233353D01*
%TO.N,Net-(J1-Pin_3)*%
X145942500Y-62270000D02*
X146200000Y-62270000D01*
X145799000Y-62808214D02*
X145799000Y-62413500D01*
X142912214Y-65695000D02*
X145799000Y-62808214D01*
X142517500Y-65695000D02*
X142912214Y-65695000D01*
X145799000Y-62413500D02*
X145942500Y-62270000D01*
%TO.N,Net-(J1-Pin_4)*%
X146200000Y-61200000D02*
X146200000Y-61000000D01*
X145931000Y-61469000D02*
X146200000Y-61200000D01*
X145868214Y-61469000D02*
X145931000Y-61469000D01*
X142680714Y-64656500D02*
X145868214Y-61469000D01*
X142284676Y-64656500D02*
X142680714Y-64656500D01*
X142066500Y-64874676D02*
X142284676Y-64656500D01*
X142066500Y-65333500D02*
X142066500Y-64874676D01*
X142017500Y-65382500D02*
X142066500Y-65333500D01*
X142017500Y-65695000D02*
X142017500Y-65382500D01*
%TO.N,VCC*%
X136245000Y-65695000D02*
X137017500Y-65695000D01*
X136140000Y-65800000D02*
X136245000Y-65695000D01*
X133350000Y-65800000D02*
X136140000Y-65800000D01*
X141017500Y-75967500D02*
X141017500Y-74020000D01*
X141650000Y-76600000D02*
X141017500Y-75967500D01*
X136550000Y-74487500D02*
X137017500Y-74020000D01*
X136550000Y-76600000D02*
X136550000Y-74487500D01*
X133942500Y-72607500D02*
X135605000Y-72607500D01*
X133350000Y-73200000D02*
X133942500Y-72607500D01*
%TO.N,+5V*%
X141544000Y-58056000D02*
X141600000Y-58000000D01*
X141544000Y-60889000D02*
X141544000Y-58056000D01*
X141855000Y-61200000D02*
X141544000Y-60889000D01*
%TO.N,/D+*%
X139580000Y-60288000D02*
X139580000Y-61300000D01*
X139491000Y-60199000D02*
X139580000Y-60288000D01*
X138669000Y-60199000D02*
X139491000Y-60199000D01*
X138580000Y-60288000D02*
X138669000Y-60199000D01*
X138580000Y-61300000D02*
X138580000Y-60288000D01*
%TO.N,/D-*%
X140080000Y-62145853D02*
X140080000Y-61300000D01*
X139080000Y-63145853D02*
X140080000Y-62145853D01*
%TO.N,/D+*%
X138517500Y-64588749D02*
X138517500Y-65695000D01*
X138542500Y-63117668D02*
X138542500Y-63800000D01*
X138605000Y-63055168D02*
X138542500Y-63117668D01*
%TO.N,/D-*%
X139080000Y-63145853D02*
X139080000Y-61300000D01*
%TO.N,/D+*%
X138542500Y-64563749D02*
X138517500Y-64588749D01*
%TO.N,/D-*%
X138992500Y-63233353D02*
X139080000Y-63145853D01*
X138992500Y-64563749D02*
X138992500Y-63800000D01*
%TO.N,/D+*%
X138580000Y-61300000D02*
X138580000Y-61990000D01*
%TO.N,/D-*%
X139017500Y-64588749D02*
X138992500Y-64563749D01*
%TO.N,/D+*%
X138580000Y-61990000D02*
X138605000Y-62015000D01*
%TO.N,/D-*%
X139017500Y-65695000D02*
X139017500Y-64588749D01*
%TO.N,/D+*%
X138605000Y-62015000D02*
X138605000Y-63055168D01*
%TO.N,VCC*%
X149350000Y-63193992D02*
X149350000Y-62850000D01*
X146050000Y-66493992D02*
X149350000Y-63193992D01*
X146050000Y-67800000D02*
X146050000Y-66493992D01*
X146050000Y-67800000D02*
X145357500Y-67107500D01*
X145357500Y-67107500D02*
X143930000Y-67107500D01*
%TO.N,+5V*%
X150250000Y-67450000D02*
X150250000Y-67800000D01*
X149350000Y-66550000D02*
X150250000Y-67450000D01*
X149350000Y-65150000D02*
X149350000Y-66550000D01*
X150850000Y-73650000D02*
X151200000Y-74000000D01*
X148050000Y-73650000D02*
X150850000Y-73650000D01*
X149400000Y-65200000D02*
X149350000Y-65150000D01*
X151000000Y-65200000D02*
X149400000Y-65200000D01*
%TO.N,VCC*%
X149350000Y-62850000D02*
X155650000Y-62850000D01*
X151400000Y-60800000D02*
X149350000Y-62850000D01*
X151400000Y-57800000D02*
X151400000Y-60800000D01*
%TO.N,+5V*%
X151200000Y-77400000D02*
X151200000Y-74000000D01*
%TO.N,Net-(D3-DOUT)*%
X132800000Y-83600000D02*
X130600000Y-85800000D01*
X136610000Y-83600000D02*
X132800000Y-83600000D01*
X136650000Y-83560000D02*
X136610000Y-83600000D01*
%TD*%
%TA.AperFunction,Conductor*%
%TO.N,VSS*%
G36*
X132756019Y-92200903D02*
G01*
X132757403Y-92200531D01*
X132789440Y-92210717D01*
X132821683Y-92220185D01*
X132822934Y-92221367D01*
X132823988Y-92221702D01*
X132850140Y-92245402D01*
X132852646Y-92248428D01*
X132922447Y-92344501D01*
X132979369Y-92401423D01*
X132983079Y-92405902D01*
X132994679Y-92432875D01*
X133008749Y-92458643D01*
X133008322Y-92464600D01*
X133010683Y-92470088D01*
X133005858Y-92499050D01*
X133003764Y-92528335D01*
X133000184Y-92533116D01*
X132999203Y-92539008D01*
X132975265Y-92572680D01*
X132922445Y-92625500D01*
X132922441Y-92625505D01*
X132816006Y-92772002D01*
X132733788Y-92933360D01*
X132733787Y-92933363D01*
X132677829Y-93105589D01*
X132649500Y-93284448D01*
X132649500Y-93465551D01*
X132677829Y-93644410D01*
X132733787Y-93816636D01*
X132733788Y-93816639D01*
X132755730Y-93859701D01*
X132812545Y-93971206D01*
X132816006Y-93977997D01*
X132922441Y-94124494D01*
X132922445Y-94124499D01*
X132975265Y-94177320D01*
X133008749Y-94238643D01*
X133003764Y-94308335D01*
X132975265Y-94352680D01*
X132922445Y-94405500D01*
X132922441Y-94405505D01*
X132816006Y-94552002D01*
X132733788Y-94713360D01*
X132733787Y-94713363D01*
X132677829Y-94885589D01*
X132649500Y-95064448D01*
X132649500Y-95245551D01*
X132677829Y-95424410D01*
X132733787Y-95596636D01*
X132733788Y-95596639D01*
X132816006Y-95757997D01*
X132922441Y-95904494D01*
X132922445Y-95904499D01*
X132975265Y-95957320D01*
X133008749Y-96018643D01*
X133003764Y-96088335D01*
X132975265Y-96132680D01*
X132922445Y-96185500D01*
X132922441Y-96185505D01*
X132816006Y-96332002D01*
X132733788Y-96493360D01*
X132733787Y-96493363D01*
X132677829Y-96665589D01*
X132649500Y-96844448D01*
X132649500Y-97025551D01*
X132677829Y-97204410D01*
X132733787Y-97376636D01*
X132733788Y-97376639D01*
X132816006Y-97537997D01*
X132922441Y-97684494D01*
X132922445Y-97684499D01*
X132975265Y-97737320D01*
X133008749Y-97798643D01*
X133003764Y-97868335D01*
X132975265Y-97912680D01*
X132922445Y-97965500D01*
X132922441Y-97965505D01*
X132816006Y-98112002D01*
X132733788Y-98273360D01*
X132733787Y-98273363D01*
X132677829Y-98445589D01*
X132649500Y-98624448D01*
X132649500Y-98805551D01*
X132677829Y-98984410D01*
X132733787Y-99156636D01*
X132733788Y-99156639D01*
X132816006Y-99317997D01*
X132922441Y-99464494D01*
X132922445Y-99464499D01*
X132975265Y-99517320D01*
X133008749Y-99578643D01*
X133003764Y-99648335D01*
X132975265Y-99692680D01*
X132922445Y-99745500D01*
X132922441Y-99745505D01*
X132816006Y-99892002D01*
X132733788Y-100053360D01*
X132733787Y-100053363D01*
X132677829Y-100225589D01*
X132649500Y-100404448D01*
X132649500Y-100585551D01*
X132677829Y-100764410D01*
X132733787Y-100936636D01*
X132733788Y-100936639D01*
X132816006Y-101097997D01*
X132922441Y-101244494D01*
X132922445Y-101244499D01*
X132975265Y-101297320D01*
X133008749Y-101358643D01*
X133003764Y-101428335D01*
X132975265Y-101472680D01*
X132922445Y-101525500D01*
X132922441Y-101525505D01*
X132816006Y-101672002D01*
X132733788Y-101833360D01*
X132733787Y-101833363D01*
X132677829Y-102005589D01*
X132649500Y-102184448D01*
X132649500Y-102365551D01*
X132677829Y-102544410D01*
X132733787Y-102716636D01*
X132733788Y-102716639D01*
X132816006Y-102877997D01*
X132922441Y-103024494D01*
X132922445Y-103024499D01*
X133050500Y-103152554D01*
X133050505Y-103152558D01*
X133178287Y-103245396D01*
X133197006Y-103258996D01*
X133302484Y-103312740D01*
X133358360Y-103341211D01*
X133358363Y-103341212D01*
X133444476Y-103369191D01*
X133530591Y-103397171D01*
X133613429Y-103410291D01*
X133709449Y-103425500D01*
X133709454Y-103425500D01*
X133890550Y-103425500D01*
X133963258Y-103413983D01*
X134061103Y-103398486D01*
X134130395Y-103407440D01*
X134183847Y-103452436D01*
X134204487Y-103519187D01*
X134204500Y-103520959D01*
X134204500Y-103603391D01*
X134238608Y-103730687D01*
X134271554Y-103787750D01*
X134304500Y-103844814D01*
X134397686Y-103938000D01*
X134511814Y-104003892D01*
X134639108Y-104038000D01*
X134639110Y-104038000D01*
X143660890Y-104038000D01*
X143660892Y-104038000D01*
X143788186Y-104003892D01*
X143902314Y-103938000D01*
X143995500Y-103844814D01*
X144061392Y-103730686D01*
X144095500Y-103603392D01*
X144095500Y-102630453D01*
X144115185Y-102563414D01*
X144167989Y-102517659D01*
X144237147Y-102507715D01*
X144238898Y-102507980D01*
X144409494Y-102535000D01*
X144590506Y-102535000D01*
X144769293Y-102506682D01*
X144941444Y-102450748D01*
X144941452Y-102450745D01*
X145102730Y-102368568D01*
X145118532Y-102357085D01*
X144496447Y-101735000D01*
X144546078Y-101735000D01*
X144635095Y-101711148D01*
X144714905Y-101665070D01*
X144780070Y-101599905D01*
X144826148Y-101520095D01*
X144850000Y-101431078D01*
X144850000Y-101384999D01*
X144853553Y-101384999D01*
X144853553Y-101385000D01*
X145472085Y-102003532D01*
X145483568Y-101987730D01*
X145565745Y-101826452D01*
X145565748Y-101826444D01*
X145621682Y-101654293D01*
X145650000Y-101475506D01*
X145650000Y-101294493D01*
X145621682Y-101115706D01*
X145565748Y-100943555D01*
X145565747Y-100943552D01*
X145483571Y-100782275D01*
X145483566Y-100782267D01*
X145472085Y-100766466D01*
X144853553Y-101384999D01*
X144850000Y-101384999D01*
X144850000Y-101338922D01*
X144826148Y-101249905D01*
X144780070Y-101170095D01*
X144714905Y-101104930D01*
X144635095Y-101058852D01*
X144546078Y-101035000D01*
X144496444Y-101035000D01*
X144800003Y-100731441D01*
X144849363Y-100701192D01*
X144941639Y-100671211D01*
X145102994Y-100588996D01*
X145249501Y-100482553D01*
X145377553Y-100354501D01*
X145483996Y-100207994D01*
X145566211Y-100046639D01*
X145622171Y-99874409D01*
X145636765Y-99782259D01*
X145650500Y-99695551D01*
X145650500Y-99514448D01*
X145627136Y-99366942D01*
X145622171Y-99335591D01*
X145566211Y-99163361D01*
X145566211Y-99163360D01*
X145537740Y-99107484D01*
X145483996Y-99002006D01*
X145470396Y-98983287D01*
X145377558Y-98855505D01*
X145377554Y-98855500D01*
X145324735Y-98802681D01*
X145291250Y-98741358D01*
X145296234Y-98671666D01*
X145324735Y-98627319D01*
X145327606Y-98624448D01*
X145377553Y-98574501D01*
X145483996Y-98427994D01*
X145566211Y-98266639D01*
X145622171Y-98094409D01*
X145636765Y-98002259D01*
X145650500Y-97915551D01*
X145650500Y-97734448D01*
X145634019Y-97630397D01*
X145622171Y-97555591D01*
X145566211Y-97383361D01*
X145566211Y-97383360D01*
X145508705Y-97270500D01*
X145483996Y-97222006D01*
X145415368Y-97127547D01*
X145377558Y-97075505D01*
X145377554Y-97075500D01*
X145324735Y-97022681D01*
X145291250Y-96961358D01*
X145296234Y-96891666D01*
X145324735Y-96847319D01*
X145327606Y-96844448D01*
X145377553Y-96794501D01*
X145483996Y-96647994D01*
X145566211Y-96486639D01*
X145622171Y-96314409D01*
X145636765Y-96222259D01*
X145650500Y-96135551D01*
X145650500Y-95954448D01*
X145632771Y-95842517D01*
X145622171Y-95775591D01*
X145566211Y-95603361D01*
X145566211Y-95603360D01*
X145522813Y-95518189D01*
X145483996Y-95442006D01*
X145411688Y-95342482D01*
X145377558Y-95295505D01*
X145377554Y-95295500D01*
X145324735Y-95242681D01*
X145323279Y-95240015D01*
X145320685Y-95238435D01*
X145306639Y-95209541D01*
X145291250Y-95181358D01*
X145291466Y-95178329D01*
X145290138Y-95175596D01*
X145293942Y-95143703D01*
X145296234Y-95111666D01*
X145298163Y-95108322D01*
X145298415Y-95106218D01*
X145304971Y-95096528D01*
X145316776Y-95076076D01*
X145320543Y-95071510D01*
X145377553Y-95014501D01*
X145450919Y-94913519D01*
X145453349Y-94910576D01*
X145479240Y-94893042D01*
X145504000Y-94873949D01*
X145508751Y-94873056D01*
X145511201Y-94871398D01*
X145518521Y-94871221D01*
X145548989Y-94865500D01*
X146925501Y-94865500D01*
X146992540Y-94885185D01*
X147038295Y-94937989D01*
X147049501Y-94989500D01*
X147049501Y-95282876D01*
X147055908Y-95342483D01*
X147106202Y-95477328D01*
X147106204Y-95477331D01*
X147136790Y-95518189D01*
X147161207Y-95583654D01*
X147146355Y-95651927D01*
X147136790Y-95666811D01*
X147106204Y-95707668D01*
X147106202Y-95707671D01*
X147055908Y-95842517D01*
X147049501Y-95902116D01*
X147049500Y-95902135D01*
X147049500Y-96817870D01*
X147049501Y-96817876D01*
X147055908Y-96877483D01*
X147106202Y-97012328D01*
X147106206Y-97012335D01*
X147192452Y-97127544D01*
X147192455Y-97127547D01*
X147307664Y-97213793D01*
X147307671Y-97213797D01*
X147442517Y-97264091D01*
X147442516Y-97264091D01*
X147449444Y-97264835D01*
X147502127Y-97270500D01*
X148475500Y-97270499D01*
X148542539Y-97290183D01*
X148588294Y-97342987D01*
X148599500Y-97394499D01*
X148599500Y-97465891D01*
X148633608Y-97593187D01*
X148666554Y-97650250D01*
X148699500Y-97707314D01*
X148792686Y-97800500D01*
X148906814Y-97866392D01*
X149034108Y-97900500D01*
X149034110Y-97900500D01*
X152965890Y-97900500D01*
X152965892Y-97900500D01*
X153093186Y-97866392D01*
X153207314Y-97800500D01*
X153300500Y-97707314D01*
X153366392Y-97593186D01*
X153400500Y-97465892D01*
X153400500Y-96484000D01*
X153403050Y-96475314D01*
X153401762Y-96466353D01*
X153412740Y-96442312D01*
X153420185Y-96416961D01*
X153427025Y-96411033D01*
X153430787Y-96402797D01*
X153453021Y-96388507D01*
X153472989Y-96371206D01*
X153483503Y-96368918D01*
X153489565Y-96365023D01*
X153524500Y-96360000D01*
X153676000Y-96360000D01*
X153743039Y-96379685D01*
X153788794Y-96432489D01*
X153800000Y-96484000D01*
X153800000Y-97270000D01*
X154497828Y-97270000D01*
X154497844Y-97269999D01*
X154557372Y-97263598D01*
X154557379Y-97263596D01*
X154692086Y-97213354D01*
X154692093Y-97213350D01*
X154807187Y-97127190D01*
X154807190Y-97127187D01*
X154893350Y-97012093D01*
X154893354Y-97012086D01*
X154943596Y-96877379D01*
X154943598Y-96877372D01*
X154949999Y-96817844D01*
X154950000Y-96817827D01*
X154950000Y-96698597D01*
X154956238Y-96677351D01*
X154957818Y-96655263D01*
X154965890Y-96644479D01*
X154969685Y-96631558D01*
X154986418Y-96617058D01*
X154999690Y-96599330D01*
X155012310Y-96594622D01*
X155022489Y-96585803D01*
X155044406Y-96582651D01*
X155065154Y-96574913D01*
X155078314Y-96577775D01*
X155091647Y-96575859D01*
X155111790Y-96585058D01*
X155133427Y-96589765D01*
X155151152Y-96603033D01*
X155155203Y-96604884D01*
X155161681Y-96610916D01*
X155163181Y-96612416D01*
X155196666Y-96673739D01*
X155199500Y-96700097D01*
X155199500Y-99299903D01*
X155179815Y-99366942D01*
X155163181Y-99387584D01*
X147862272Y-106688493D01*
X147800949Y-106721978D01*
X147774591Y-106724812D01*
X143180169Y-106724812D01*
X143113130Y-106705127D01*
X143080902Y-106675123D01*
X143079299Y-106672982D01*
X143079299Y-106672981D01*
X142993049Y-106557766D01*
X142970212Y-106540670D01*
X142877838Y-106471518D01*
X142877831Y-106471514D01*
X142742985Y-106421220D01*
X142742986Y-106421220D01*
X142683386Y-106414813D01*
X142683384Y-106414812D01*
X142683376Y-106414812D01*
X142683368Y-106414812D01*
X141710003Y-106414812D01*
X141642964Y-106395127D01*
X141597209Y-106342323D01*
X141586003Y-106290812D01*
X141586003Y-106219422D01*
X141586003Y-106219420D01*
X141551895Y-106092126D01*
X141486003Y-105977998D01*
X141392817Y-105884812D01*
X141335753Y-105851866D01*
X141278690Y-105818920D01*
X141215042Y-105801866D01*
X141151395Y-105784812D01*
X137351395Y-105784812D01*
X137219611Y-105784812D01*
X137092315Y-105818920D01*
X136978189Y-105884812D01*
X136978186Y-105884814D01*
X136885005Y-105977995D01*
X136885003Y-105977998D01*
X136819111Y-106092124D01*
X136785003Y-106219420D01*
X136785003Y-107201312D01*
X136765318Y-107268351D01*
X136712514Y-107314106D01*
X136661003Y-107325312D01*
X136635503Y-107325312D01*
X136635503Y-107451312D01*
X136615818Y-107518351D01*
X136563014Y-107564106D01*
X136511503Y-107575312D01*
X135235503Y-107575312D01*
X135235503Y-107783156D01*
X135241904Y-107842684D01*
X135241906Y-107842691D01*
X135292148Y-107977398D01*
X135292150Y-107977401D01*
X135322605Y-108018084D01*
X135331839Y-108042842D01*
X135344504Y-108066036D01*
X135343858Y-108075066D01*
X135347022Y-108083549D01*
X135341405Y-108109369D01*
X135339520Y-108135728D01*
X135333122Y-108147445D01*
X135332170Y-108151822D01*
X135322606Y-108166705D01*
X135291707Y-108207981D01*
X135291706Y-108207982D01*
X135290105Y-108210122D01*
X135234172Y-108251993D01*
X135190837Y-108259812D01*
X134560409Y-108259812D01*
X134493370Y-108240127D01*
X134472728Y-108223493D01*
X133116702Y-106867467D01*
X135235503Y-106867467D01*
X135235503Y-107075312D01*
X136385503Y-107075312D01*
X136385503Y-106415312D01*
X135687658Y-106415312D01*
X135628130Y-106421713D01*
X135628123Y-106421715D01*
X135493416Y-106471957D01*
X135493409Y-106471961D01*
X135378315Y-106558121D01*
X135378312Y-106558124D01*
X135292152Y-106673218D01*
X135292148Y-106673225D01*
X135241906Y-106807932D01*
X135241904Y-106807939D01*
X135235503Y-106867467D01*
X133116702Y-106867467D01*
X125686819Y-99437584D01*
X125653334Y-99376261D01*
X125650500Y-99349903D01*
X125650500Y-98024500D01*
X125670185Y-97957461D01*
X125722989Y-97911706D01*
X125774500Y-97900500D01*
X129565890Y-97900500D01*
X129565892Y-97900500D01*
X129693186Y-97866392D01*
X129807314Y-97800500D01*
X129900500Y-97707314D01*
X129966392Y-97593186D01*
X130000500Y-97465892D01*
X130000500Y-97270000D01*
X130400000Y-97270000D01*
X131097828Y-97270000D01*
X131097844Y-97269999D01*
X131157372Y-97263598D01*
X131157379Y-97263596D01*
X131292086Y-97213354D01*
X131292093Y-97213350D01*
X131407187Y-97127190D01*
X131407190Y-97127187D01*
X131493350Y-97012093D01*
X131493354Y-97012086D01*
X131543596Y-96877379D01*
X131543598Y-96877372D01*
X131549999Y-96817844D01*
X131550000Y-96817827D01*
X131550000Y-96610000D01*
X130400000Y-96610000D01*
X130400000Y-97270000D01*
X130000500Y-97270000D01*
X130000500Y-96484000D01*
X130020185Y-96416961D01*
X130072989Y-96371206D01*
X130124500Y-96360000D01*
X130150000Y-96360000D01*
X130150000Y-96234000D01*
X130169685Y-96166961D01*
X130222489Y-96121206D01*
X130274000Y-96110000D01*
X131550000Y-96110000D01*
X131550000Y-95902172D01*
X131549999Y-95902155D01*
X131543598Y-95842627D01*
X131543596Y-95842620D01*
X131493354Y-95707913D01*
X131493352Y-95707910D01*
X131462897Y-95667227D01*
X131438480Y-95601763D01*
X131453332Y-95533490D01*
X131462894Y-95518610D01*
X131493796Y-95477331D01*
X131544091Y-95342483D01*
X131550500Y-95282873D01*
X131550499Y-94367128D01*
X131544091Y-94307517D01*
X131528233Y-94265000D01*
X131493797Y-94172671D01*
X131493793Y-94172664D01*
X131407547Y-94057455D01*
X131407544Y-94057452D01*
X131292335Y-93971206D01*
X131292332Y-93971205D01*
X131292331Y-93971204D01*
X131281161Y-93967038D01*
X131225231Y-93925166D01*
X131200816Y-93859701D01*
X131200500Y-93850858D01*
X131200500Y-93721155D01*
X131200499Y-93721153D01*
X131185234Y-93644410D01*
X131169737Y-93566503D01*
X131111965Y-93427028D01*
X131109397Y-93420827D01*
X131109390Y-93420814D01*
X131021789Y-93289711D01*
X131021786Y-93289707D01*
X130910292Y-93178213D01*
X130910288Y-93178210D01*
X130779185Y-93090609D01*
X130779172Y-93090602D01*
X130633501Y-93030264D01*
X130633489Y-93030261D01*
X130478845Y-92999500D01*
X130478842Y-92999500D01*
X130321158Y-92999500D01*
X130321155Y-92999500D01*
X130166510Y-93030261D01*
X130166498Y-93030264D01*
X130020827Y-93090602D01*
X130020814Y-93090609D01*
X129889711Y-93178210D01*
X129889707Y-93178213D01*
X129776245Y-93291676D01*
X129714922Y-93325161D01*
X129656472Y-93323770D01*
X129565893Y-93299500D01*
X129565892Y-93299500D01*
X125774500Y-93299500D01*
X125707461Y-93279815D01*
X125661706Y-93227011D01*
X125650500Y-93175500D01*
X125650500Y-92924499D01*
X125670185Y-92857460D01*
X125722989Y-92811705D01*
X125774500Y-92800499D01*
X125774981Y-92800499D01*
X125774991Y-92800500D01*
X126400008Y-92800499D01*
X126400016Y-92800498D01*
X126400019Y-92800498D01*
X126456302Y-92794748D01*
X126502797Y-92789999D01*
X126669334Y-92734814D01*
X126818656Y-92642712D01*
X126912319Y-92549049D01*
X126973642Y-92515564D01*
X127043334Y-92520548D01*
X127087681Y-92549049D01*
X127181344Y-92642712D01*
X127330666Y-92734814D01*
X127497203Y-92789999D01*
X127599991Y-92800500D01*
X128225008Y-92800499D01*
X128225016Y-92800498D01*
X128225019Y-92800498D01*
X128281302Y-92794748D01*
X128327797Y-92789999D01*
X128494334Y-92734814D01*
X128643656Y-92642712D01*
X128767712Y-92518656D01*
X128859814Y-92369334D01*
X128887595Y-92285495D01*
X128927368Y-92228051D01*
X128991884Y-92201228D01*
X129005301Y-92200500D01*
X132754644Y-92200500D01*
X132756019Y-92200903D01*
G37*
%TD.AperFunction*%
%TA.AperFunction,Conductor*%
G36*
X133542539Y-70727685D02*
G01*
X133588294Y-70780489D01*
X133599500Y-70832000D01*
X133599500Y-70836346D01*
X133630261Y-70990989D01*
X133630264Y-70991001D01*
X133690602Y-71136672D01*
X133690609Y-71136685D01*
X133778210Y-71267788D01*
X133778213Y-71267792D01*
X133889707Y-71379286D01*
X133889711Y-71379289D01*
X134020814Y-71466890D01*
X134020827Y-71466897D01*
X134100998Y-71500104D01*
X134166503Y-71527237D01*
X134267194Y-71547265D01*
X134290503Y-71559458D01*
X134315322Y-71568157D01*
X134320967Y-71575393D01*
X134329102Y-71579649D01*
X134342118Y-71602508D01*
X134358297Y-71623247D01*
X134360496Y-71634781D01*
X134363676Y-71640365D01*
X134366484Y-71657579D01*
X134367000Y-71663215D01*
X134367000Y-71720220D01*
X134381813Y-71832736D01*
X134382717Y-71834919D01*
X134383849Y-71847281D01*
X134382088Y-71856223D01*
X134383304Y-71874767D01*
X134380090Y-71899183D01*
X134351825Y-71963080D01*
X134293501Y-72001552D01*
X134257151Y-72007000D01*
X134029170Y-72007000D01*
X134029154Y-72006999D01*
X134021558Y-72006999D01*
X133863443Y-72006999D01*
X133863442Y-72006999D01*
X133859963Y-72007457D01*
X133804774Y-72002224D01*
X133752798Y-71985001D01*
X133650010Y-71974500D01*
X133049998Y-71974500D01*
X133049980Y-71974501D01*
X132947203Y-71985000D01*
X132947200Y-71985001D01*
X132780668Y-72040185D01*
X132780663Y-72040187D01*
X132631342Y-72132289D01*
X132507288Y-72256343D01*
X132507283Y-72256349D01*
X132505241Y-72259661D01*
X132503247Y-72261453D01*
X132502807Y-72262011D01*
X132502711Y-72261935D01*
X132453291Y-72306383D01*
X132384328Y-72317602D01*
X132320247Y-72289755D01*
X132294168Y-72259656D01*
X132292319Y-72256659D01*
X132292316Y-72256655D01*
X132168345Y-72132684D01*
X132019124Y-72040643D01*
X132019119Y-72040641D01*
X131852697Y-71985494D01*
X131852690Y-71985493D01*
X131749986Y-71975000D01*
X131700000Y-71975000D01*
X131700000Y-74424999D01*
X131749972Y-74424999D01*
X131749986Y-74424998D01*
X131852697Y-74414505D01*
X132019119Y-74359358D01*
X132019159Y-74359334D01*
X132019189Y-74359325D01*
X132025670Y-74356304D01*
X132026185Y-74357410D01*
X132086550Y-74340887D01*
X132153215Y-74361802D01*
X132197991Y-74415440D01*
X132206659Y-74484769D01*
X132205885Y-74489055D01*
X132199500Y-74521157D01*
X132199500Y-74678846D01*
X132230261Y-74833489D01*
X132230264Y-74833501D01*
X132290602Y-74979172D01*
X132290609Y-74979185D01*
X132378210Y-75110288D01*
X132378213Y-75110292D01*
X132489707Y-75221786D01*
X132489711Y-75221789D01*
X132620814Y-75309390D01*
X132620827Y-75309397D01*
X132680923Y-75334289D01*
X132766503Y-75369737D01*
X132869382Y-75390201D01*
X132921153Y-75400499D01*
X132921156Y-75400500D01*
X132921158Y-75400500D01*
X133078844Y-75400500D01*
X133078845Y-75400499D01*
X133233497Y-75369737D01*
X133379179Y-75309394D01*
X133510289Y-75221789D01*
X133621789Y-75110289D01*
X133709394Y-74979179D01*
X133769737Y-74833497D01*
X133800500Y-74678842D01*
X133800500Y-74521158D01*
X133799111Y-74514175D01*
X133805337Y-74444584D01*
X133848199Y-74389406D01*
X133881724Y-74372276D01*
X133919334Y-74359814D01*
X134068656Y-74267712D01*
X134192712Y-74143656D01*
X134284814Y-73994334D01*
X134339999Y-73827797D01*
X134350500Y-73725009D01*
X134350500Y-73332000D01*
X134353050Y-73323314D01*
X134351762Y-73314353D01*
X134362740Y-73290312D01*
X134370185Y-73264961D01*
X134377025Y-73259033D01*
X134380787Y-73250797D01*
X134403021Y-73236507D01*
X134422989Y-73219206D01*
X134433503Y-73216918D01*
X134439565Y-73213023D01*
X134474500Y-73208000D01*
X134682651Y-73208000D01*
X134730103Y-73217438D01*
X134792264Y-73243187D01*
X134904780Y-73258000D01*
X134904787Y-73258000D01*
X136243000Y-73258000D01*
X136310039Y-73277685D01*
X136355794Y-73330489D01*
X136367000Y-73382000D01*
X136367000Y-73769902D01*
X136347315Y-73836941D01*
X136330681Y-73857583D01*
X136069481Y-74118782D01*
X136069475Y-74118790D01*
X136022302Y-74200498D01*
X136022302Y-74200499D01*
X135990423Y-74255714D01*
X135990423Y-74255715D01*
X135949499Y-74408443D01*
X135949499Y-74408445D01*
X135949499Y-74576546D01*
X135949500Y-74576559D01*
X135949500Y-75390201D01*
X135929815Y-75457240D01*
X135890598Y-75495739D01*
X135831344Y-75532287D01*
X135707288Y-75656343D01*
X135707283Y-75656349D01*
X135705241Y-75659661D01*
X135703247Y-75661453D01*
X135702807Y-75662011D01*
X135702711Y-75661935D01*
X135653291Y-75706383D01*
X135584328Y-75717602D01*
X135520247Y-75689755D01*
X135494168Y-75659656D01*
X135492319Y-75656659D01*
X135492316Y-75656655D01*
X135368345Y-75532684D01*
X135219124Y-75440643D01*
X135219119Y-75440641D01*
X135052697Y-75385494D01*
X135052690Y-75385493D01*
X134949986Y-75375000D01*
X134900000Y-75375000D01*
X134900000Y-77824999D01*
X134949972Y-77824999D01*
X134949986Y-77824998D01*
X135052697Y-77814505D01*
X135219119Y-77759358D01*
X135219124Y-77759356D01*
X135368345Y-77667315D01*
X135492318Y-77543342D01*
X135494165Y-77540348D01*
X135495969Y-77538724D01*
X135496798Y-77537677D01*
X135496976Y-77537818D01*
X135546110Y-77493621D01*
X135615073Y-77482396D01*
X135679156Y-77510236D01*
X135705243Y-77540341D01*
X135707288Y-77543656D01*
X135831344Y-77667712D01*
X135980666Y-77759814D01*
X136147203Y-77814999D01*
X136249991Y-77825500D01*
X136625903Y-77825499D01*
X136692941Y-77845183D01*
X136738696Y-77897987D01*
X136748640Y-77967146D01*
X136719615Y-78030701D01*
X136713583Y-78037180D01*
X133987584Y-80763181D01*
X133926261Y-80796666D01*
X133899903Y-80799500D01*
X130682201Y-80799500D01*
X130682185Y-80799499D01*
X130674589Y-80799499D01*
X130516475Y-80799499D01*
X130409119Y-80828265D01*
X130363742Y-80840424D01*
X130363741Y-80840425D01*
X130313628Y-80869359D01*
X130313627Y-80869360D01*
X130270221Y-80894420D01*
X130226817Y-80919479D01*
X130226816Y-80919480D01*
X125419480Y-85726815D01*
X125416754Y-85731537D01*
X125414218Y-85735931D01*
X125340423Y-85863747D01*
X125299499Y-86016475D01*
X125299499Y-86016477D01*
X125299499Y-86184578D01*
X125299500Y-86184591D01*
X125299500Y-87291691D01*
X125279815Y-87358730D01*
X125263181Y-87379372D01*
X125231923Y-87410629D01*
X125231917Y-87410637D01*
X125148255Y-87552103D01*
X125148254Y-87552106D01*
X125102402Y-87709926D01*
X125102401Y-87709932D01*
X125099500Y-87746798D01*
X125099500Y-89053201D01*
X125102401Y-89090067D01*
X125102402Y-89090073D01*
X125148254Y-89247893D01*
X125148255Y-89247896D01*
X125231917Y-89389362D01*
X125231923Y-89389370D01*
X125248711Y-89406158D01*
X125282196Y-89467481D01*
X125277212Y-89537173D01*
X125248711Y-89581520D01*
X124684363Y-90145868D01*
X124684356Y-90145875D01*
X124681286Y-90148946D01*
X124681284Y-90148948D01*
X124569480Y-90260752D01*
X124545587Y-90302137D01*
X124539627Y-90312459D01*
X124539626Y-90312461D01*
X124504877Y-90372648D01*
X124490423Y-90397683D01*
X124449499Y-90550411D01*
X124449499Y-90550413D01*
X124449499Y-90718514D01*
X124449500Y-90718527D01*
X124449500Y-93790500D01*
X124429815Y-93857539D01*
X124377011Y-93903294D01*
X124325501Y-93914500D01*
X124102130Y-93914500D01*
X124102123Y-93914501D01*
X124042516Y-93920908D01*
X123907671Y-93971202D01*
X123907664Y-93971206D01*
X123792455Y-94057452D01*
X123792452Y-94057455D01*
X123706206Y-94172664D01*
X123706202Y-94172671D01*
X123655908Y-94307517D01*
X123651053Y-94352680D01*
X123649501Y-94367123D01*
X123649500Y-94367135D01*
X123649500Y-94947902D01*
X123640855Y-94977342D01*
X123634332Y-95007329D01*
X123630577Y-95012344D01*
X123629815Y-95014941D01*
X123613181Y-95035583D01*
X123612181Y-95036583D01*
X123550858Y-95070068D01*
X123481166Y-95065084D01*
X123425233Y-95023212D01*
X123400816Y-94957748D01*
X123400500Y-94948902D01*
X123400500Y-83100096D01*
X123420185Y-83033057D01*
X123436814Y-83012420D01*
X129158506Y-77290727D01*
X129158511Y-77290724D01*
X129168714Y-77280520D01*
X129168716Y-77280520D01*
X129280520Y-77168716D01*
X129305767Y-77124986D01*
X133650001Y-77124986D01*
X133660494Y-77227697D01*
X133715641Y-77394119D01*
X133715643Y-77394124D01*
X133807684Y-77543345D01*
X133931654Y-77667315D01*
X134080875Y-77759356D01*
X134080880Y-77759358D01*
X134247302Y-77814505D01*
X134247309Y-77814506D01*
X134350019Y-77824999D01*
X134399999Y-77824998D01*
X134400000Y-77824998D01*
X134400000Y-76850000D01*
X133650001Y-76850000D01*
X133650001Y-77124986D01*
X129305767Y-77124986D01*
X129359577Y-77031784D01*
X129384209Y-76939854D01*
X129393226Y-76906205D01*
X129400499Y-76879060D01*
X129400500Y-76879057D01*
X129400500Y-76075013D01*
X133650000Y-76075013D01*
X133650000Y-76350000D01*
X134400000Y-76350000D01*
X134400000Y-75375000D01*
X134399999Y-75374999D01*
X134350029Y-75375000D01*
X134350011Y-75375001D01*
X134247302Y-75385494D01*
X134080880Y-75440641D01*
X134080875Y-75440643D01*
X133931654Y-75532684D01*
X133807684Y-75656654D01*
X133715643Y-75805875D01*
X133715641Y-75805880D01*
X133660494Y-75972302D01*
X133660493Y-75972309D01*
X133650000Y-76075013D01*
X129400500Y-76075013D01*
X129400500Y-73724986D01*
X130450001Y-73724986D01*
X130460494Y-73827697D01*
X130515641Y-73994119D01*
X130515643Y-73994124D01*
X130607684Y-74143345D01*
X130731654Y-74267315D01*
X130880875Y-74359356D01*
X130880880Y-74359358D01*
X131047302Y-74414505D01*
X131047309Y-74414506D01*
X131150019Y-74424999D01*
X131199999Y-74424998D01*
X131200000Y-74424998D01*
X131200000Y-73450000D01*
X130450001Y-73450000D01*
X130450001Y-73724986D01*
X129400500Y-73724986D01*
X129400500Y-73300097D01*
X129420185Y-73233058D01*
X129436819Y-73212416D01*
X129854694Y-72794541D01*
X130280627Y-72368607D01*
X130341948Y-72335124D01*
X130411639Y-72340108D01*
X130467573Y-72381980D01*
X130491990Y-72447444D01*
X130486012Y-72495293D01*
X130460495Y-72572298D01*
X130460493Y-72572309D01*
X130450000Y-72675013D01*
X130450000Y-72950000D01*
X131200000Y-72950000D01*
X131200000Y-71975000D01*
X131199999Y-71974999D01*
X131150029Y-71975000D01*
X131150011Y-71975001D01*
X131047302Y-71985494D01*
X130970295Y-72011012D01*
X130900467Y-72013414D01*
X130840425Y-71977682D01*
X130809232Y-71915162D01*
X130816793Y-71845702D01*
X130843608Y-71805626D01*
X131904917Y-70744319D01*
X131966240Y-70710834D01*
X131992598Y-70708000D01*
X133475500Y-70708000D01*
X133542539Y-70727685D01*
G37*
%TD.AperFunction*%
%TA.AperFunction,Conductor*%
G36*
X151468834Y-78082914D02*
G01*
X151524767Y-78124786D01*
X151549184Y-78190250D01*
X151549500Y-78199096D01*
X151549500Y-80863330D01*
X151549499Y-80863348D01*
X151549499Y-81029054D01*
X151549498Y-81029054D01*
X151590424Y-81181789D01*
X151590425Y-81181790D01*
X151611455Y-81218214D01*
X151611456Y-81218216D01*
X151669475Y-81318709D01*
X151669481Y-81318717D01*
X151788349Y-81437585D01*
X151788355Y-81437590D01*
X153763181Y-83412416D01*
X153796666Y-83473739D01*
X153799500Y-83500097D01*
X153799500Y-88437599D01*
X153779815Y-88504638D01*
X153727011Y-88550393D01*
X153657853Y-88560337D01*
X153594297Y-88531312D01*
X153557794Y-88476604D01*
X153534357Y-88405878D01*
X153534356Y-88405875D01*
X153442315Y-88256654D01*
X153318345Y-88132684D01*
X153169124Y-88040643D01*
X153169119Y-88040641D01*
X153002697Y-87985494D01*
X153002690Y-87985493D01*
X152899986Y-87975000D01*
X152850000Y-87975000D01*
X152850000Y-90245000D01*
X152876000Y-90245000D01*
X152943039Y-90264685D01*
X152988794Y-90317489D01*
X153000000Y-90369000D01*
X153000000Y-91476000D01*
X152980315Y-91543039D01*
X152927511Y-91588794D01*
X152876000Y-91600000D01*
X152624000Y-91600000D01*
X152556961Y-91580315D01*
X152511206Y-91527511D01*
X152500000Y-91476000D01*
X152500000Y-90555000D01*
X152474000Y-90555000D01*
X152406961Y-90535315D01*
X152361206Y-90482511D01*
X152350000Y-90431000D01*
X152350000Y-87975000D01*
X152349999Y-87974999D01*
X152300029Y-87975000D01*
X152300011Y-87975001D01*
X152197302Y-87985494D01*
X152030880Y-88040641D01*
X152030875Y-88040643D01*
X151881654Y-88132684D01*
X151757683Y-88256655D01*
X151757679Y-88256660D01*
X151755826Y-88259665D01*
X151754018Y-88261290D01*
X151753202Y-88262323D01*
X151753025Y-88262183D01*
X151703874Y-88306385D01*
X151634911Y-88317601D01*
X151570831Y-88289752D01*
X151544753Y-88259653D01*
X151544737Y-88259628D01*
X151542712Y-88256344D01*
X151418656Y-88132288D01*
X151281103Y-88047445D01*
X151269336Y-88040187D01*
X151269331Y-88040185D01*
X151267862Y-88039698D01*
X151102797Y-87985001D01*
X151102795Y-87985000D01*
X151000010Y-87974500D01*
X150399998Y-87974500D01*
X150399980Y-87974501D01*
X150297203Y-87985000D01*
X150297200Y-87985001D01*
X150130668Y-88040185D01*
X150130663Y-88040187D01*
X149981342Y-88132289D01*
X149857289Y-88256342D01*
X149765187Y-88405663D01*
X149765185Y-88405668D01*
X149754604Y-88437599D01*
X149710001Y-88572203D01*
X149710001Y-88572204D01*
X149710000Y-88572204D01*
X149699500Y-88674983D01*
X149699500Y-89725001D01*
X149699501Y-89725019D01*
X149710000Y-89827796D01*
X149710001Y-89827799D01*
X149735766Y-89905551D01*
X149765186Y-89994334D01*
X149857288Y-90143656D01*
X149981344Y-90267712D01*
X150040596Y-90304258D01*
X150047420Y-90311844D01*
X150056703Y-90316084D01*
X150070389Y-90337380D01*
X150087321Y-90356204D01*
X150089965Y-90367842D01*
X150094477Y-90374862D01*
X150099500Y-90409797D01*
X150099500Y-90512770D01*
X150079815Y-90579809D01*
X150063181Y-90600451D01*
X150007289Y-90656342D01*
X149915187Y-90805663D01*
X149915185Y-90805668D01*
X149879121Y-90914504D01*
X149839348Y-90971949D01*
X149774833Y-90998772D01*
X149761415Y-90999500D01*
X148386669Y-90999500D01*
X148386653Y-90999499D01*
X148379057Y-90999499D01*
X148220943Y-90999499D01*
X148068215Y-91040423D01*
X148068213Y-91040424D01*
X148046710Y-91052837D01*
X148046711Y-91052838D01*
X147931287Y-91119477D01*
X147931282Y-91119481D01*
X147819480Y-91231284D01*
X147819478Y-91231286D01*
X147499099Y-91551666D01*
X147202584Y-91848181D01*
X147141261Y-91881666D01*
X147114903Y-91884500D01*
X145548989Y-91884500D01*
X145547501Y-91884063D01*
X145546005Y-91884464D01*
X145514081Y-91874249D01*
X145481950Y-91864815D01*
X145480460Y-91863492D01*
X145479458Y-91863172D01*
X145472319Y-91856265D01*
X145453349Y-91839424D01*
X145450919Y-91836480D01*
X145377553Y-91735499D01*
X145320543Y-91678489D01*
X145316776Y-91673924D01*
X145305267Y-91647028D01*
X145291250Y-91621358D01*
X145291684Y-91615285D01*
X145289289Y-91609688D01*
X145294147Y-91580843D01*
X145296234Y-91551666D01*
X145300066Y-91545702D01*
X145300894Y-91540789D01*
X145308836Y-91532056D01*
X145324735Y-91507319D01*
X145377553Y-91454501D01*
X145483996Y-91307994D01*
X145566211Y-91146639D01*
X145622171Y-90974409D01*
X145636765Y-90882259D01*
X145650500Y-90795551D01*
X145650500Y-90614448D01*
X145627627Y-90470041D01*
X145622171Y-90435591D01*
X145590261Y-90337380D01*
X145566212Y-90263363D01*
X145566211Y-90263360D01*
X145507913Y-90148946D01*
X145483996Y-90102006D01*
X145405770Y-89994336D01*
X145377558Y-89955505D01*
X145377554Y-89955500D01*
X145324735Y-89902681D01*
X145291250Y-89841358D01*
X145296234Y-89771666D01*
X145324735Y-89727319D01*
X145327606Y-89724448D01*
X145377553Y-89674501D01*
X145483996Y-89527994D01*
X145566211Y-89366639D01*
X145622171Y-89194409D01*
X145638697Y-89090067D01*
X145650500Y-89015551D01*
X145650500Y-88834448D01*
X145626327Y-88681834D01*
X145622171Y-88655591D01*
X145566211Y-88483361D01*
X145566211Y-88483360D01*
X145526731Y-88405878D01*
X145483996Y-88322006D01*
X145440532Y-88262183D01*
X145377558Y-88175505D01*
X145377554Y-88175500D01*
X145249499Y-88047445D01*
X145249494Y-88047441D01*
X145102997Y-87941006D01*
X145102996Y-87941005D01*
X145102994Y-87941004D01*
X145051300Y-87914664D01*
X144941639Y-87858788D01*
X144941636Y-87858787D01*
X144769410Y-87802829D01*
X144590551Y-87774500D01*
X144590546Y-87774500D01*
X144409454Y-87774500D01*
X144409449Y-87774500D01*
X144238898Y-87801513D01*
X144169605Y-87792559D01*
X144116153Y-87747562D01*
X144095513Y-87680811D01*
X144095500Y-87679040D01*
X144095500Y-87596610D01*
X144095500Y-87596608D01*
X144061392Y-87469314D01*
X143995500Y-87355186D01*
X143902314Y-87262000D01*
X143845250Y-87229054D01*
X143788187Y-87196108D01*
X143724539Y-87179054D01*
X143660892Y-87162000D01*
X134770892Y-87162000D01*
X134639108Y-87162000D01*
X134511812Y-87196108D01*
X134397686Y-87262000D01*
X134397683Y-87262002D01*
X134304502Y-87355183D01*
X134304500Y-87355186D01*
X134238608Y-87469312D01*
X134204500Y-87596608D01*
X134204500Y-88569040D01*
X134184815Y-88636079D01*
X134132011Y-88681834D01*
X134062853Y-88691778D01*
X134061102Y-88691513D01*
X133890551Y-88664500D01*
X133890546Y-88664500D01*
X133709454Y-88664500D01*
X133709449Y-88664500D01*
X133530589Y-88692829D01*
X133358363Y-88748787D01*
X133358360Y-88748788D01*
X133197002Y-88831006D01*
X133050505Y-88937441D01*
X133050500Y-88937445D01*
X132922445Y-89065500D01*
X132922441Y-89065505D01*
X132816006Y-89212002D01*
X132733788Y-89373360D01*
X132733787Y-89373363D01*
X132677829Y-89545589D01*
X132649500Y-89724448D01*
X132649500Y-89905551D01*
X132677829Y-90084410D01*
X132733787Y-90256636D01*
X132733788Y-90256639D01*
X132779938Y-90347211D01*
X132815562Y-90417127D01*
X132816006Y-90417997D01*
X132922441Y-90564494D01*
X132922445Y-90564499D01*
X132975265Y-90617320D01*
X132976666Y-90619887D01*
X132979171Y-90621407D01*
X132993315Y-90650377D01*
X133008749Y-90678643D01*
X133008540Y-90681561D01*
X133009825Y-90684193D01*
X133006062Y-90716200D01*
X133003764Y-90748335D01*
X133001905Y-90751560D01*
X133001668Y-90753585D01*
X132995357Y-90762928D01*
X132983359Y-90783759D01*
X132979526Y-90788419D01*
X132922447Y-90845499D01*
X132845519Y-90951381D01*
X132843153Y-90954259D01*
X132817200Y-90971900D01*
X132792365Y-90991051D01*
X132787751Y-90991917D01*
X132785369Y-90993537D01*
X132778134Y-90993723D01*
X132747377Y-90999500D01*
X129005301Y-90999500D01*
X128938262Y-90979815D01*
X128892507Y-90927011D01*
X128887595Y-90914504D01*
X128864729Y-90845499D01*
X128859814Y-90830666D01*
X128767712Y-90681344D01*
X128643656Y-90557288D01*
X128525733Y-90484553D01*
X128494336Y-90465187D01*
X128494331Y-90465185D01*
X128468275Y-90456551D01*
X128327797Y-90410001D01*
X128327795Y-90410000D01*
X128225010Y-90399500D01*
X127599998Y-90399500D01*
X127599980Y-90399501D01*
X127497203Y-90410000D01*
X127497200Y-90410001D01*
X127330668Y-90465185D01*
X127330663Y-90465187D01*
X127181342Y-90557289D01*
X127087681Y-90650951D01*
X127083544Y-90653209D01*
X127080986Y-90657171D01*
X127053164Y-90669798D01*
X127026358Y-90684436D01*
X127021655Y-90684099D01*
X127017363Y-90686048D01*
X126987139Y-90681631D01*
X126956666Y-90679452D01*
X126951599Y-90676437D01*
X126948228Y-90675945D01*
X126933269Y-90665532D01*
X126918581Y-90656795D01*
X126915351Y-90653983D01*
X126818656Y-90557288D01*
X126769336Y-90526867D01*
X126761666Y-90520190D01*
X126748101Y-90498976D01*
X126731263Y-90480255D01*
X126729601Y-90470041D01*
X126724027Y-90461324D01*
X126724085Y-90436142D01*
X126720042Y-90411293D01*
X126724165Y-90401803D01*
X126724189Y-90391455D01*
X126737852Y-90370302D01*
X126747885Y-90347211D01*
X126755394Y-90338994D01*
X127427279Y-89667108D01*
X127488600Y-89633625D01*
X127540934Y-89635418D01*
X127541201Y-89633960D01*
X127547429Y-89635097D01*
X127547431Y-89635098D01*
X127584306Y-89638000D01*
X127584314Y-89638000D01*
X128015686Y-89638000D01*
X128015694Y-89638000D01*
X128052569Y-89635098D01*
X128052571Y-89635097D01*
X128052573Y-89635097D01*
X128120868Y-89615255D01*
X128210398Y-89589244D01*
X128351865Y-89505581D01*
X128468081Y-89389365D01*
X128551744Y-89247898D01*
X128597598Y-89090069D01*
X128600500Y-89053194D01*
X128600500Y-87746806D01*
X128597598Y-87709931D01*
X128588623Y-87679040D01*
X128551745Y-87552106D01*
X128551744Y-87552103D01*
X128551744Y-87552102D01*
X128468081Y-87410635D01*
X128468079Y-87410633D01*
X128468076Y-87410629D01*
X128394628Y-87337181D01*
X128361143Y-87275858D01*
X128366127Y-87206166D01*
X128407999Y-87150233D01*
X128473463Y-87125816D01*
X128482309Y-87125500D01*
X128788331Y-87125500D01*
X128788347Y-87125501D01*
X128795943Y-87125501D01*
X128954054Y-87125501D01*
X128954057Y-87125501D01*
X129106785Y-87084577D01*
X129156904Y-87055639D01*
X129243716Y-87005520D01*
X129355520Y-86893716D01*
X129355520Y-86893714D01*
X129365728Y-86883507D01*
X129365730Y-86883504D01*
X129870898Y-86378335D01*
X129932219Y-86344852D01*
X130001911Y-86349836D01*
X130046258Y-86378337D01*
X130089707Y-86421786D01*
X130089711Y-86421789D01*
X130220814Y-86509390D01*
X130220827Y-86509397D01*
X130366498Y-86569735D01*
X130366503Y-86569737D01*
X130521153Y-86600499D01*
X130521156Y-86600500D01*
X130521158Y-86600500D01*
X130678844Y-86600500D01*
X130678845Y-86600499D01*
X130833497Y-86569737D01*
X130979179Y-86509394D01*
X131110289Y-86421789D01*
X131221789Y-86310289D01*
X131309394Y-86179179D01*
X131369737Y-86033497D01*
X131395334Y-85904815D01*
X131400638Y-85878150D01*
X131433023Y-85816239D01*
X131434518Y-85814716D01*
X133012416Y-84236819D01*
X133073739Y-84203334D01*
X133100097Y-84200500D01*
X135235278Y-84200500D01*
X135302317Y-84220185D01*
X135334543Y-84250187D01*
X135392454Y-84327546D01*
X135438643Y-84362123D01*
X135507664Y-84413793D01*
X135507671Y-84413797D01*
X135642517Y-84464091D01*
X135642516Y-84464091D01*
X135649444Y-84464835D01*
X135702127Y-84470500D01*
X136675500Y-84470499D01*
X136742539Y-84490183D01*
X136788294Y-84542987D01*
X136799500Y-84594499D01*
X136799500Y-84665891D01*
X136833608Y-84793187D01*
X136866554Y-84850250D01*
X136899500Y-84907314D01*
X136992686Y-85000500D01*
X137106814Y-85066392D01*
X137234108Y-85100500D01*
X137234110Y-85100500D01*
X141165890Y-85100500D01*
X141165892Y-85100500D01*
X141293186Y-85066392D01*
X141407314Y-85000500D01*
X141500500Y-84907314D01*
X141566392Y-84793186D01*
X141600500Y-84665892D01*
X141600500Y-84470000D01*
X142000000Y-84470000D01*
X142697828Y-84470000D01*
X142697844Y-84469999D01*
X142757372Y-84463598D01*
X142757379Y-84463596D01*
X142892086Y-84413354D01*
X142892093Y-84413350D01*
X143007187Y-84327190D01*
X143007190Y-84327187D01*
X143093350Y-84212093D01*
X143093354Y-84212086D01*
X143143596Y-84077379D01*
X143143598Y-84077372D01*
X143149999Y-84017844D01*
X143150000Y-84017827D01*
X143150000Y-83810000D01*
X142000000Y-83810000D01*
X142000000Y-84470000D01*
X141600500Y-84470000D01*
X141600500Y-83684000D01*
X141620185Y-83616961D01*
X141672989Y-83571206D01*
X141724500Y-83560000D01*
X141750000Y-83560000D01*
X141750000Y-83434000D01*
X141769685Y-83366961D01*
X141822489Y-83321206D01*
X141874000Y-83310000D01*
X143150000Y-83310000D01*
X143150000Y-83102172D01*
X143149999Y-83102155D01*
X143143598Y-83042627D01*
X143143596Y-83042620D01*
X143093354Y-82907913D01*
X143093352Y-82907910D01*
X143062897Y-82867227D01*
X143038480Y-82801763D01*
X143053332Y-82733490D01*
X143062894Y-82718610D01*
X143093796Y-82677331D01*
X143144091Y-82542483D01*
X143150500Y-82482873D01*
X143150499Y-81567128D01*
X143144091Y-81507517D01*
X143138973Y-81493796D01*
X143093797Y-81372671D01*
X143093793Y-81372664D01*
X143007547Y-81257456D01*
X143007548Y-81257456D01*
X143007546Y-81257454D01*
X142962543Y-81223765D01*
X142920674Y-81167833D01*
X142915690Y-81098141D01*
X142949175Y-81036818D01*
X143010499Y-81003334D01*
X143036856Y-81000500D01*
X148113331Y-81000500D01*
X148113347Y-81000501D01*
X148120943Y-81000501D01*
X148279054Y-81000501D01*
X148279057Y-81000501D01*
X148431785Y-80959577D01*
X148501233Y-80919481D01*
X148568716Y-80880520D01*
X148680520Y-80768716D01*
X148680520Y-80768714D01*
X148690724Y-80758511D01*
X148690727Y-80758506D01*
X150680519Y-78768716D01*
X150739078Y-78710157D01*
X150739090Y-78710143D01*
X151337820Y-78111414D01*
X151399142Y-78077930D01*
X151468834Y-78082914D01*
G37*
%TD.AperFunction*%
%TA.AperFunction,Conductor*%
G36*
X149790128Y-68996086D02*
G01*
X149847203Y-69014999D01*
X149949991Y-69025500D01*
X150475500Y-69025499D01*
X150542539Y-69045183D01*
X150588294Y-69097987D01*
X150599500Y-69149499D01*
X150599500Y-72891691D01*
X150590855Y-72921131D01*
X150584332Y-72951118D01*
X150580577Y-72956133D01*
X150579815Y-72958730D01*
X150563181Y-72979372D01*
X150529372Y-73013181D01*
X150468049Y-73046666D01*
X150441691Y-73049500D01*
X149259798Y-73049500D01*
X149192759Y-73029815D01*
X149154259Y-72990597D01*
X149117712Y-72931344D01*
X148993656Y-72807288D01*
X148852507Y-72720227D01*
X148844336Y-72715187D01*
X148844331Y-72715185D01*
X148820581Y-72707315D01*
X148677797Y-72660001D01*
X148677795Y-72660000D01*
X148575010Y-72649500D01*
X147524998Y-72649500D01*
X147524980Y-72649501D01*
X147422203Y-72660000D01*
X147422200Y-72660001D01*
X147255668Y-72715185D01*
X147255663Y-72715187D01*
X147106342Y-72807289D01*
X146982289Y-72931342D01*
X146890187Y-73080663D01*
X146890185Y-73080668D01*
X146878382Y-73116287D01*
X146835001Y-73247203D01*
X146835001Y-73247204D01*
X146835000Y-73247204D01*
X146824500Y-73349983D01*
X146824500Y-73950001D01*
X146824501Y-73950019D01*
X146835000Y-74052796D01*
X146835001Y-74052799D01*
X146890185Y-74219331D01*
X146890186Y-74219334D01*
X146982288Y-74368656D01*
X147106344Y-74492712D01*
X147109628Y-74494737D01*
X147109653Y-74494753D01*
X147111445Y-74496746D01*
X147112011Y-74497193D01*
X147111934Y-74497289D01*
X147156379Y-74546699D01*
X147167603Y-74615661D01*
X147139761Y-74679744D01*
X147109665Y-74705826D01*
X147106660Y-74707679D01*
X147106655Y-74707683D01*
X146982684Y-74831654D01*
X146890643Y-74980875D01*
X146890641Y-74980880D01*
X146835494Y-75147302D01*
X146835493Y-75147309D01*
X146825000Y-75250013D01*
X146825000Y-75300000D01*
X147926000Y-75300000D01*
X147993039Y-75319685D01*
X148038794Y-75372489D01*
X148050000Y-75424000D01*
X148050000Y-75550000D01*
X148176000Y-75550000D01*
X148243039Y-75569685D01*
X148288794Y-75622489D01*
X148300000Y-75674000D01*
X148300000Y-76549999D01*
X148574972Y-76549999D01*
X148574986Y-76549998D01*
X148677697Y-76539505D01*
X148844119Y-76484358D01*
X148844124Y-76484356D01*
X148993345Y-76392315D01*
X149117315Y-76268345D01*
X149209356Y-76119124D01*
X149212408Y-76112579D01*
X149214402Y-76113509D01*
X149248063Y-76064889D01*
X149312577Y-76038064D01*
X149381354Y-76050376D01*
X149432556Y-76097917D01*
X149450000Y-76161335D01*
X149450000Y-76528149D01*
X149452899Y-76564989D01*
X149452900Y-76564995D01*
X149498716Y-76722693D01*
X149498717Y-76722696D01*
X149582314Y-76864052D01*
X149582321Y-76864061D01*
X149698438Y-76980178D01*
X149698447Y-76980185D01*
X149839801Y-77063781D01*
X149997514Y-77109600D01*
X149997511Y-77109600D01*
X149999998Y-77109795D01*
X150000000Y-77109795D01*
X150000000Y-74640203D01*
X149997503Y-74640400D01*
X149839806Y-74686216D01*
X149839803Y-74686217D01*
X149698447Y-74769814D01*
X149698438Y-74769821D01*
X149582321Y-74885938D01*
X149582314Y-74885947D01*
X149498717Y-75027303D01*
X149498715Y-75027306D01*
X149482024Y-75084760D01*
X149444418Y-75143646D01*
X149380945Y-75172852D01*
X149311758Y-75163106D01*
X149258824Y-75117502D01*
X149245242Y-75089169D01*
X149209358Y-74980880D01*
X149209356Y-74980875D01*
X149117315Y-74831654D01*
X148993344Y-74707683D01*
X148993341Y-74707681D01*
X148990339Y-74705829D01*
X148988713Y-74704021D01*
X148987677Y-74703202D01*
X148987817Y-74703024D01*
X148943617Y-74653880D01*
X148932397Y-74584917D01*
X148960243Y-74520836D01*
X148990344Y-74494754D01*
X148993656Y-74492712D01*
X149117712Y-74368656D01*
X149154259Y-74309402D01*
X149206207Y-74262679D01*
X149259798Y-74250500D01*
X150275500Y-74250500D01*
X150342539Y-74270185D01*
X150388294Y-74322989D01*
X150399500Y-74374500D01*
X150399500Y-74653201D01*
X150402401Y-74690067D01*
X150402402Y-74690073D01*
X150448254Y-74847893D01*
X150448255Y-74847896D01*
X150448256Y-74847898D01*
X150482732Y-74906194D01*
X150500000Y-74969314D01*
X150500000Y-77125828D01*
X150514416Y-77149930D01*
X150512171Y-77219764D01*
X150482059Y-77268704D01*
X149831284Y-77919481D01*
X147987584Y-79763181D01*
X147926261Y-79796666D01*
X147899903Y-79799500D01*
X142949097Y-79799500D01*
X142882058Y-79779815D01*
X142836303Y-79727011D01*
X142826359Y-79657853D01*
X142855384Y-79594297D01*
X142861407Y-79587826D01*
X143107509Y-79341724D01*
X143107514Y-79341721D01*
X143117714Y-79331520D01*
X143117716Y-79331520D01*
X143229520Y-79219716D01*
X143308577Y-79082784D01*
X143349500Y-78930057D01*
X143349500Y-77824999D01*
X143800000Y-77824999D01*
X143849972Y-77824999D01*
X143849986Y-77824998D01*
X143952697Y-77814505D01*
X144119119Y-77759358D01*
X144119124Y-77759356D01*
X144268345Y-77667315D01*
X144392315Y-77543345D01*
X144484356Y-77394124D01*
X144484358Y-77394119D01*
X144539505Y-77227697D01*
X144539506Y-77227690D01*
X144549999Y-77124986D01*
X144550000Y-77124973D01*
X144550000Y-76850000D01*
X143800000Y-76850000D01*
X143800000Y-77824999D01*
X143349500Y-77824999D01*
X143349500Y-76350000D01*
X143800000Y-76350000D01*
X144549999Y-76350000D01*
X144549999Y-76075028D01*
X144549998Y-76075013D01*
X144539505Y-75972302D01*
X144498973Y-75849986D01*
X146825001Y-75849986D01*
X146835494Y-75952697D01*
X146890641Y-76119119D01*
X146890643Y-76119124D01*
X146982684Y-76268345D01*
X147106654Y-76392315D01*
X147255875Y-76484356D01*
X147255880Y-76484358D01*
X147422302Y-76539505D01*
X147422309Y-76539506D01*
X147525019Y-76549999D01*
X147799999Y-76549999D01*
X147800000Y-76549998D01*
X147800000Y-75800000D01*
X146825001Y-75800000D01*
X146825001Y-75849986D01*
X144498973Y-75849986D01*
X144484357Y-75805878D01*
X144392315Y-75656654D01*
X144268345Y-75532684D01*
X144119124Y-75440643D01*
X144119119Y-75440641D01*
X143952697Y-75385494D01*
X143952690Y-75385493D01*
X143849986Y-75375000D01*
X143800000Y-75375000D01*
X143800000Y-76350000D01*
X143349500Y-76350000D01*
X143349500Y-74172443D01*
X143347519Y-74165051D01*
X143327332Y-74089711D01*
X143308577Y-74019716D01*
X143268338Y-73950019D01*
X143229524Y-73882790D01*
X143229518Y-73882782D01*
X143204319Y-73857583D01*
X143189615Y-73830655D01*
X143173023Y-73804837D01*
X143172131Y-73798636D01*
X143170834Y-73796260D01*
X143168000Y-73769902D01*
X143168000Y-73574006D01*
X143187685Y-73506967D01*
X143240489Y-73461212D01*
X143309647Y-73451268D01*
X143373203Y-73480293D01*
X143410977Y-73539071D01*
X143413617Y-73549815D01*
X143430261Y-73633489D01*
X143430264Y-73633501D01*
X143490602Y-73779172D01*
X143490609Y-73779185D01*
X143578210Y-73910288D01*
X143578213Y-73910292D01*
X143689707Y-74021786D01*
X143689711Y-74021789D01*
X143820814Y-74109390D01*
X143820827Y-74109397D01*
X143955180Y-74165047D01*
X143966503Y-74169737D01*
X144069749Y-74190274D01*
X144121153Y-74200499D01*
X144121156Y-74200500D01*
X144121158Y-74200500D01*
X144278844Y-74200500D01*
X144278845Y-74200499D01*
X144433497Y-74169737D01*
X144579179Y-74109394D01*
X144710289Y-74021789D01*
X144821789Y-73910289D01*
X144909394Y-73779179D01*
X144969737Y-73633497D01*
X145000500Y-73478842D01*
X145000500Y-73321158D01*
X145000500Y-73321155D01*
X144975917Y-73197572D01*
X144982144Y-73127980D01*
X144999158Y-73097893D01*
X145002948Y-73092952D01*
X145002951Y-73092951D01*
X145095198Y-72972733D01*
X145153187Y-72832736D01*
X145168000Y-72720220D01*
X145168000Y-72494780D01*
X145153187Y-72382264D01*
X145153186Y-72382263D01*
X145152126Y-72374205D01*
X145155189Y-72373801D01*
X145155189Y-72341198D01*
X145152126Y-72340795D01*
X145153270Y-72332108D01*
X145168000Y-72220220D01*
X145168000Y-71994780D01*
X145153187Y-71882264D01*
X145153186Y-71882263D01*
X145152126Y-71874205D01*
X145155189Y-71873801D01*
X145155189Y-71841198D01*
X145152126Y-71840795D01*
X145153187Y-71832736D01*
X145168000Y-71720220D01*
X145168000Y-71494780D01*
X145153187Y-71382264D01*
X145153186Y-71382263D01*
X145152126Y-71374205D01*
X145155189Y-71373801D01*
X145155189Y-71341198D01*
X145152126Y-71340795D01*
X145153187Y-71332736D01*
X145168000Y-71220220D01*
X145168000Y-70994780D01*
X145153187Y-70882264D01*
X145153185Y-70882260D01*
X145152414Y-70876399D01*
X145152353Y-70876267D01*
X145152366Y-70876029D01*
X145152126Y-70874205D01*
X145152470Y-70874159D01*
X145153260Y-70859952D01*
X145152031Y-70840974D01*
X145153115Y-70832908D01*
X145153187Y-70832736D01*
X145155460Y-70815474D01*
X145169576Y-70783801D01*
X145183682Y-70751917D01*
X145183831Y-70751818D01*
X145183904Y-70751656D01*
X145212978Y-70732593D01*
X145242007Y-70713447D01*
X145242233Y-70713413D01*
X145242334Y-70713347D01*
X145242696Y-70713343D01*
X145278354Y-70708000D01*
X148124559Y-70708000D01*
X148191598Y-70727685D01*
X148212240Y-70744319D01*
X148289707Y-70821786D01*
X148289711Y-70821789D01*
X148420814Y-70909390D01*
X148420827Y-70909397D01*
X148566498Y-70969735D01*
X148566503Y-70969737D01*
X148673384Y-70990997D01*
X148721153Y-71000499D01*
X148721156Y-71000500D01*
X148721158Y-71000500D01*
X148878844Y-71000500D01*
X148878845Y-71000499D01*
X149033497Y-70969737D01*
X149179179Y-70909394D01*
X149310289Y-70821789D01*
X149421789Y-70710289D01*
X149509394Y-70579179D01*
X149569737Y-70433497D01*
X149600500Y-70278842D01*
X149600500Y-70121158D01*
X149600500Y-70121155D01*
X149600499Y-70121153D01*
X149575363Y-69994786D01*
X149569737Y-69966503D01*
X149547427Y-69912641D01*
X149533173Y-69878228D01*
X149525704Y-69808759D01*
X149544632Y-69761885D01*
X149565260Y-69731014D01*
X149625603Y-69585332D01*
X149656366Y-69430677D01*
X149656366Y-69272993D01*
X149656366Y-69272990D01*
X149629511Y-69137985D01*
X149630011Y-69132393D01*
X149627856Y-69127210D01*
X149633091Y-69097973D01*
X149635738Y-69068393D01*
X149639181Y-69063959D01*
X149640171Y-69058435D01*
X149660380Y-69036670D01*
X149678601Y-69013216D01*
X149683894Y-69011348D01*
X149687714Y-69007235D01*
X149716483Y-68999851D01*
X149744490Y-68989971D01*
X149751382Y-68990894D01*
X149755391Y-68989866D01*
X149790128Y-68996086D01*
G37*
%TD.AperFunction*%
%TA.AperFunction,Conductor*%
G36*
X140309183Y-75244910D02*
G01*
X140373080Y-75273175D01*
X140411552Y-75331499D01*
X140417000Y-75367849D01*
X140417000Y-75880830D01*
X140416999Y-75880848D01*
X140416999Y-76046554D01*
X140416998Y-76046554D01*
X140455838Y-76191507D01*
X140457923Y-76199285D01*
X140476398Y-76231284D01*
X140536979Y-76336214D01*
X140536981Y-76336217D01*
X140613181Y-76412417D01*
X140646666Y-76473740D01*
X140649500Y-76500098D01*
X140649500Y-77125001D01*
X140649501Y-77125019D01*
X140660000Y-77227796D01*
X140660001Y-77227799D01*
X140715185Y-77394331D01*
X140715187Y-77394336D01*
X140718372Y-77399500D01*
X140807288Y-77543656D01*
X140931344Y-77667712D01*
X140990596Y-77704258D01*
X141037321Y-77756204D01*
X141049500Y-77809797D01*
X141049500Y-78167059D01*
X141029815Y-78234098D01*
X141013181Y-78254740D01*
X140978213Y-78289707D01*
X140978210Y-78289711D01*
X140890609Y-78420814D01*
X140890602Y-78420827D01*
X140830264Y-78566498D01*
X140830261Y-78566510D01*
X140799500Y-78721153D01*
X140799500Y-78878846D01*
X140830261Y-79033489D01*
X140830264Y-79033501D01*
X140890602Y-79179172D01*
X140890610Y-79179187D01*
X140908933Y-79206608D01*
X140929812Y-79273285D01*
X140911328Y-79340666D01*
X140859350Y-79387356D01*
X140805832Y-79399500D01*
X137349098Y-79399500D01*
X137282059Y-79379815D01*
X137236304Y-79327011D01*
X137226360Y-79257853D01*
X137255385Y-79194297D01*
X137261417Y-79187819D01*
X137376357Y-79072878D01*
X137791863Y-78657371D01*
X137817542Y-78637668D01*
X137845051Y-78621786D01*
X137886216Y-78598020D01*
X137998020Y-78486216D01*
X138077077Y-78349285D01*
X138118001Y-78196558D01*
X138118001Y-78066598D01*
X138137686Y-77999559D01*
X138190490Y-77953804D01*
X138259648Y-77943860D01*
X138323204Y-77972885D01*
X138329682Y-77978917D01*
X138565425Y-78214660D01*
X138598910Y-78275983D01*
X138599361Y-78278149D01*
X138630261Y-78433491D01*
X138630264Y-78433501D01*
X138690602Y-78579172D01*
X138690609Y-78579185D01*
X138778210Y-78710288D01*
X138778213Y-78710292D01*
X138889707Y-78821786D01*
X138889711Y-78821789D01*
X139020814Y-78909390D01*
X139020827Y-78909397D01*
X139166498Y-78969735D01*
X139166503Y-78969737D01*
X139321153Y-79000499D01*
X139321156Y-79000500D01*
X139321158Y-79000500D01*
X139478844Y-79000500D01*
X139478845Y-79000499D01*
X139633497Y-78969737D01*
X139779179Y-78909394D01*
X139910289Y-78821789D01*
X140021789Y-78710289D01*
X140109394Y-78579179D01*
X140169737Y-78433497D01*
X140200500Y-78278842D01*
X140200500Y-78121158D01*
X140200500Y-78121155D01*
X140200499Y-78121153D01*
X140184046Y-78038439D01*
X140169737Y-77966503D01*
X140119485Y-77845183D01*
X140109397Y-77820827D01*
X140109390Y-77820814D01*
X140021789Y-77689711D01*
X140021786Y-77689707D01*
X139910292Y-77578213D01*
X139910288Y-77578210D01*
X139779185Y-77490609D01*
X139779172Y-77490602D01*
X139633501Y-77430264D01*
X139633491Y-77430261D01*
X139478149Y-77399361D01*
X139416238Y-77366976D01*
X139414660Y-77365425D01*
X138654319Y-76605084D01*
X138620834Y-76543761D01*
X138618000Y-76517403D01*
X138618000Y-75368353D01*
X138618166Y-75367785D01*
X138618005Y-75367216D01*
X138628002Y-75334289D01*
X138637685Y-75301314D01*
X138638131Y-75300926D01*
X138638304Y-75300360D01*
X138664535Y-75278047D01*
X138690489Y-75255559D01*
X138691224Y-75255346D01*
X138691525Y-75255091D01*
X138717644Y-75247719D01*
X138725473Y-75245459D01*
X138742736Y-75243187D01*
X138742910Y-75243114D01*
X138750979Y-75242030D01*
X138771604Y-75245189D01*
X138783802Y-75245189D01*
X138784205Y-75242126D01*
X138792263Y-75243186D01*
X138792264Y-75243187D01*
X138904780Y-75258000D01*
X138904787Y-75258000D01*
X139130213Y-75258000D01*
X139130220Y-75258000D01*
X139242736Y-75243187D01*
X139242736Y-75243186D01*
X139250795Y-75242126D01*
X139251198Y-75245189D01*
X139283802Y-75245189D01*
X139284205Y-75242126D01*
X139292263Y-75243186D01*
X139292264Y-75243187D01*
X139404780Y-75258000D01*
X139404787Y-75258000D01*
X139630213Y-75258000D01*
X139630220Y-75258000D01*
X139742736Y-75243187D01*
X139742736Y-75243186D01*
X139750795Y-75242126D01*
X139751198Y-75245189D01*
X139783802Y-75245189D01*
X139784205Y-75242126D01*
X139792263Y-75243186D01*
X139792264Y-75243187D01*
X139904780Y-75258000D01*
X139904787Y-75258000D01*
X140130213Y-75258000D01*
X140130220Y-75258000D01*
X140242736Y-75243187D01*
X140242736Y-75243186D01*
X140250795Y-75242126D01*
X140251029Y-75243909D01*
X140284767Y-75241696D01*
X140309183Y-75244910D01*
G37*
%TD.AperFunction*%
%TA.AperFunction,Conductor*%
G36*
X127302495Y-67671573D02*
G01*
X127438443Y-67708001D01*
X127438447Y-67708001D01*
X127604154Y-67708001D01*
X127604170Y-67708000D01*
X134256646Y-67708000D01*
X134257213Y-67708166D01*
X134257783Y-67708005D01*
X134290709Y-67718002D01*
X134323685Y-67727685D01*
X134324072Y-67728131D01*
X134324639Y-67728304D01*
X134346951Y-67754535D01*
X134369440Y-67780489D01*
X134369652Y-67781224D01*
X134369908Y-67781525D01*
X134377302Y-67807726D01*
X134379541Y-67815479D01*
X134381813Y-67832736D01*
X134381883Y-67832907D01*
X134382969Y-67840979D01*
X134379899Y-67861023D01*
X134379899Y-67873818D01*
X134382874Y-67874210D01*
X134381813Y-67882262D01*
X134381813Y-67882264D01*
X134379873Y-67896999D01*
X134379585Y-67899188D01*
X134351317Y-67963084D01*
X134292991Y-68001554D01*
X134256646Y-68007000D01*
X131523375Y-68007000D01*
X131491280Y-68002774D01*
X131479058Y-67999499D01*
X131479057Y-67999499D01*
X131320943Y-67999499D01*
X131206397Y-68030192D01*
X131168214Y-68040423D01*
X131149359Y-68051310D01*
X131149356Y-68051311D01*
X131031290Y-68119475D01*
X131031282Y-68119481D01*
X127119481Y-72031282D01*
X127119475Y-72031290D01*
X127073966Y-72110116D01*
X127073964Y-72110120D01*
X127054992Y-72142978D01*
X127004424Y-72191192D01*
X126935816Y-72204413D01*
X126870952Y-72178443D01*
X126847289Y-72153860D01*
X126830109Y-72130213D01*
X126679786Y-71979890D01*
X126507820Y-71854951D01*
X126507115Y-71854591D01*
X126499054Y-71850485D01*
X126448259Y-71802512D01*
X126431463Y-71734692D01*
X126453999Y-71668556D01*
X126499054Y-71629515D01*
X126507816Y-71625051D01*
X126576165Y-71575393D01*
X126679786Y-71500109D01*
X126679788Y-71500106D01*
X126679792Y-71500104D01*
X126830104Y-71349792D01*
X126830106Y-71349788D01*
X126830109Y-71349786D01*
X126948569Y-71186738D01*
X126955051Y-71177816D01*
X127051557Y-70988412D01*
X127117246Y-70786243D01*
X127150500Y-70576287D01*
X127150500Y-70363713D01*
X127117246Y-70153757D01*
X127051557Y-69951588D01*
X126955051Y-69762184D01*
X126955049Y-69762181D01*
X126955048Y-69762179D01*
X126830109Y-69590213D01*
X126679786Y-69439890D01*
X126507817Y-69314949D01*
X126498504Y-69310204D01*
X126447707Y-69262230D01*
X126430912Y-69194409D01*
X126453449Y-69128274D01*
X126498507Y-69089232D01*
X126507555Y-69084622D01*
X126561716Y-69045270D01*
X126561717Y-69045270D01*
X125929408Y-68412962D01*
X125992993Y-68395925D01*
X126107007Y-68330099D01*
X126200099Y-68237007D01*
X126265925Y-68122993D01*
X126282962Y-68059408D01*
X126915270Y-68691717D01*
X126915270Y-68691716D01*
X126954622Y-68637554D01*
X127051095Y-68448217D01*
X127116757Y-68246130D01*
X127116757Y-68246127D01*
X127150000Y-68036246D01*
X127150000Y-67823754D01*
X127147940Y-67810748D01*
X127156894Y-67741455D01*
X127201890Y-67688003D01*
X127268642Y-67667363D01*
X127302495Y-67671573D01*
G37*
%TD.AperFunction*%
%TA.AperFunction,Conductor*%
G36*
X137048203Y-67497884D02*
G01*
X137054678Y-67503914D01*
X138431284Y-68880520D01*
X138431286Y-68880521D01*
X138431290Y-68880524D01*
X138547265Y-68947481D01*
X138568216Y-68959577D01*
X138720943Y-69000501D01*
X138720945Y-69000501D01*
X138834725Y-69000501D01*
X138901764Y-69020186D01*
X138947519Y-69072990D01*
X138957463Y-69142148D01*
X138928438Y-69205704D01*
X138922406Y-69212182D01*
X137054681Y-71079907D01*
X137041961Y-71086852D01*
X137032285Y-71097649D01*
X137011905Y-71103264D01*
X136993358Y-71113392D01*
X136978901Y-71112358D01*
X136964925Y-71116209D01*
X136944747Y-71109915D01*
X136923666Y-71108408D01*
X136912061Y-71099721D01*
X136898224Y-71095405D01*
X136884652Y-71079201D01*
X136867733Y-71066536D01*
X136861841Y-71051968D01*
X136853360Y-71041843D01*
X136848679Y-71019426D01*
X136843984Y-71007817D01*
X136843000Y-71000052D01*
X136843000Y-70994780D01*
X136828187Y-70882264D01*
X136828020Y-70881862D01*
X136826909Y-70873091D01*
X136830189Y-70852704D01*
X136830189Y-70841198D01*
X136827126Y-70840795D01*
X136828284Y-70832000D01*
X136843000Y-70720220D01*
X136843000Y-70494780D01*
X136828187Y-70382264D01*
X136828186Y-70382263D01*
X136827126Y-70374205D01*
X136830189Y-70373801D01*
X136830189Y-70341198D01*
X136827126Y-70340795D01*
X136828187Y-70332736D01*
X136843000Y-70220220D01*
X136843000Y-69994780D01*
X136828187Y-69882264D01*
X136828186Y-69882263D01*
X136827126Y-69874205D01*
X136830189Y-69873801D01*
X136830189Y-69841198D01*
X136827126Y-69840795D01*
X136829201Y-69825032D01*
X136843000Y-69720220D01*
X136843000Y-69494780D01*
X136828187Y-69382264D01*
X136828186Y-69382263D01*
X136827126Y-69374205D01*
X136830189Y-69373801D01*
X136830189Y-69341198D01*
X136827126Y-69340795D01*
X136828216Y-69332518D01*
X136843000Y-69220220D01*
X136843000Y-68994780D01*
X136828187Y-68882264D01*
X136828186Y-68882263D01*
X136827126Y-68874205D01*
X136830189Y-68873801D01*
X136830189Y-68841198D01*
X136827126Y-68840795D01*
X136838094Y-68757483D01*
X136843000Y-68720220D01*
X136843000Y-68494780D01*
X136828187Y-68382264D01*
X136828186Y-68382263D01*
X136827126Y-68374205D01*
X136830189Y-68373801D01*
X136830189Y-68341198D01*
X136827126Y-68340795D01*
X136834662Y-68283554D01*
X136843000Y-68220220D01*
X136843000Y-67994780D01*
X136828187Y-67882264D01*
X136828186Y-67882263D01*
X136827126Y-67874205D01*
X136830189Y-67873801D01*
X136830189Y-67841198D01*
X136827126Y-67840795D01*
X136828187Y-67832736D01*
X136843000Y-67720220D01*
X136843000Y-67591597D01*
X136862685Y-67524558D01*
X136915489Y-67478803D01*
X136984647Y-67468859D01*
X137048203Y-67497884D01*
G37*
%TD.AperFunction*%
%TA.AperFunction,Conductor*%
G36*
X147807803Y-65687935D02*
G01*
X147863737Y-65729807D01*
X147884804Y-65774190D01*
X147898357Y-65828689D01*
X147898360Y-65828696D01*
X147982967Y-65999292D01*
X147982969Y-65999295D01*
X148102277Y-66147721D01*
X148102278Y-66147722D01*
X148250704Y-66267030D01*
X148250707Y-66267032D01*
X148367562Y-66324986D01*
X148396649Y-66339412D01*
X148420037Y-66351011D01*
X148471350Y-66398432D01*
X148488880Y-66466067D01*
X148467060Y-66532442D01*
X148412819Y-66576484D01*
X148352341Y-66585457D01*
X148249988Y-66575000D01*
X148200000Y-66575000D01*
X148200000Y-67550000D01*
X148949999Y-67550000D01*
X148949999Y-67298596D01*
X148956237Y-67277350D01*
X148957817Y-67255262D01*
X148965889Y-67244478D01*
X148969684Y-67231557D01*
X148986417Y-67217057D01*
X148999689Y-67199329D01*
X149012309Y-67194621D01*
X149022488Y-67185802D01*
X149044405Y-67182650D01*
X149065153Y-67174912D01*
X149078313Y-67177774D01*
X149091646Y-67175858D01*
X149111789Y-67185057D01*
X149133426Y-67189764D01*
X149151151Y-67203032D01*
X149155202Y-67204883D01*
X149161680Y-67210915D01*
X149213181Y-67262416D01*
X149246666Y-67323739D01*
X149249500Y-67350097D01*
X149249500Y-68325001D01*
X149249501Y-68325019D01*
X149260000Y-68427796D01*
X149260002Y-68427801D01*
X149261154Y-68431278D01*
X149261232Y-68433549D01*
X149261419Y-68434422D01*
X149261263Y-68434455D01*
X149263557Y-68501107D01*
X149227826Y-68561149D01*
X149165306Y-68592342D01*
X149113828Y-68590694D01*
X149104686Y-68588445D01*
X149089363Y-68582098D01*
X149034615Y-68571207D01*
X149031892Y-68570538D01*
X149004005Y-68554318D01*
X148975409Y-68539359D01*
X148973983Y-68536855D01*
X148971496Y-68535409D01*
X148956807Y-68506691D01*
X148940836Y-68478643D01*
X148940802Y-68475399D01*
X148939679Y-68473204D01*
X148940673Y-68463128D01*
X148940375Y-68434590D01*
X148938818Y-68434431D01*
X148949999Y-68324986D01*
X148950000Y-68324973D01*
X148950000Y-68050000D01*
X148074000Y-68050000D01*
X148006961Y-68030315D01*
X147961206Y-67977511D01*
X147950000Y-67926000D01*
X147950000Y-67800000D01*
X147824000Y-67800000D01*
X147756961Y-67780315D01*
X147711206Y-67727511D01*
X147700000Y-67676000D01*
X147700000Y-66575000D01*
X147699999Y-66574999D01*
X147650029Y-66575000D01*
X147650011Y-66575001D01*
X147547302Y-66585494D01*
X147380880Y-66640641D01*
X147380875Y-66640643D01*
X147231654Y-66732684D01*
X147107683Y-66856655D01*
X147107679Y-66856660D01*
X147105826Y-66859665D01*
X147104018Y-66861290D01*
X147103202Y-66862323D01*
X147103025Y-66862183D01*
X147053874Y-66906385D01*
X146984911Y-66917601D01*
X146920831Y-66889752D01*
X146910320Y-66879887D01*
X146901491Y-66870577D01*
X146892712Y-66856344D01*
X146801306Y-66764938D01*
X146800186Y-66763757D01*
X146784975Y-66734056D01*
X146768993Y-66704787D01*
X146769114Y-66703086D01*
X146768337Y-66701568D01*
X146771597Y-66668370D01*
X146773977Y-66635095D01*
X146775025Y-66633463D01*
X146775166Y-66632033D01*
X146779325Y-66626773D01*
X146802478Y-66590748D01*
X147217706Y-66175520D01*
X147676791Y-65716434D01*
X147738112Y-65682951D01*
X147807803Y-65687935D01*
G37*
%TD.AperFunction*%
%TA.AperFunction,Conductor*%
G36*
X154092540Y-63470185D02*
G01*
X154138295Y-63522989D01*
X154149501Y-63574500D01*
X154149501Y-64308034D01*
X154160113Y-64427415D01*
X154216089Y-64623045D01*
X154216090Y-64623048D01*
X154216091Y-64623049D01*
X154310302Y-64803407D01*
X154310304Y-64803409D01*
X154438890Y-64961109D01*
X154472991Y-64988914D01*
X154596593Y-65089698D01*
X154776951Y-65183909D01*
X154972582Y-65239886D01*
X155091963Y-65250500D01*
X156208036Y-65250499D01*
X156327418Y-65239886D01*
X156523049Y-65183909D01*
X156703407Y-65089698D01*
X156861109Y-64961109D01*
X156989698Y-64803407D01*
X157066121Y-64657101D01*
X157114607Y-64606796D01*
X157182595Y-64590689D01*
X157248498Y-64613896D01*
X157281568Y-64649418D01*
X157356370Y-64770691D01*
X157479309Y-64893630D01*
X157480173Y-64894163D01*
X157480641Y-64894683D01*
X157484977Y-64898112D01*
X157484391Y-64898852D01*
X157526901Y-64946108D01*
X157538126Y-65015070D01*
X157510286Y-65079154D01*
X157484601Y-65101414D01*
X157484664Y-65101493D01*
X157482912Y-65102878D01*
X157480194Y-65105234D01*
X157479005Y-65105967D01*
X157478996Y-65105974D01*
X157355974Y-65228996D01*
X157355971Y-65229000D01*
X157264642Y-65377066D01*
X157264637Y-65377077D01*
X157209913Y-65542223D01*
X157199500Y-65644144D01*
X157199500Y-66230855D01*
X157208133Y-66315353D01*
X157209913Y-66332775D01*
X157212754Y-66341348D01*
X157215156Y-66411176D01*
X157182729Y-66468034D01*
X157052998Y-66597766D01*
X156931286Y-66719478D01*
X156931284Y-66719480D01*
X156881284Y-66769479D01*
X156863842Y-66786921D01*
X156037582Y-67613181D01*
X155976259Y-67646666D01*
X155949901Y-67649500D01*
X155652130Y-67649500D01*
X155652123Y-67649501D01*
X155592516Y-67655908D01*
X155457671Y-67706202D01*
X155457664Y-67706206D01*
X155342455Y-67792452D01*
X155299266Y-67850145D01*
X155243332Y-67892015D01*
X155173640Y-67896999D01*
X155112317Y-67863513D01*
X155100734Y-67850145D01*
X155079376Y-67821615D01*
X155057546Y-67792454D01*
X155057544Y-67792453D01*
X155057544Y-67792452D01*
X154942335Y-67706206D01*
X154942328Y-67706202D01*
X154807482Y-67655908D01*
X154807483Y-67655908D01*
X154747883Y-67649501D01*
X154747881Y-67649500D01*
X154747873Y-67649500D01*
X154747864Y-67649500D01*
X153852129Y-67649500D01*
X153852123Y-67649501D01*
X153792516Y-67655908D01*
X153657671Y-67706202D01*
X153657664Y-67706206D01*
X153566083Y-67774765D01*
X153500619Y-67799183D01*
X153491772Y-67799499D01*
X153401704Y-67799499D01*
X153248976Y-67840423D01*
X153248974Y-67840423D01*
X153248974Y-67840424D01*
X153232137Y-67850145D01*
X153132503Y-67907669D01*
X153112042Y-67919482D01*
X153017844Y-68013681D01*
X152956521Y-68047166D01*
X152930163Y-68050000D01*
X152274000Y-68050000D01*
X152206961Y-68030315D01*
X152161206Y-67977511D01*
X152150000Y-67926000D01*
X152150000Y-67800000D01*
X152024000Y-67800000D01*
X151956961Y-67780315D01*
X151911206Y-67727511D01*
X151900000Y-67676000D01*
X151900000Y-67550000D01*
X152400000Y-67550000D01*
X153149999Y-67550000D01*
X153149999Y-67275028D01*
X153149998Y-67275013D01*
X153139505Y-67172302D01*
X153084358Y-67005880D01*
X153084356Y-67005875D01*
X152992315Y-66856654D01*
X152868345Y-66732684D01*
X152719124Y-66640643D01*
X152719119Y-66640641D01*
X152552697Y-66585494D01*
X152552690Y-66585493D01*
X152449986Y-66575000D01*
X152400000Y-66575000D01*
X152400000Y-67550000D01*
X151900000Y-67550000D01*
X151900000Y-66575000D01*
X151899999Y-66574999D01*
X151850029Y-66575000D01*
X151850011Y-66575001D01*
X151747302Y-66585494D01*
X151580880Y-66640641D01*
X151580875Y-66640643D01*
X151431654Y-66732684D01*
X151307683Y-66856655D01*
X151307679Y-66856660D01*
X151305826Y-66859665D01*
X151304018Y-66861290D01*
X151303202Y-66862323D01*
X151303025Y-66862183D01*
X151253874Y-66906385D01*
X151184911Y-66917601D01*
X151120831Y-66889752D01*
X151094753Y-66859653D01*
X151094737Y-66859628D01*
X151092712Y-66856344D01*
X150968656Y-66732288D01*
X150828765Y-66646003D01*
X150819336Y-66640187D01*
X150819331Y-66640185D01*
X150778856Y-66626773D01*
X150652797Y-66585001D01*
X150652795Y-66585000D01*
X150550016Y-66574500D01*
X150550009Y-66574500D01*
X150358445Y-66574500D01*
X150291406Y-66554815D01*
X150245651Y-66502011D01*
X150235707Y-66432853D01*
X150264732Y-66369297D01*
X150303351Y-66339412D01*
X150449292Y-66267032D01*
X150449292Y-66267031D01*
X150449296Y-66267030D01*
X150597722Y-66147722D01*
X150697233Y-66023925D01*
X150754576Y-65984006D01*
X150818072Y-65979995D01*
X150921155Y-66000500D01*
X150921158Y-66000500D01*
X151078844Y-66000500D01*
X151078845Y-66000499D01*
X151233497Y-65969737D01*
X151346166Y-65923067D01*
X151379172Y-65909397D01*
X151379172Y-65909396D01*
X151379179Y-65909394D01*
X151510289Y-65821789D01*
X151621789Y-65710289D01*
X151709394Y-65579179D01*
X151769737Y-65433497D01*
X151800500Y-65278842D01*
X151800500Y-65121158D01*
X151800500Y-65121155D01*
X151800499Y-65121153D01*
X151797480Y-65105974D01*
X151769737Y-64966503D01*
X151750576Y-64920243D01*
X151709397Y-64820827D01*
X151709390Y-64820814D01*
X151621789Y-64689711D01*
X151621786Y-64689707D01*
X151510292Y-64578213D01*
X151510288Y-64578210D01*
X151379185Y-64490609D01*
X151379172Y-64490602D01*
X151233501Y-64430264D01*
X151233489Y-64430261D01*
X151078845Y-64399500D01*
X151078842Y-64399500D01*
X150921158Y-64399500D01*
X150873057Y-64409067D01*
X150803466Y-64402838D01*
X150748289Y-64359974D01*
X150737780Y-64342543D01*
X150717030Y-64300704D01*
X150597722Y-64152278D01*
X150597721Y-64152277D01*
X150528514Y-64096647D01*
X150488595Y-64039304D01*
X150486015Y-63969482D01*
X150521594Y-63909349D01*
X150528514Y-63903353D01*
X150537909Y-63895800D01*
X150597722Y-63847722D01*
X150717030Y-63699296D01*
X150778923Y-63574500D01*
X150804628Y-63522671D01*
X150806535Y-63523617D01*
X150842131Y-63475590D01*
X150907478Y-63450860D01*
X150916916Y-63450500D01*
X154025501Y-63450500D01*
X154092540Y-63470185D01*
G37*
%TD.AperFunction*%
%TA.AperFunction,Conductor*%
G36*
X139792263Y-66918186D02*
G01*
X139792264Y-66918187D01*
X139904780Y-66933000D01*
X139904787Y-66933000D01*
X140130213Y-66933000D01*
X140130220Y-66933000D01*
X140225263Y-66920487D01*
X140294296Y-66931252D01*
X140346552Y-66977632D01*
X140365438Y-67044901D01*
X140356008Y-67090878D01*
X140317829Y-67183050D01*
X140317826Y-67183062D01*
X140287065Y-67337705D01*
X140287065Y-67495398D01*
X140318078Y-67651309D01*
X140311851Y-67720900D01*
X140268988Y-67776078D01*
X140203098Y-67799322D01*
X140196461Y-67799500D01*
X139100098Y-67799500D01*
X139033059Y-67779815D01*
X139012417Y-67763181D01*
X138393917Y-67144681D01*
X138360432Y-67083358D01*
X138365416Y-67013666D01*
X138407288Y-66957733D01*
X138472752Y-66933316D01*
X138481598Y-66933000D01*
X138630213Y-66933000D01*
X138630220Y-66933000D01*
X138742736Y-66918187D01*
X138742736Y-66918186D01*
X138750795Y-66917126D01*
X138751198Y-66920189D01*
X138783802Y-66920189D01*
X138784205Y-66917126D01*
X138792263Y-66918186D01*
X138792264Y-66918187D01*
X138904780Y-66933000D01*
X138904787Y-66933000D01*
X139130213Y-66933000D01*
X139130220Y-66933000D01*
X139242736Y-66918187D01*
X139242736Y-66918186D01*
X139250795Y-66917126D01*
X139251198Y-66920189D01*
X139283802Y-66920189D01*
X139284205Y-66917126D01*
X139292263Y-66918186D01*
X139292264Y-66918187D01*
X139404780Y-66933000D01*
X139404787Y-66933000D01*
X139630213Y-66933000D01*
X139630220Y-66933000D01*
X139742736Y-66918187D01*
X139742736Y-66918186D01*
X139750795Y-66917126D01*
X139751198Y-66920189D01*
X139783802Y-66920189D01*
X139784205Y-66917126D01*
X139792263Y-66918186D01*
G37*
%TD.AperFunction*%
%TA.AperFunction,Conductor*%
G36*
X127310136Y-65158330D02*
G01*
X127310366Y-65157473D01*
X127318214Y-65159575D01*
X127318216Y-65159577D01*
X127470943Y-65200501D01*
X127470945Y-65200501D01*
X127636654Y-65200501D01*
X127636670Y-65200500D01*
X130326000Y-65200500D01*
X130393039Y-65220185D01*
X130438794Y-65272989D01*
X130450000Y-65324500D01*
X130450000Y-65550000D01*
X131326000Y-65550000D01*
X131393039Y-65569685D01*
X131438794Y-65622489D01*
X131450000Y-65674000D01*
X131450000Y-65926000D01*
X131430315Y-65993039D01*
X131377511Y-66038794D01*
X131326000Y-66050000D01*
X130450001Y-66050000D01*
X130450001Y-66324986D01*
X130454641Y-66370398D01*
X130441872Y-66439091D01*
X130393991Y-66489975D01*
X130331283Y-66507000D01*
X127817598Y-66507000D01*
X127750559Y-66487315D01*
X127729917Y-66470681D01*
X127133757Y-65874522D01*
X127100272Y-65813199D01*
X127103507Y-65748523D01*
X127117246Y-65706243D01*
X127150500Y-65496287D01*
X127150500Y-65283713D01*
X127150500Y-65278841D01*
X127151986Y-65278841D01*
X127164984Y-65216940D01*
X127214032Y-65167179D01*
X127282195Y-65151834D01*
X127310136Y-65158330D01*
G37*
%TD.AperFunction*%
%TA.AperFunction,Conductor*%
G36*
X159130498Y-54302691D02*
G01*
X159138174Y-54301428D01*
X159163550Y-54312397D01*
X159190073Y-54320185D01*
X159195166Y-54326063D01*
X159202308Y-54329150D01*
X159217728Y-54352101D01*
X159235828Y-54372989D01*
X159236934Y-54380686D01*
X159241274Y-54387145D01*
X159241837Y-54414785D01*
X159245772Y-54442147D01*
X159242540Y-54449223D01*
X159242699Y-54457001D01*
X159228231Y-54480555D01*
X159216747Y-54505703D01*
X159209277Y-54511414D01*
X159206131Y-54516537D01*
X159176836Y-54536220D01*
X159067437Y-54588903D01*
X158805858Y-54753264D01*
X158564326Y-54945879D01*
X158345879Y-55164326D01*
X158153264Y-55405858D01*
X157988903Y-55667437D01*
X157854868Y-55945763D01*
X157854862Y-55945777D01*
X157752835Y-56237352D01*
X157752831Y-56237364D01*
X157684089Y-56538544D01*
X157684086Y-56538562D01*
X157649500Y-56845528D01*
X157649500Y-57154471D01*
X157684086Y-57461437D01*
X157684089Y-57461455D01*
X157752831Y-57762635D01*
X157752835Y-57762647D01*
X157854862Y-58054222D01*
X157854868Y-58054236D01*
X157988903Y-58332562D01*
X157988905Y-58332565D01*
X158153265Y-58594143D01*
X158345880Y-58835674D01*
X158564326Y-59054120D01*
X158805857Y-59246735D01*
X159067435Y-59411095D01*
X159345771Y-59545135D01*
X159386904Y-59559528D01*
X159637352Y-59647164D01*
X159637364Y-59647168D01*
X159938548Y-59715911D01*
X159938554Y-59715911D01*
X159938562Y-59715913D01*
X160143206Y-59738970D01*
X160245529Y-59750499D01*
X160245532Y-59750500D01*
X160245535Y-59750500D01*
X160554468Y-59750500D01*
X160554469Y-59750499D01*
X160711356Y-59732822D01*
X160861437Y-59715913D01*
X160861442Y-59715912D01*
X160861452Y-59715911D01*
X161162636Y-59647168D01*
X161454229Y-59545135D01*
X161732565Y-59411095D01*
X161994143Y-59246735D01*
X162235674Y-59054120D01*
X162454120Y-58835674D01*
X162646735Y-58594143D01*
X162811095Y-58332565D01*
X162945135Y-58054229D01*
X163047168Y-57762636D01*
X163054609Y-57730035D01*
X163088717Y-57669056D01*
X163150379Y-57636198D01*
X163220016Y-57641893D01*
X163275520Y-57684332D01*
X163299268Y-57750042D01*
X163299500Y-57757627D01*
X163299500Y-121442372D01*
X163279815Y-121509411D01*
X163227011Y-121555166D01*
X163157853Y-121565110D01*
X163094297Y-121536085D01*
X163056523Y-121477307D01*
X163054609Y-121469965D01*
X163047167Y-121437360D01*
X163047164Y-121437352D01*
X162945137Y-121145777D01*
X162945135Y-121145771D01*
X162811095Y-120867435D01*
X162646735Y-120605857D01*
X162454120Y-120364326D01*
X162235674Y-120145880D01*
X161994143Y-119953265D01*
X161732565Y-119788905D01*
X161732562Y-119788903D01*
X161454236Y-119654868D01*
X161454222Y-119654862D01*
X161162647Y-119552835D01*
X161162635Y-119552831D01*
X160861455Y-119484089D01*
X160861437Y-119484086D01*
X160554471Y-119449500D01*
X160554465Y-119449500D01*
X160245535Y-119449500D01*
X160245528Y-119449500D01*
X159938562Y-119484086D01*
X159938544Y-119484089D01*
X159637364Y-119552831D01*
X159637352Y-119552835D01*
X159345777Y-119654862D01*
X159345763Y-119654868D01*
X159067437Y-119788903D01*
X158805858Y-119953264D01*
X158564326Y-120145879D01*
X158345879Y-120364326D01*
X158153264Y-120605858D01*
X157988903Y-120867437D01*
X157854868Y-121145763D01*
X157854862Y-121145777D01*
X157752835Y-121437352D01*
X157752831Y-121437364D01*
X157684089Y-121738544D01*
X157684086Y-121738562D01*
X157649500Y-122045528D01*
X157649500Y-122354471D01*
X157684086Y-122661437D01*
X157684089Y-122661455D01*
X157752831Y-122962635D01*
X157752835Y-122962647D01*
X157854862Y-123254222D01*
X157854868Y-123254236D01*
X157988903Y-123532562D01*
X157988905Y-123532565D01*
X158153265Y-123794143D01*
X158345880Y-124035674D01*
X158564326Y-124254120D01*
X158805857Y-124446735D01*
X159067435Y-124611095D01*
X159067437Y-124611096D01*
X159176836Y-124663780D01*
X159228695Y-124710602D01*
X159247008Y-124778029D01*
X159225960Y-124844653D01*
X159172234Y-124889322D01*
X159123034Y-124899500D01*
X118757627Y-124899500D01*
X118690588Y-124879815D01*
X118644833Y-124827011D01*
X118634889Y-124757853D01*
X118663914Y-124694297D01*
X118722692Y-124656523D01*
X118730035Y-124654609D01*
X118737268Y-124652958D01*
X118762636Y-124647168D01*
X119054229Y-124545135D01*
X119332565Y-124411095D01*
X119594143Y-124246735D01*
X119835674Y-124054120D01*
X120054120Y-123835674D01*
X120246735Y-123594143D01*
X120411095Y-123332565D01*
X120545135Y-123054229D01*
X120647168Y-122762636D01*
X120715911Y-122461452D01*
X120727966Y-122354465D01*
X120750499Y-122154471D01*
X120750500Y-122154467D01*
X120750500Y-121845532D01*
X120750499Y-121845528D01*
X120715913Y-121538562D01*
X120715910Y-121538544D01*
X120693959Y-121442372D01*
X120647168Y-121237364D01*
X120545135Y-120945771D01*
X120411095Y-120667435D01*
X120246735Y-120405857D01*
X120054120Y-120164326D01*
X119835674Y-119945880D01*
X119594143Y-119753265D01*
X119332565Y-119588905D01*
X119332562Y-119588903D01*
X119054236Y-119454868D01*
X119054222Y-119454862D01*
X118762647Y-119352835D01*
X118762635Y-119352831D01*
X118461455Y-119284089D01*
X118461437Y-119284086D01*
X118154471Y-119249500D01*
X118154465Y-119249500D01*
X117845535Y-119249500D01*
X117845528Y-119249500D01*
X117538562Y-119284086D01*
X117538544Y-119284089D01*
X117237364Y-119352831D01*
X117237352Y-119352835D01*
X116945777Y-119454862D01*
X116945763Y-119454868D01*
X116667437Y-119588903D01*
X116405858Y-119753264D01*
X116164326Y-119945879D01*
X115945879Y-120164326D01*
X115753264Y-120405858D01*
X115588903Y-120667437D01*
X115454868Y-120945763D01*
X115454862Y-120945777D01*
X115352835Y-121237352D01*
X115352832Y-121237360D01*
X115345391Y-121269965D01*
X115311282Y-121330943D01*
X115249621Y-121363801D01*
X115179983Y-121358106D01*
X115124480Y-121315666D01*
X115100732Y-121249956D01*
X115100500Y-121242372D01*
X115100500Y-118099999D01*
X117603551Y-118099999D01*
X117603552Y-118100000D01*
X118798374Y-118100000D01*
X118865413Y-118119685D01*
X118911168Y-118172489D01*
X118914556Y-118180667D01*
X118956202Y-118292328D01*
X118956206Y-118292335D01*
X119042452Y-118407544D01*
X119042455Y-118407547D01*
X119157664Y-118493793D01*
X119157671Y-118493797D01*
X119292517Y-118544091D01*
X119292516Y-118544091D01*
X119299444Y-118544835D01*
X119352127Y-118550500D01*
X120447872Y-118550499D01*
X120507483Y-118544091D01*
X120642331Y-118493796D01*
X120757546Y-118407546D01*
X120843796Y-118292331D01*
X120885444Y-118180667D01*
X120927315Y-118124733D01*
X120992779Y-118100316D01*
X121001626Y-118100000D01*
X122196448Y-118100000D01*
X122196448Y-118099999D01*
X136703551Y-118099999D01*
X136703552Y-118100000D01*
X137898374Y-118100000D01*
X137965413Y-118119685D01*
X138011168Y-118172489D01*
X138014556Y-118180667D01*
X138056202Y-118292328D01*
X138056206Y-118292335D01*
X138142452Y-118407544D01*
X138142455Y-118407547D01*
X138257664Y-118493793D01*
X138257671Y-118493797D01*
X138392517Y-118544091D01*
X138392516Y-118544091D01*
X138399444Y-118544835D01*
X138452127Y-118550500D01*
X139547872Y-118550499D01*
X139607483Y-118544091D01*
X139742331Y-118493796D01*
X139857546Y-118407546D01*
X139943796Y-118292331D01*
X139985444Y-118180667D01*
X140027315Y-118124733D01*
X140092779Y-118100316D01*
X140101626Y-118100000D01*
X141296448Y-118100000D01*
X141296448Y-118099999D01*
X155803551Y-118099999D01*
X155803552Y-118100000D01*
X156998374Y-118100000D01*
X157065413Y-118119685D01*
X157111168Y-118172489D01*
X157114556Y-118180667D01*
X157156202Y-118292328D01*
X157156206Y-118292335D01*
X157242452Y-118407544D01*
X157242455Y-118407547D01*
X157357664Y-118493793D01*
X157357671Y-118493797D01*
X157492517Y-118544091D01*
X157492516Y-118544091D01*
X157499444Y-118544835D01*
X157552127Y-118550500D01*
X158647872Y-118550499D01*
X158707483Y-118544091D01*
X158842331Y-118493796D01*
X158957546Y-118407546D01*
X159043796Y-118292331D01*
X159085444Y-118180667D01*
X159127315Y-118124733D01*
X159192779Y-118100316D01*
X159201626Y-118100000D01*
X160396448Y-118100000D01*
X160396448Y-118099999D01*
X159673224Y-117376776D01*
X159532767Y-117236319D01*
X159496447Y-117199999D01*
X160203552Y-117199999D01*
X160203552Y-117200001D01*
X160958708Y-117955157D01*
X161043351Y-117842090D01*
X161093597Y-117707376D01*
X161093598Y-117707372D01*
X161099999Y-117647844D01*
X161100000Y-117647827D01*
X161100000Y-116752172D01*
X161099999Y-116752155D01*
X161093598Y-116692627D01*
X161093597Y-116692623D01*
X161043351Y-116557908D01*
X160958708Y-116444841D01*
X160203552Y-117199999D01*
X159496447Y-117199999D01*
X158741290Y-116444841D01*
X158656646Y-116557911D01*
X158656645Y-116557913D01*
X158606403Y-116692620D01*
X158606401Y-116692627D01*
X158600000Y-116752155D01*
X158600000Y-116925500D01*
X158580315Y-116992539D01*
X158527511Y-117038294D01*
X158476000Y-117049500D01*
X157724000Y-117049500D01*
X157656961Y-117029815D01*
X157611206Y-116977011D01*
X157600000Y-116925500D01*
X157600000Y-116752172D01*
X157599999Y-116752155D01*
X157593598Y-116692627D01*
X157593597Y-116692623D01*
X157543351Y-116557908D01*
X157458708Y-116444841D01*
X156526776Y-117376776D01*
X155803551Y-118099999D01*
X141296448Y-118099999D01*
X140573224Y-117376776D01*
X140432767Y-117236319D01*
X140396447Y-117199999D01*
X141103552Y-117199999D01*
X141103552Y-117200000D01*
X141858708Y-117955157D01*
X141943351Y-117842090D01*
X141993597Y-117707376D01*
X141993598Y-117707372D01*
X141999999Y-117647844D01*
X142000000Y-117647827D01*
X142000000Y-116752172D01*
X141999999Y-116752155D01*
X155100000Y-116752155D01*
X155100000Y-117647844D01*
X155106401Y-117707372D01*
X155106402Y-117707376D01*
X155156649Y-117842093D01*
X155241289Y-117955156D01*
X155241290Y-117955157D01*
X155996448Y-117200000D01*
X155996448Y-117199999D01*
X155241290Y-116444841D01*
X155156646Y-116557911D01*
X155156645Y-116557913D01*
X155106403Y-116692620D01*
X155106401Y-116692627D01*
X155100000Y-116752155D01*
X141999999Y-116752155D01*
X141993598Y-116692627D01*
X141993597Y-116692623D01*
X141943351Y-116557908D01*
X141858708Y-116444841D01*
X141103552Y-117199999D01*
X140396447Y-117199999D01*
X139641290Y-116444841D01*
X139556646Y-116557911D01*
X139556645Y-116557913D01*
X139506403Y-116692620D01*
X139506401Y-116692627D01*
X139500000Y-116752155D01*
X139500000Y-116925500D01*
X139480315Y-116992539D01*
X139427511Y-117038294D01*
X139376000Y-117049500D01*
X138624000Y-117049500D01*
X138556961Y-117029815D01*
X138511206Y-116977011D01*
X138500000Y-116925500D01*
X138500000Y-116752172D01*
X138499999Y-116752155D01*
X138493598Y-116692627D01*
X138493597Y-116692623D01*
X138443351Y-116557908D01*
X138358708Y-116444841D01*
X137426776Y-117376776D01*
X136703551Y-118099999D01*
X122196448Y-118099999D01*
X121473224Y-117376776D01*
X121332767Y-117236319D01*
X121296447Y-117199999D01*
X122003552Y-117199999D01*
X122003552Y-117200001D01*
X122758708Y-117955157D01*
X122843351Y-117842090D01*
X122893597Y-117707376D01*
X122893598Y-117707372D01*
X122899999Y-117647844D01*
X122900000Y-117647827D01*
X122900000Y-116752172D01*
X122899999Y-116752155D01*
X136000000Y-116752155D01*
X136000000Y-117647844D01*
X136006401Y-117707372D01*
X136006402Y-117707376D01*
X136056649Y-117842093D01*
X136141289Y-117955156D01*
X136141290Y-117955157D01*
X136896448Y-117200000D01*
X136896448Y-117199999D01*
X136141290Y-116444841D01*
X136056646Y-116557911D01*
X136056645Y-116557913D01*
X136006403Y-116692620D01*
X136006401Y-116692627D01*
X136000000Y-116752155D01*
X122899999Y-116752155D01*
X122893598Y-116692627D01*
X122893597Y-116692623D01*
X122843351Y-116557908D01*
X122758708Y-116444841D01*
X122003552Y-117199999D01*
X121296447Y-117199999D01*
X120541290Y-116444841D01*
X120456646Y-116557911D01*
X120456645Y-116557913D01*
X120406403Y-116692620D01*
X120406401Y-116692627D01*
X120400000Y-116752155D01*
X120400000Y-116925500D01*
X120380315Y-116992539D01*
X120327511Y-117038294D01*
X120276000Y-117049500D01*
X119524000Y-117049500D01*
X119456961Y-117029815D01*
X119411206Y-116977011D01*
X119400000Y-116925500D01*
X119400000Y-116752172D01*
X119399999Y-116752155D01*
X119393598Y-116692627D01*
X119393597Y-116692623D01*
X119343351Y-116557908D01*
X119258708Y-116444841D01*
X118326776Y-117376776D01*
X117603551Y-118099999D01*
X115100500Y-118099999D01*
X115100500Y-116752155D01*
X116900000Y-116752155D01*
X116900000Y-117647844D01*
X116906401Y-117707372D01*
X116906402Y-117707376D01*
X116956649Y-117842093D01*
X117041289Y-117955156D01*
X117041290Y-117955157D01*
X117796448Y-117200000D01*
X117796448Y-117199999D01*
X117041290Y-116444841D01*
X116956646Y-116557911D01*
X116956645Y-116557913D01*
X116906403Y-116692620D01*
X116906401Y-116692627D01*
X116900000Y-116752155D01*
X115100500Y-116752155D01*
X115100500Y-81099999D01*
X117103551Y-81099999D01*
X117103552Y-81100000D01*
X118298374Y-81100000D01*
X118365413Y-81119685D01*
X118411168Y-81172489D01*
X118414556Y-81180667D01*
X118456202Y-81292328D01*
X118456206Y-81292335D01*
X118542452Y-81407544D01*
X118542455Y-81407547D01*
X118657664Y-81493793D01*
X118657671Y-81493797D01*
X118792517Y-81544091D01*
X118792516Y-81544091D01*
X118799444Y-81544835D01*
X118852127Y-81550500D01*
X119947872Y-81550499D01*
X120007483Y-81544091D01*
X120142331Y-81493796D01*
X120257546Y-81407546D01*
X120343796Y-81292331D01*
X120385025Y-81181790D01*
X120385444Y-81180667D01*
X120427315Y-81124733D01*
X120492779Y-81100316D01*
X120501626Y-81100000D01*
X121696448Y-81100000D01*
X121696448Y-81099999D01*
X120973224Y-80376776D01*
X120796447Y-80199999D01*
X121503552Y-80199999D01*
X121503552Y-80200000D01*
X122251795Y-80948244D01*
X122299879Y-80900160D01*
X122343351Y-80842090D01*
X122393597Y-80707376D01*
X122393598Y-80707372D01*
X122399999Y-80647844D01*
X122400000Y-80647827D01*
X122400000Y-79752172D01*
X122399999Y-79752155D01*
X122393598Y-79692627D01*
X122393597Y-79692623D01*
X122343351Y-79557908D01*
X122258708Y-79444841D01*
X121503552Y-80199999D01*
X120796447Y-80199999D01*
X120041290Y-79444841D01*
X119956646Y-79557911D01*
X119956645Y-79557913D01*
X119906403Y-79692620D01*
X119906401Y-79692627D01*
X119900000Y-79752155D01*
X119900000Y-79925500D01*
X119880315Y-79992539D01*
X119827511Y-80038294D01*
X119776000Y-80049500D01*
X119024000Y-80049500D01*
X118956961Y-80029815D01*
X118911206Y-79977011D01*
X118900000Y-79925500D01*
X118900000Y-79752172D01*
X118899999Y-79752155D01*
X118893598Y-79692627D01*
X118893597Y-79692623D01*
X118843351Y-79557908D01*
X118758708Y-79444841D01*
X117826776Y-80376776D01*
X117103551Y-81099999D01*
X115100500Y-81099999D01*
X115100500Y-79752155D01*
X116400000Y-79752155D01*
X116400000Y-80647844D01*
X116406401Y-80707372D01*
X116406402Y-80707376D01*
X116456649Y-80842093D01*
X116541289Y-80955156D01*
X116541290Y-80955157D01*
X117296448Y-80200000D01*
X117296448Y-80199999D01*
X116541290Y-79444841D01*
X116456646Y-79557911D01*
X116456645Y-79557913D01*
X116406403Y-79692620D01*
X116406401Y-79692627D01*
X116400000Y-79752155D01*
X115100500Y-79752155D01*
X115100500Y-77752135D01*
X116399500Y-77752135D01*
X116399500Y-78647870D01*
X116399501Y-78647876D01*
X116405908Y-78707483D01*
X116456202Y-78842328D01*
X116456206Y-78842335D01*
X116542452Y-78957544D01*
X116542455Y-78957547D01*
X116657664Y-79043793D01*
X116657671Y-79043797D01*
X116792517Y-79094091D01*
X116792516Y-79094091D01*
X116799444Y-79094835D01*
X116852127Y-79100500D01*
X117000610Y-79100499D01*
X117067647Y-79120183D01*
X117113402Y-79172987D01*
X117123346Y-79242145D01*
X117115169Y-79271951D01*
X117103551Y-79299999D01*
X117650000Y-79846448D01*
X118196447Y-79300001D01*
X118184829Y-79271953D01*
X118177360Y-79202483D01*
X118208634Y-79140004D01*
X118268723Y-79104351D01*
X118299389Y-79100499D01*
X118447872Y-79100499D01*
X118507483Y-79094091D01*
X118642331Y-79043796D01*
X118757546Y-78957546D01*
X118837914Y-78850188D01*
X118893847Y-78808318D01*
X118937180Y-78800500D01*
X119862820Y-78800500D01*
X119929859Y-78820185D01*
X119962085Y-78850187D01*
X120042454Y-78957546D01*
X120088643Y-78992123D01*
X120157664Y-79043793D01*
X120157671Y-79043797D01*
X120292517Y-79094091D01*
X120292516Y-79094091D01*
X120299444Y-79094835D01*
X120352127Y-79100500D01*
X120500610Y-79100499D01*
X120567647Y-79120183D01*
X120613402Y-79172987D01*
X120623346Y-79242145D01*
X120615169Y-79271951D01*
X120603551Y-79299999D01*
X121150000Y-79846448D01*
X121696447Y-79300001D01*
X121684829Y-79271953D01*
X121677360Y-79202483D01*
X121708634Y-79140004D01*
X121768723Y-79104351D01*
X121799389Y-79100499D01*
X121947872Y-79100499D01*
X122007483Y-79094091D01*
X122142331Y-79043796D01*
X122257546Y-78957546D01*
X122337914Y-78850188D01*
X122393847Y-78808318D01*
X122437180Y-78800500D01*
X124450903Y-78800500D01*
X124517942Y-78820185D01*
X124563697Y-78872989D01*
X124573641Y-78942147D01*
X124544616Y-79005703D01*
X124538584Y-79012181D01*
X122481514Y-81069250D01*
X122386476Y-81164288D01*
X121169481Y-82381282D01*
X121169479Y-82381284D01*
X121149189Y-82416428D01*
X121140613Y-82431284D01*
X121090423Y-82518215D01*
X121049499Y-82670943D01*
X121049499Y-82670945D01*
X121049499Y-82839046D01*
X121049500Y-82839059D01*
X121049500Y-114009897D01*
X121029815Y-114076936D01*
X120977011Y-114122691D01*
X120907853Y-114132635D01*
X120844297Y-114103610D01*
X120826234Y-114084208D01*
X120757547Y-113992455D01*
X120757544Y-113992452D01*
X120642335Y-113906206D01*
X120642328Y-113906202D01*
X120507482Y-113855908D01*
X120507483Y-113855908D01*
X120447883Y-113849501D01*
X120447881Y-113849500D01*
X120447873Y-113849500D01*
X120447864Y-113849500D01*
X119352129Y-113849500D01*
X119352123Y-113849501D01*
X119292516Y-113855908D01*
X119157671Y-113906202D01*
X119157664Y-113906206D01*
X119042455Y-113992452D01*
X119042452Y-113992455D01*
X118956206Y-114107664D01*
X118956203Y-114107670D01*
X118914741Y-114218834D01*
X118872869Y-114274767D01*
X118807405Y-114299184D01*
X118798559Y-114299500D01*
X117352129Y-114299500D01*
X117352123Y-114299501D01*
X117292516Y-114305908D01*
X117157671Y-114356202D01*
X117157664Y-114356206D01*
X117042455Y-114442452D01*
X117042452Y-114442455D01*
X116956206Y-114557664D01*
X116956202Y-114557671D01*
X116905908Y-114692517D01*
X116899501Y-114752116D01*
X116899501Y-114752123D01*
X116899500Y-114752135D01*
X116899500Y-115647870D01*
X116899501Y-115647876D01*
X116905908Y-115707483D01*
X116956202Y-115842328D01*
X116956206Y-115842335D01*
X117042452Y-115957544D01*
X117042455Y-115957547D01*
X117157664Y-116043793D01*
X117157671Y-116043797D01*
X117292517Y-116094091D01*
X117292516Y-116094091D01*
X117299444Y-116094835D01*
X117352127Y-116100500D01*
X117500610Y-116100499D01*
X117567647Y-116120183D01*
X117613402Y-116172987D01*
X117623346Y-116242145D01*
X117615169Y-116271951D01*
X117603551Y-116299999D01*
X118150000Y-116846448D01*
X118696447Y-116300001D01*
X118684829Y-116271953D01*
X118677360Y-116202483D01*
X118708634Y-116140004D01*
X118768723Y-116104351D01*
X118799389Y-116100499D01*
X118947872Y-116100499D01*
X119007483Y-116094091D01*
X119142331Y-116043796D01*
X119257546Y-115957546D01*
X119337914Y-115850188D01*
X119393847Y-115808318D01*
X119437180Y-115800500D01*
X120362820Y-115800500D01*
X120429859Y-115820185D01*
X120462085Y-115850187D01*
X120542454Y-115957546D01*
X120588643Y-115992123D01*
X120657664Y-116043793D01*
X120657671Y-116043797D01*
X120792517Y-116094091D01*
X120792516Y-116094091D01*
X120799444Y-116094835D01*
X120852127Y-116100500D01*
X121000610Y-116100499D01*
X121067647Y-116120183D01*
X121113402Y-116172987D01*
X121123346Y-116242145D01*
X121115169Y-116271951D01*
X121103551Y-116299999D01*
X121650000Y-116846448D01*
X122196447Y-116300001D01*
X122184829Y-116271953D01*
X122177360Y-116202483D01*
X122208634Y-116140004D01*
X122268723Y-116104351D01*
X122299389Y-116100499D01*
X122447872Y-116100499D01*
X122507483Y-116094091D01*
X122642331Y-116043796D01*
X122757546Y-115957546D01*
X122843796Y-115842331D01*
X122894091Y-115707483D01*
X122900500Y-115647873D01*
X122900499Y-114752128D01*
X122894091Y-114692517D01*
X122843796Y-114557669D01*
X122843795Y-114557668D01*
X122843793Y-114557664D01*
X122757547Y-114442455D01*
X122757544Y-114442452D01*
X122642335Y-114356206D01*
X122642328Y-114356202D01*
X122507482Y-114305908D01*
X122507483Y-114305908D01*
X122447883Y-114299501D01*
X122447881Y-114299500D01*
X122447873Y-114299500D01*
X122447865Y-114299500D01*
X122374500Y-114299500D01*
X122307461Y-114279815D01*
X122261706Y-114227011D01*
X122250500Y-114175500D01*
X122250500Y-109999097D01*
X122270185Y-109932058D01*
X122322989Y-109886303D01*
X122392147Y-109876359D01*
X122455703Y-109905384D01*
X122462180Y-109911415D01*
X128231284Y-115680520D01*
X128368215Y-115759577D01*
X128520943Y-115800501D01*
X128520946Y-115800501D01*
X128686654Y-115800501D01*
X128686670Y-115800500D01*
X135962820Y-115800500D01*
X136029859Y-115820185D01*
X136062085Y-115850187D01*
X136142454Y-115957546D01*
X136188643Y-115992123D01*
X136257664Y-116043793D01*
X136257671Y-116043797D01*
X136392517Y-116094091D01*
X136392516Y-116094091D01*
X136399444Y-116094835D01*
X136452127Y-116100500D01*
X136600610Y-116100499D01*
X136667647Y-116120183D01*
X136713402Y-116172987D01*
X136723346Y-116242145D01*
X136715169Y-116271951D01*
X136703551Y-116299999D01*
X137250000Y-116846448D01*
X137796447Y-116300001D01*
X137784829Y-116271953D01*
X137777360Y-116202483D01*
X137808634Y-116140004D01*
X137868723Y-116104351D01*
X137899389Y-116100499D01*
X138047872Y-116100499D01*
X138107483Y-116094091D01*
X138242331Y-116043796D01*
X138357546Y-115957546D01*
X138437914Y-115850188D01*
X138493847Y-115808318D01*
X138537180Y-115800500D01*
X139462820Y-115800500D01*
X139529859Y-115820185D01*
X139562085Y-115850187D01*
X139642454Y-115957546D01*
X139688643Y-115992123D01*
X139757664Y-116043793D01*
X139757671Y-116043797D01*
X139892517Y-116094091D01*
X139892516Y-116094091D01*
X139899444Y-116094835D01*
X139952127Y-116100500D01*
X140100610Y-116100499D01*
X140167647Y-116120183D01*
X140213402Y-116172987D01*
X140223346Y-116242145D01*
X140215169Y-116271951D01*
X140203551Y-116299999D01*
X140750000Y-116846448D01*
X141296447Y-116300001D01*
X141284829Y-116271953D01*
X141277360Y-116202483D01*
X141308634Y-116140004D01*
X141368723Y-116104351D01*
X141399389Y-116100499D01*
X141547872Y-116100499D01*
X141607483Y-116094091D01*
X141742331Y-116043796D01*
X141857546Y-115957546D01*
X141943796Y-115842331D01*
X141994091Y-115707483D01*
X142000500Y-115647873D01*
X142000499Y-114752128D01*
X141994091Y-114692517D01*
X141943796Y-114557669D01*
X141943795Y-114557668D01*
X141943793Y-114557664D01*
X141857547Y-114442455D01*
X141857544Y-114442452D01*
X141742335Y-114356206D01*
X141742328Y-114356202D01*
X141607482Y-114305908D01*
X141607483Y-114305908D01*
X141547883Y-114299501D01*
X141547881Y-114299500D01*
X141547873Y-114299500D01*
X141547865Y-114299500D01*
X140101440Y-114299500D01*
X140034401Y-114279815D01*
X139988646Y-114227011D01*
X139985258Y-114218833D01*
X139943797Y-114107671D01*
X139943793Y-114107664D01*
X139857547Y-113992455D01*
X139857544Y-113992452D01*
X139742335Y-113906206D01*
X139742328Y-113906202D01*
X139607482Y-113855908D01*
X139607483Y-113855908D01*
X139547883Y-113849501D01*
X139547881Y-113849500D01*
X139547873Y-113849500D01*
X139547864Y-113849500D01*
X138452129Y-113849500D01*
X138452123Y-113849501D01*
X138392516Y-113855908D01*
X138257671Y-113906202D01*
X138257664Y-113906206D01*
X138142455Y-113992452D01*
X138142452Y-113992455D01*
X138056206Y-114107664D01*
X138056203Y-114107670D01*
X138014741Y-114218834D01*
X137972869Y-114274767D01*
X137907405Y-114299184D01*
X137898559Y-114299500D01*
X136452129Y-114299500D01*
X136452123Y-114299501D01*
X136392516Y-114305908D01*
X136257671Y-114356202D01*
X136257664Y-114356206D01*
X136142456Y-114442452D01*
X136142455Y-114442453D01*
X136142454Y-114442454D01*
X136062087Y-114549811D01*
X136006153Y-114591682D01*
X135962820Y-114599500D01*
X128900098Y-114599500D01*
X128833059Y-114579815D01*
X128812417Y-114563181D01*
X127061417Y-112812181D01*
X127027932Y-112750858D01*
X127032916Y-112681166D01*
X127074788Y-112625233D01*
X127140252Y-112600816D01*
X127149098Y-112600500D01*
X143699903Y-112600500D01*
X143766942Y-112620185D01*
X143787584Y-112636819D01*
X146715139Y-115564374D01*
X146715149Y-115564385D01*
X146719479Y-115568715D01*
X146719480Y-115568716D01*
X146831284Y-115680520D01*
X146831286Y-115680521D01*
X146831290Y-115680524D01*
X146968209Y-115759573D01*
X146968216Y-115759577D01*
X147080019Y-115789534D01*
X147120942Y-115800500D01*
X147120943Y-115800500D01*
X155062820Y-115800500D01*
X155129859Y-115820185D01*
X155162085Y-115850187D01*
X155242454Y-115957546D01*
X155288643Y-115992123D01*
X155357664Y-116043793D01*
X155357671Y-116043797D01*
X155492517Y-116094091D01*
X155492516Y-116094091D01*
X155499444Y-116094835D01*
X155552127Y-116100500D01*
X155700610Y-116100499D01*
X155767647Y-116120183D01*
X155813402Y-116172987D01*
X155823346Y-116242145D01*
X155815169Y-116271951D01*
X155803551Y-116299999D01*
X156350000Y-116846448D01*
X156896447Y-116300001D01*
X156884829Y-116271953D01*
X156877360Y-116202483D01*
X156908634Y-116140004D01*
X156968723Y-116104351D01*
X156999389Y-116100499D01*
X157147872Y-116100499D01*
X157207483Y-116094091D01*
X157342331Y-116043796D01*
X157457546Y-115957546D01*
X157537914Y-115850188D01*
X157593847Y-115808318D01*
X157637180Y-115800500D01*
X158562820Y-115800500D01*
X158629859Y-115820185D01*
X158662085Y-115850187D01*
X158742454Y-115957546D01*
X158788643Y-115992123D01*
X158857664Y-116043793D01*
X158857671Y-116043797D01*
X158992517Y-116094091D01*
X158992516Y-116094091D01*
X158999444Y-116094835D01*
X159052127Y-116100500D01*
X159200610Y-116100499D01*
X159267647Y-116120183D01*
X159313402Y-116172987D01*
X159323346Y-116242145D01*
X159315169Y-116271951D01*
X159303551Y-116299999D01*
X159850000Y-116846448D01*
X160396447Y-116300001D01*
X160384829Y-116271953D01*
X160377360Y-116202483D01*
X160408634Y-116140004D01*
X160468723Y-116104351D01*
X160499389Y-116100499D01*
X160647872Y-116100499D01*
X160707483Y-116094091D01*
X160842331Y-116043796D01*
X160957546Y-115957546D01*
X161043796Y-115842331D01*
X161094091Y-115707483D01*
X161100500Y-115647873D01*
X161100499Y-114752128D01*
X161094091Y-114692517D01*
X161043796Y-114557669D01*
X161043795Y-114557668D01*
X161043793Y-114557664D01*
X160957547Y-114442455D01*
X160957544Y-114442452D01*
X160842335Y-114356206D01*
X160842328Y-114356202D01*
X160707482Y-114305908D01*
X160707483Y-114305908D01*
X160647883Y-114299501D01*
X160647881Y-114299500D01*
X160647873Y-114299500D01*
X160647865Y-114299500D01*
X159201440Y-114299500D01*
X159134401Y-114279815D01*
X159088646Y-114227011D01*
X159085258Y-114218833D01*
X159043797Y-114107671D01*
X159043793Y-114107664D01*
X158957547Y-113992455D01*
X158957544Y-113992452D01*
X158842335Y-113906206D01*
X158842328Y-113906202D01*
X158707482Y-113855908D01*
X158707483Y-113855908D01*
X158647883Y-113849501D01*
X158647881Y-113849500D01*
X158647873Y-113849500D01*
X158647864Y-113849500D01*
X157552129Y-113849500D01*
X157552123Y-113849501D01*
X157492516Y-113855908D01*
X157357671Y-113906202D01*
X157357664Y-113906206D01*
X157242455Y-113992452D01*
X157242452Y-113992455D01*
X157156206Y-114107664D01*
X157156203Y-114107670D01*
X157114741Y-114218834D01*
X157072869Y-114274767D01*
X157007405Y-114299184D01*
X156998559Y-114299500D01*
X155552129Y-114299500D01*
X155552123Y-114299501D01*
X155492516Y-114305908D01*
X155357671Y-114356202D01*
X155357664Y-114356206D01*
X155242456Y-114442452D01*
X155242455Y-114442453D01*
X155242454Y-114442454D01*
X155162087Y-114549811D01*
X155106153Y-114591682D01*
X155062820Y-114599500D01*
X147500097Y-114599500D01*
X147433058Y-114579815D01*
X147412416Y-114563181D01*
X144487590Y-111638355D01*
X144487588Y-111638352D01*
X144368717Y-111519481D01*
X144368716Y-111519480D01*
X144281904Y-111469360D01*
X144281904Y-111469359D01*
X144281900Y-111469358D01*
X144231785Y-111440423D01*
X144079057Y-111399499D01*
X143920943Y-111399499D01*
X143913347Y-111399499D01*
X143913331Y-111399500D01*
X141749098Y-111399500D01*
X141727852Y-111393261D01*
X141705769Y-111391683D01*
X141694984Y-111383610D01*
X141682059Y-111379815D01*
X141667560Y-111363082D01*
X141649834Y-111349814D01*
X141645125Y-111337191D01*
X141636304Y-111327011D01*
X141633153Y-111305097D01*
X141625414Y-111284351D01*
X141628277Y-111271186D01*
X141626360Y-111257853D01*
X141635558Y-111237711D01*
X141640264Y-111216077D01*
X141653534Y-111198349D01*
X141655385Y-111194297D01*
X141661399Y-111187836D01*
X141680520Y-111168716D01*
X141680521Y-111168714D01*
X142216023Y-110633213D01*
X142295080Y-110496281D01*
X142336004Y-110343554D01*
X142336004Y-110185439D01*
X142336004Y-110177844D01*
X142336003Y-110177826D01*
X142336003Y-109894811D01*
X142355688Y-109827772D01*
X142408492Y-109782017D01*
X142460003Y-109770811D01*
X142683374Y-109770811D01*
X142683375Y-109770811D01*
X142742986Y-109764403D01*
X142877834Y-109714108D01*
X142993049Y-109627858D01*
X143079299Y-109512643D01*
X143079299Y-109512641D01*
X143080902Y-109510501D01*
X143136836Y-109468630D01*
X143180169Y-109460812D01*
X147053019Y-109460812D01*
X147053035Y-109460813D01*
X147060631Y-109460813D01*
X147218742Y-109460813D01*
X147218745Y-109460813D01*
X147371473Y-109419889D01*
X147421592Y-109390951D01*
X147508404Y-109340832D01*
X147620208Y-109229028D01*
X147620208Y-109229026D01*
X147630416Y-109218819D01*
X147630418Y-109218816D01*
X156558506Y-100290728D01*
X156558511Y-100290724D01*
X156568714Y-100280520D01*
X156568716Y-100280520D01*
X156680520Y-100168716D01*
X156751001Y-100046639D01*
X156759577Y-100031785D01*
X156800500Y-99879057D01*
X156800500Y-99720943D01*
X156800500Y-95120943D01*
X156759577Y-94968216D01*
X156711873Y-94885589D01*
X156680524Y-94831290D01*
X156680521Y-94831286D01*
X156680520Y-94831284D01*
X156568716Y-94719480D01*
X156568715Y-94719479D01*
X156564385Y-94715149D01*
X156564374Y-94715139D01*
X154686590Y-92837355D01*
X154686588Y-92837352D01*
X154567715Y-92718479D01*
X154540783Y-92702930D01*
X154502677Y-92680930D01*
X154454463Y-92630365D01*
X154441239Y-92561758D01*
X154467207Y-92496893D01*
X154476989Y-92485871D01*
X154758506Y-92204355D01*
X154758511Y-92204351D01*
X154768714Y-92194147D01*
X154768716Y-92194147D01*
X154880520Y-92082343D01*
X154949009Y-91963716D01*
X154959577Y-91945412D01*
X155000500Y-91792685D01*
X155000500Y-91634570D01*
X155000500Y-83289060D01*
X155000501Y-83289047D01*
X155000501Y-83120944D01*
X154995471Y-83102172D01*
X154959577Y-82968216D01*
X154940688Y-82935499D01*
X154880524Y-82831290D01*
X154880518Y-82831282D01*
X153149235Y-81099999D01*
X156328551Y-81099999D01*
X156328552Y-81100000D01*
X157523374Y-81100000D01*
X157590413Y-81119685D01*
X157636168Y-81172489D01*
X157639556Y-81180667D01*
X157681202Y-81292328D01*
X157681206Y-81292335D01*
X157767452Y-81407544D01*
X157767455Y-81407547D01*
X157882664Y-81493793D01*
X157882671Y-81493797D01*
X158017517Y-81544091D01*
X158017516Y-81544091D01*
X158024444Y-81544835D01*
X158077127Y-81550500D01*
X159172872Y-81550499D01*
X159232483Y-81544091D01*
X159367331Y-81493796D01*
X159482546Y-81407546D01*
X159568796Y-81292331D01*
X159610025Y-81181790D01*
X159610444Y-81180667D01*
X159652315Y-81124733D01*
X159717779Y-81100316D01*
X159726626Y-81100000D01*
X160921448Y-81100000D01*
X160921448Y-81099999D01*
X160198224Y-80376776D01*
X160057766Y-80236318D01*
X160021447Y-80199999D01*
X160728552Y-80199999D01*
X160728552Y-80200001D01*
X161483708Y-80955157D01*
X161568351Y-80842090D01*
X161618597Y-80707376D01*
X161618598Y-80707372D01*
X161624999Y-80647844D01*
X161625000Y-80647827D01*
X161625000Y-79752172D01*
X161624999Y-79752155D01*
X161618598Y-79692627D01*
X161618597Y-79692623D01*
X161568351Y-79557908D01*
X161483708Y-79444841D01*
X160728552Y-80199999D01*
X160021447Y-80199999D01*
X159266290Y-79444841D01*
X159181646Y-79557911D01*
X159181645Y-79557913D01*
X159131403Y-79692620D01*
X159131401Y-79692627D01*
X159125000Y-79752155D01*
X159125000Y-79925500D01*
X159105315Y-79992539D01*
X159052511Y-80038294D01*
X159001000Y-80049500D01*
X158249000Y-80049500D01*
X158181961Y-80029815D01*
X158136206Y-79977011D01*
X158125000Y-79925500D01*
X158125000Y-79752172D01*
X158124999Y-79752155D01*
X158118598Y-79692627D01*
X158118597Y-79692623D01*
X158068351Y-79557908D01*
X157983708Y-79444841D01*
X157051776Y-80376776D01*
X156328551Y-81099999D01*
X153149235Y-81099999D01*
X152786819Y-80737583D01*
X152753334Y-80676260D01*
X152750500Y-80649902D01*
X152750500Y-79752155D01*
X155625000Y-79752155D01*
X155625000Y-80647844D01*
X155631401Y-80707372D01*
X155631402Y-80707376D01*
X155681649Y-80842093D01*
X155766289Y-80955156D01*
X155766290Y-80955157D01*
X156521448Y-80200000D01*
X156521448Y-80199999D01*
X155766290Y-79444841D01*
X155681646Y-79557911D01*
X155681645Y-79557913D01*
X155631403Y-79692620D01*
X155631401Y-79692627D01*
X155625000Y-79752155D01*
X152750500Y-79752155D01*
X152750500Y-78578269D01*
X152770185Y-78511230D01*
X152822989Y-78465475D01*
X152892147Y-78455531D01*
X152955703Y-78484556D01*
X152974292Y-78505626D01*
X152974347Y-78505581D01*
X152975609Y-78507119D01*
X152977603Y-78509379D01*
X152978212Y-78510291D01*
X153089707Y-78621786D01*
X153089711Y-78621789D01*
X153220814Y-78709390D01*
X153220827Y-78709397D01*
X153364038Y-78768716D01*
X153366503Y-78769737D01*
X153496992Y-78795693D01*
X153521153Y-78800499D01*
X153521156Y-78800500D01*
X153521158Y-78800500D01*
X153678844Y-78800500D01*
X153684902Y-78799903D01*
X153684938Y-78800276D01*
X153700862Y-78798781D01*
X153715012Y-78798911D01*
X153720943Y-78800501D01*
X153879058Y-78800501D01*
X153879062Y-78800500D01*
X155587820Y-78800500D01*
X155654859Y-78820185D01*
X155687085Y-78850187D01*
X155767454Y-78957546D01*
X155813643Y-78992123D01*
X155882664Y-79043793D01*
X155882671Y-79043797D01*
X156017517Y-79094091D01*
X156017516Y-79094091D01*
X156024444Y-79094835D01*
X156077127Y-79100500D01*
X156225610Y-79100499D01*
X156292647Y-79120183D01*
X156338402Y-79172987D01*
X156348346Y-79242145D01*
X156340169Y-79271951D01*
X156328551Y-79299999D01*
X156875000Y-79846448D01*
X157421447Y-79300001D01*
X157409829Y-79271953D01*
X157402360Y-79202483D01*
X157433634Y-79140004D01*
X157493723Y-79104351D01*
X157524389Y-79100499D01*
X157672872Y-79100499D01*
X157732483Y-79094091D01*
X157867331Y-79043796D01*
X157982546Y-78957546D01*
X158062914Y-78850188D01*
X158118847Y-78808318D01*
X158162180Y-78800500D01*
X159087820Y-78800500D01*
X159154859Y-78820185D01*
X159187085Y-78850187D01*
X159267454Y-78957546D01*
X159313643Y-78992123D01*
X159382664Y-79043793D01*
X159382671Y-79043797D01*
X159517517Y-79094091D01*
X159517516Y-79094091D01*
X159524444Y-79094835D01*
X159577127Y-79100500D01*
X159725610Y-79100499D01*
X159792647Y-79120183D01*
X159838402Y-79172987D01*
X159848346Y-79242145D01*
X159840169Y-79271951D01*
X159828551Y-79299999D01*
X160375000Y-79846448D01*
X160921447Y-79300001D01*
X160909829Y-79271953D01*
X160902360Y-79202483D01*
X160933634Y-79140004D01*
X160993723Y-79104351D01*
X161024389Y-79100499D01*
X161172872Y-79100499D01*
X161232483Y-79094091D01*
X161367331Y-79043796D01*
X161482546Y-78957546D01*
X161568796Y-78842331D01*
X161619091Y-78707483D01*
X161625500Y-78647873D01*
X161625499Y-77752128D01*
X161619091Y-77692517D01*
X161618044Y-77689711D01*
X161568797Y-77557671D01*
X161568793Y-77557664D01*
X161482547Y-77442455D01*
X161482544Y-77442452D01*
X161367335Y-77356206D01*
X161367328Y-77356202D01*
X161232482Y-77305908D01*
X161232483Y-77305908D01*
X161172883Y-77299501D01*
X161172881Y-77299500D01*
X161172873Y-77299500D01*
X161172865Y-77299500D01*
X159726440Y-77299500D01*
X159659401Y-77279815D01*
X159613646Y-77227011D01*
X159610258Y-77218833D01*
X159568797Y-77107671D01*
X159568793Y-77107664D01*
X159482547Y-76992455D01*
X159482544Y-76992452D01*
X159367335Y-76906206D01*
X159367328Y-76906202D01*
X159232482Y-76855908D01*
X159232483Y-76855908D01*
X159172883Y-76849501D01*
X159172881Y-76849500D01*
X159172873Y-76849500D01*
X159172864Y-76849500D01*
X158077129Y-76849500D01*
X158077123Y-76849501D01*
X158017516Y-76855908D01*
X157882671Y-76906202D01*
X157882664Y-76906206D01*
X157767455Y-76992452D01*
X157767452Y-76992455D01*
X157681206Y-77107664D01*
X157681203Y-77107670D01*
X157639741Y-77218834D01*
X157597869Y-77274767D01*
X157532405Y-77299184D01*
X157523559Y-77299500D01*
X156077129Y-77299500D01*
X156077123Y-77299501D01*
X156017516Y-77305908D01*
X155882671Y-77356202D01*
X155882664Y-77356206D01*
X155767456Y-77442452D01*
X155767455Y-77442453D01*
X155767454Y-77442454D01*
X155691338Y-77544132D01*
X155687087Y-77549811D01*
X155631153Y-77591682D01*
X155587820Y-77599500D01*
X154361427Y-77599500D01*
X154294388Y-77579815D01*
X154258325Y-77544390D01*
X154221792Y-77489715D01*
X154221786Y-77489707D01*
X154110292Y-77378213D01*
X154110288Y-77378210D01*
X153979185Y-77290609D01*
X153979172Y-77290602D01*
X153833501Y-77230264D01*
X153833489Y-77230261D01*
X153678845Y-77199500D01*
X153678842Y-77199500D01*
X153521158Y-77199500D01*
X153521155Y-77199500D01*
X153366510Y-77230261D01*
X153366498Y-77230264D01*
X153220827Y-77290602D01*
X153220814Y-77290609D01*
X153089711Y-77378210D01*
X153089707Y-77378213D01*
X152978213Y-77489707D01*
X152978206Y-77489716D01*
X152977597Y-77490628D01*
X152977155Y-77490997D01*
X152974347Y-77494419D01*
X152973697Y-77493886D01*
X152923982Y-77535429D01*
X152854656Y-77544132D01*
X152791631Y-77513973D01*
X152754916Y-77454527D01*
X152750500Y-77421730D01*
X152750500Y-76983308D01*
X152770185Y-76916269D01*
X152786820Y-76895626D01*
X152818076Y-76864370D01*
X152818081Y-76864365D01*
X152901744Y-76722898D01*
X152947598Y-76565069D01*
X152950500Y-76528194D01*
X152950500Y-76287000D01*
X152953050Y-76278314D01*
X152951762Y-76269353D01*
X152962740Y-76245312D01*
X152970185Y-76219961D01*
X152977025Y-76214033D01*
X152980787Y-76205797D01*
X153003021Y-76191507D01*
X153022989Y-76174206D01*
X153033503Y-76171918D01*
X153039565Y-76168023D01*
X153074500Y-76163000D01*
X153090202Y-76163000D01*
X153157241Y-76182685D01*
X153195739Y-76221901D01*
X153232288Y-76281156D01*
X153356344Y-76405212D01*
X153505666Y-76497314D01*
X153672203Y-76552499D01*
X153774991Y-76563000D01*
X154825008Y-76562999D01*
X154825016Y-76562998D01*
X154825019Y-76562998D01*
X154881302Y-76557248D01*
X154927797Y-76552499D01*
X155094334Y-76497314D01*
X155243656Y-76405212D01*
X155367712Y-76281156D01*
X155459814Y-76131834D01*
X155514999Y-75965297D01*
X155525500Y-75862509D01*
X155525499Y-75262492D01*
X155523731Y-75245189D01*
X155514999Y-75159703D01*
X155514998Y-75159700D01*
X155490165Y-75084760D01*
X155459814Y-74993166D01*
X155367712Y-74843844D01*
X155243656Y-74719788D01*
X155240342Y-74717743D01*
X155238546Y-74715748D01*
X155237989Y-74715307D01*
X155238064Y-74715211D01*
X155193618Y-74665797D01*
X155182397Y-74596834D01*
X155210240Y-74532752D01*
X155240348Y-74506665D01*
X155243342Y-74504818D01*
X155367315Y-74380845D01*
X155459356Y-74231624D01*
X155459358Y-74231619D01*
X155514505Y-74065197D01*
X155514506Y-74065190D01*
X155524999Y-73962486D01*
X155525000Y-73962473D01*
X155525000Y-73912500D01*
X153075001Y-73912500D01*
X153075001Y-73962486D01*
X153085494Y-74065197D01*
X153140641Y-74231619D01*
X153140643Y-74231624D01*
X153232684Y-74380845D01*
X153356655Y-74504816D01*
X153356659Y-74504819D01*
X153359656Y-74506668D01*
X153361279Y-74508472D01*
X153362323Y-74509298D01*
X153362181Y-74509476D01*
X153406381Y-74558616D01*
X153417602Y-74627579D01*
X153389759Y-74691661D01*
X153359661Y-74717741D01*
X153356349Y-74719783D01*
X153356343Y-74719788D01*
X153232289Y-74843842D01*
X153229789Y-74847896D01*
X153206325Y-74885938D01*
X153195741Y-74903097D01*
X153188153Y-74909921D01*
X153183915Y-74919203D01*
X153162615Y-74932891D01*
X153143793Y-74949821D01*
X153132157Y-74952465D01*
X153125137Y-74956977D01*
X153090202Y-74962000D01*
X152933972Y-74962000D01*
X152866933Y-74942315D01*
X152827241Y-74901122D01*
X152818085Y-74885640D01*
X152818076Y-74885629D01*
X152701870Y-74769423D01*
X152701862Y-74769417D01*
X152594335Y-74705826D01*
X152560398Y-74685756D01*
X152560397Y-74685755D01*
X152560396Y-74685755D01*
X152560393Y-74685754D01*
X152402573Y-74639902D01*
X152402567Y-74639901D01*
X152365701Y-74637000D01*
X152365694Y-74637000D01*
X152124500Y-74637000D01*
X152057461Y-74617315D01*
X152011706Y-74564511D01*
X152000500Y-74513000D01*
X152000500Y-73362513D01*
X153075000Y-73362513D01*
X153075000Y-73412500D01*
X154050000Y-73412500D01*
X154550000Y-73412500D01*
X155524999Y-73412500D01*
X155524999Y-73362528D01*
X155524998Y-73362513D01*
X155514505Y-73259802D01*
X155459358Y-73093380D01*
X155459356Y-73093375D01*
X155367315Y-72944154D01*
X155243345Y-72820184D01*
X155094124Y-72728143D01*
X155094119Y-72728141D01*
X154927697Y-72672994D01*
X154927690Y-72672993D01*
X154824986Y-72662500D01*
X154550000Y-72662500D01*
X154550000Y-73412500D01*
X154050000Y-73412500D01*
X154050000Y-72662500D01*
X153775029Y-72662500D01*
X153775012Y-72662501D01*
X153672302Y-72672994D01*
X153505880Y-72728141D01*
X153505875Y-72728143D01*
X153356654Y-72820184D01*
X153232684Y-72944154D01*
X153140643Y-73093375D01*
X153140641Y-73093380D01*
X153085494Y-73259802D01*
X153085493Y-73259809D01*
X153075000Y-73362513D01*
X152000500Y-73362513D01*
X152000500Y-73346813D01*
X152000499Y-73346798D01*
X151998481Y-73321158D01*
X151997598Y-73309931D01*
X151951744Y-73152102D01*
X151868081Y-73010635D01*
X151868079Y-73010633D01*
X151868076Y-73010629D01*
X151836819Y-72979372D01*
X151803334Y-72918049D01*
X151800500Y-72891691D01*
X151800500Y-72430815D01*
X157200000Y-72430815D01*
X157210407Y-72532673D01*
X157265094Y-72697709D01*
X157265096Y-72697714D01*
X157356370Y-72845691D01*
X157479308Y-72968629D01*
X157627285Y-73059903D01*
X157627290Y-73059905D01*
X157792326Y-73114592D01*
X157894184Y-73124999D01*
X157894197Y-73125000D01*
X158150000Y-73125000D01*
X158650000Y-73125000D01*
X158905803Y-73125000D01*
X158905815Y-73124999D01*
X159007673Y-73114592D01*
X159172709Y-73059905D01*
X159172714Y-73059903D01*
X159320691Y-72968629D01*
X159443629Y-72845691D01*
X159534903Y-72697714D01*
X159534905Y-72697709D01*
X159589592Y-72532673D01*
X159599999Y-72430815D01*
X159600000Y-72430802D01*
X159600000Y-72387500D01*
X158650000Y-72387500D01*
X158650000Y-73125000D01*
X158150000Y-73125000D01*
X158150000Y-72387500D01*
X157200000Y-72387500D01*
X157200000Y-72430815D01*
X151800500Y-72430815D01*
X151800500Y-71194168D01*
X151820185Y-71127129D01*
X151872989Y-71081374D01*
X151942147Y-71071430D01*
X151993392Y-71091067D01*
X152020812Y-71109389D01*
X152020827Y-71109397D01*
X152136919Y-71157483D01*
X152166503Y-71169737D01*
X152321153Y-71200499D01*
X152321156Y-71200500D01*
X152321158Y-71200500D01*
X152478844Y-71200500D01*
X152478845Y-71200499D01*
X152633497Y-71169737D01*
X152779179Y-71109394D01*
X152910289Y-71021789D01*
X153021789Y-70910289D01*
X153109394Y-70779179D01*
X153109395Y-70779176D01*
X153109397Y-70779173D01*
X153160939Y-70654737D01*
X153204779Y-70600333D01*
X153271073Y-70578268D01*
X153338773Y-70595547D01*
X153386384Y-70646684D01*
X153399500Y-70702189D01*
X153399500Y-71097870D01*
X153399501Y-71097876D01*
X153405908Y-71157483D01*
X153456202Y-71292328D01*
X153456206Y-71292335D01*
X153542452Y-71407544D01*
X153542455Y-71407547D01*
X153657664Y-71493793D01*
X153657671Y-71493797D01*
X153792517Y-71544091D01*
X153792516Y-71544091D01*
X153799444Y-71544835D01*
X153852127Y-71550500D01*
X154747872Y-71550499D01*
X154807483Y-71544091D01*
X154942331Y-71493796D01*
X155057546Y-71407546D01*
X155100734Y-71349854D01*
X155156667Y-71307984D01*
X155226359Y-71303000D01*
X155287682Y-71336485D01*
X155299263Y-71349850D01*
X155342454Y-71407546D01*
X155371524Y-71429308D01*
X155457664Y-71493793D01*
X155457671Y-71493797D01*
X155592517Y-71544091D01*
X155592516Y-71544091D01*
X155599444Y-71544835D01*
X155652127Y-71550500D01*
X156547872Y-71550499D01*
X156607483Y-71544091D01*
X156742331Y-71493796D01*
X156857546Y-71407546D01*
X156943796Y-71292331D01*
X156994091Y-71157483D01*
X157000500Y-71097873D01*
X157000499Y-70794229D01*
X157020183Y-70727192D01*
X157072987Y-70681437D01*
X157142146Y-70671493D01*
X157205701Y-70700518D01*
X157242205Y-70755226D01*
X157264638Y-70822924D01*
X157264642Y-70822933D01*
X157355971Y-70970999D01*
X157355974Y-70971003D01*
X157478999Y-71094028D01*
X157480183Y-71094758D01*
X157480823Y-71095470D01*
X157484664Y-71098507D01*
X157484145Y-71099163D01*
X157526906Y-71146708D01*
X157538125Y-71215671D01*
X157510279Y-71279752D01*
X157484877Y-71301762D01*
X157484977Y-71301888D01*
X157482177Y-71304101D01*
X157480184Y-71305829D01*
X157479315Y-71306364D01*
X157479309Y-71306369D01*
X157356370Y-71429308D01*
X157265096Y-71577285D01*
X157265094Y-71577290D01*
X157210407Y-71742326D01*
X157200000Y-71844184D01*
X157200000Y-71887500D01*
X159600000Y-71887500D01*
X159600000Y-71844197D01*
X159599999Y-71844184D01*
X159589592Y-71742326D01*
X159534905Y-71577290D01*
X159534903Y-71577285D01*
X159443629Y-71429308D01*
X159320690Y-71306369D01*
X159320685Y-71306365D01*
X159319822Y-71305833D01*
X159319353Y-71305312D01*
X159315023Y-71301888D01*
X159315608Y-71301148D01*
X159273096Y-71253886D01*
X159261873Y-71184924D01*
X159289716Y-71120841D01*
X159315398Y-71098586D01*
X159315336Y-71098507D01*
X159317106Y-71097107D01*
X159319820Y-71094755D01*
X159321003Y-71094026D01*
X159444026Y-70971003D01*
X159535362Y-70822925D01*
X159590087Y-70657775D01*
X159600500Y-70555848D01*
X159600500Y-69969152D01*
X159590087Y-69867225D01*
X159535362Y-69702075D01*
X159535358Y-69702069D01*
X159535357Y-69702066D01*
X159444028Y-69554000D01*
X159444025Y-69553996D01*
X159321003Y-69430974D01*
X159320999Y-69430971D01*
X159172933Y-69339642D01*
X159172927Y-69339639D01*
X159172925Y-69339638D01*
X159104813Y-69317068D01*
X159007776Y-69284913D01*
X158905855Y-69274500D01*
X158905848Y-69274500D01*
X158312597Y-69274500D01*
X158245558Y-69254815D01*
X158224916Y-69238181D01*
X157825090Y-68838355D01*
X157825088Y-68838352D01*
X157706217Y-68719481D01*
X157706209Y-68719475D01*
X157608184Y-68662881D01*
X157608182Y-68662880D01*
X157569290Y-68640425D01*
X157569287Y-68640423D01*
X157508193Y-68624053D01*
X157416557Y-68599499D01*
X157258443Y-68599499D01*
X157250847Y-68599499D01*
X157250831Y-68599500D01*
X157124500Y-68599500D01*
X157057461Y-68579815D01*
X157011706Y-68527011D01*
X157000500Y-68475502D01*
X157000499Y-68400099D01*
X157020183Y-68333059D01*
X157036813Y-68312421D01*
X157730520Y-67618716D01*
X157730520Y-67618715D01*
X157780520Y-67568716D01*
X157780521Y-67568713D01*
X158387417Y-66961819D01*
X158448740Y-66928334D01*
X158475098Y-66925500D01*
X158905843Y-66925500D01*
X158905848Y-66925500D01*
X159007775Y-66915087D01*
X159172925Y-66860362D01*
X159321003Y-66769026D01*
X159444026Y-66646003D01*
X159535362Y-66497925D01*
X159590087Y-66332775D01*
X159600500Y-66230848D01*
X159600500Y-65644152D01*
X159590087Y-65542225D01*
X159535362Y-65377075D01*
X159535358Y-65377069D01*
X159535357Y-65377066D01*
X159444028Y-65229000D01*
X159444025Y-65228996D01*
X159321003Y-65105974D01*
X159320995Y-65105968D01*
X159319812Y-65105238D01*
X159319171Y-65104525D01*
X159315336Y-65101493D01*
X159315854Y-65100837D01*
X159273091Y-65053287D01*
X159261875Y-64984323D01*
X159289723Y-64920243D01*
X159315123Y-64898238D01*
X159315023Y-64898112D01*
X159317842Y-64895882D01*
X159319832Y-64894159D01*
X159320692Y-64893628D01*
X159443629Y-64770691D01*
X159534903Y-64622714D01*
X159534905Y-64622709D01*
X159589592Y-64457673D01*
X159599999Y-64355815D01*
X159600000Y-64355802D01*
X159600000Y-64312500D01*
X158524000Y-64312500D01*
X158456961Y-64292815D01*
X158411206Y-64240011D01*
X158400000Y-64188500D01*
X158400000Y-64062500D01*
X158274000Y-64062500D01*
X158206961Y-64042815D01*
X158161206Y-63990011D01*
X158150000Y-63938500D01*
X158150000Y-63812500D01*
X158650000Y-63812500D01*
X159600000Y-63812500D01*
X159600000Y-63769197D01*
X159599999Y-63769184D01*
X159589592Y-63667326D01*
X159534905Y-63502290D01*
X159534903Y-63502285D01*
X159443629Y-63354308D01*
X159320691Y-63231370D01*
X159172714Y-63140096D01*
X159172709Y-63140094D01*
X159007673Y-63085407D01*
X158905815Y-63075000D01*
X158650000Y-63075000D01*
X158650000Y-63812500D01*
X158150000Y-63812500D01*
X158150000Y-63075000D01*
X157894184Y-63075000D01*
X157792326Y-63085407D01*
X157627290Y-63140094D01*
X157627285Y-63140096D01*
X157479311Y-63231368D01*
X157362180Y-63348499D01*
X157300857Y-63381983D01*
X157231165Y-63376999D01*
X157175232Y-63335127D01*
X157150815Y-63269663D01*
X157150499Y-63260834D01*
X157150499Y-61391964D01*
X157139886Y-61272582D01*
X157083909Y-61076951D01*
X156989698Y-60896593D01*
X156901800Y-60788794D01*
X156861109Y-60738890D01*
X156703409Y-60610304D01*
X156703410Y-60610304D01*
X156703407Y-60610302D01*
X156523049Y-60516091D01*
X156523048Y-60516090D01*
X156523045Y-60516089D01*
X156405829Y-60482550D01*
X156327418Y-60460114D01*
X156327415Y-60460113D01*
X156327413Y-60460113D01*
X156261102Y-60454217D01*
X156208037Y-60449500D01*
X156208032Y-60449500D01*
X155091971Y-60449500D01*
X155091965Y-60449500D01*
X155091964Y-60449501D01*
X155080316Y-60450536D01*
X154972584Y-60460113D01*
X154776954Y-60516089D01*
X154686772Y-60563196D01*
X154596593Y-60610302D01*
X154596591Y-60610303D01*
X154596590Y-60610304D01*
X154438890Y-60738890D01*
X154310304Y-60896590D01*
X154310302Y-60896593D01*
X154263196Y-60986772D01*
X154216089Y-61076954D01*
X154177676Y-61211206D01*
X154163271Y-61261551D01*
X154160114Y-61272583D01*
X154160113Y-61272586D01*
X154149500Y-61391966D01*
X154149500Y-62125500D01*
X154129815Y-62192539D01*
X154077011Y-62238294D01*
X154025500Y-62249500D01*
X151099097Y-62249500D01*
X151032058Y-62229815D01*
X150986303Y-62177011D01*
X150976359Y-62107853D01*
X151005384Y-62044297D01*
X151011416Y-62037819D01*
X151345344Y-61703891D01*
X151880520Y-61168716D01*
X151959577Y-61031785D01*
X152000501Y-60879057D01*
X152000501Y-60720942D01*
X152000501Y-60713347D01*
X152000500Y-60713329D01*
X152000500Y-59009797D01*
X152020185Y-58942758D01*
X152059403Y-58904258D01*
X152118656Y-58867712D01*
X152242712Y-58743656D01*
X152334814Y-58594334D01*
X152389999Y-58427797D01*
X152400500Y-58325009D01*
X152400499Y-57274992D01*
X152389999Y-57172203D01*
X152334814Y-57005666D01*
X152242712Y-56856344D01*
X152118656Y-56732288D01*
X151984436Y-56649501D01*
X151969336Y-56640187D01*
X151969331Y-56640185D01*
X151967862Y-56639698D01*
X151802797Y-56585001D01*
X151802795Y-56585000D01*
X151700010Y-56574500D01*
X151099998Y-56574500D01*
X151099980Y-56574501D01*
X150997203Y-56585000D01*
X150997200Y-56585001D01*
X150830668Y-56640185D01*
X150830663Y-56640187D01*
X150681342Y-56732289D01*
X150557288Y-56856343D01*
X150557283Y-56856349D01*
X150555241Y-56859661D01*
X150553247Y-56861453D01*
X150552807Y-56862011D01*
X150552711Y-56861935D01*
X150503291Y-56906383D01*
X150434328Y-56917602D01*
X150370247Y-56889755D01*
X150344168Y-56859656D01*
X150342319Y-56856659D01*
X150342316Y-56856655D01*
X150218345Y-56732684D01*
X150069124Y-56640643D01*
X150069119Y-56640641D01*
X149902697Y-56585494D01*
X149902690Y-56585493D01*
X149799986Y-56575000D01*
X149750000Y-56575000D01*
X149750000Y-59024999D01*
X149799972Y-59024999D01*
X149799986Y-59024998D01*
X149902697Y-59014505D01*
X150069119Y-58959358D01*
X150069124Y-58959356D01*
X150218345Y-58867315D01*
X150342318Y-58743342D01*
X150344165Y-58740348D01*
X150345969Y-58738724D01*
X150346798Y-58737677D01*
X150346976Y-58737818D01*
X150396110Y-58693621D01*
X150465073Y-58682396D01*
X150529156Y-58710236D01*
X150555243Y-58740341D01*
X150557288Y-58743656D01*
X150681344Y-58867712D01*
X150740596Y-58904258D01*
X150787321Y-58956204D01*
X150799500Y-59009797D01*
X150799500Y-59456344D01*
X150779815Y-59523383D01*
X150727011Y-59569138D01*
X150657853Y-59579082D01*
X150597813Y-59552991D01*
X150449025Y-59433392D01*
X150449022Y-59433390D01*
X150278523Y-59348831D01*
X150093824Y-59302897D01*
X150051097Y-59300000D01*
X149600000Y-59300000D01*
X149600000Y-60426000D01*
X149580315Y-60493039D01*
X149527511Y-60538794D01*
X149476000Y-60550000D01*
X149350000Y-60550000D01*
X149350000Y-60676000D01*
X149330315Y-60743039D01*
X149277511Y-60788794D01*
X149226000Y-60800000D01*
X147850000Y-60800000D01*
X147850000Y-61001096D01*
X147852897Y-61043824D01*
X147898831Y-61228523D01*
X147983390Y-61399022D01*
X147983392Y-61399025D01*
X148102630Y-61547364D01*
X148171884Y-61603031D01*
X148211803Y-61660375D01*
X148214383Y-61730197D01*
X148178805Y-61790329D01*
X148171885Y-61796326D01*
X148102276Y-61852280D01*
X147982969Y-62000704D01*
X147982967Y-62000707D01*
X147898360Y-62171302D01*
X147852400Y-62356107D01*
X147851557Y-62368541D01*
X147849861Y-62393561D01*
X147849500Y-62398879D01*
X147849500Y-63301122D01*
X147849501Y-63301125D01*
X147852399Y-63343886D01*
X147852399Y-63343887D01*
X147898359Y-63528694D01*
X147947536Y-63627849D01*
X147959688Y-63696654D01*
X147932712Y-63761106D01*
X147924129Y-63770625D01*
X147406299Y-64288456D01*
X147344976Y-64321941D01*
X147275285Y-64316957D01*
X147219351Y-64275086D01*
X147202895Y-64245320D01*
X147197063Y-64230170D01*
X147194091Y-64202517D01*
X147143796Y-64067669D01*
X147124686Y-64042141D01*
X147118519Y-64026120D01*
X147117009Y-64007719D01*
X147110558Y-63990423D01*
X147113899Y-63969801D01*
X147112807Y-63956484D01*
X147117478Y-63947711D01*
X147119679Y-63934128D01*
X147162051Y-63831835D01*
X147188416Y-63699292D01*
X147200500Y-63638543D01*
X147200500Y-63441456D01*
X147162052Y-63248170D01*
X147162051Y-63248169D01*
X147162051Y-63248165D01*
X147128117Y-63166240D01*
X147086635Y-63066092D01*
X147086633Y-63066088D01*
X147086632Y-63066086D01*
X147054427Y-63017888D01*
X147025029Y-62973891D01*
X147004151Y-62907214D01*
X147022635Y-62839834D01*
X147025029Y-62836109D01*
X147079591Y-62754451D01*
X147086632Y-62743914D01*
X147162051Y-62561835D01*
X147182795Y-62457548D01*
X147200500Y-62368543D01*
X147200500Y-62171456D01*
X147162052Y-61978170D01*
X147162051Y-61978169D01*
X147162051Y-61978165D01*
X147149503Y-61947872D01*
X147086635Y-61796092D01*
X147086633Y-61796088D01*
X147086632Y-61796086D01*
X147025029Y-61703891D01*
X147004151Y-61637214D01*
X147022635Y-61569834D01*
X147025029Y-61566109D01*
X147047317Y-61532753D01*
X147086632Y-61473914D01*
X147162051Y-61291835D01*
X147187122Y-61165796D01*
X147200500Y-61098543D01*
X147200500Y-60901456D01*
X147162052Y-60708170D01*
X147162051Y-60708169D01*
X147162051Y-60708165D01*
X147096745Y-60550500D01*
X147086635Y-60526092D01*
X147086633Y-60526088D01*
X147086632Y-60526086D01*
X147025029Y-60433891D01*
X147004151Y-60367214D01*
X147022635Y-60299834D01*
X147025029Y-60296109D01*
X147074457Y-60222135D01*
X147086632Y-60203914D01*
X147105864Y-60157483D01*
X147130129Y-60098903D01*
X147850000Y-60098903D01*
X147850000Y-60300000D01*
X149100000Y-60300000D01*
X149100000Y-59300000D01*
X148648903Y-59300000D01*
X148606175Y-59302897D01*
X148421476Y-59348831D01*
X148250977Y-59433390D01*
X148250974Y-59433392D01*
X148102633Y-59552632D01*
X148102632Y-59552633D01*
X147983392Y-59700974D01*
X147983390Y-59700977D01*
X147898831Y-59871476D01*
X147852897Y-60056175D01*
X147850000Y-60098903D01*
X147130129Y-60098903D01*
X147150654Y-60049351D01*
X147162049Y-60021839D01*
X147162051Y-60021835D01*
X147181465Y-59924234D01*
X147200500Y-59828543D01*
X147200500Y-59631456D01*
X147162052Y-59438170D01*
X147162051Y-59438169D01*
X147162051Y-59438165D01*
X147148237Y-59404815D01*
X147086635Y-59256092D01*
X147086633Y-59256088D01*
X147086632Y-59256086D01*
X147025029Y-59163891D01*
X147004151Y-59097214D01*
X147022635Y-59029834D01*
X147025029Y-59026109D01*
X147055748Y-58980135D01*
X147086632Y-58933914D01*
X147162051Y-58751835D01*
X147183776Y-58642616D01*
X147200500Y-58558543D01*
X147200500Y-58361456D01*
X147193245Y-58324986D01*
X148500001Y-58324986D01*
X148510494Y-58427697D01*
X148565641Y-58594119D01*
X148565643Y-58594124D01*
X148657684Y-58743345D01*
X148781654Y-58867315D01*
X148930875Y-58959356D01*
X148930880Y-58959358D01*
X149097302Y-59014505D01*
X149097309Y-59014506D01*
X149200019Y-59024999D01*
X149249999Y-59024998D01*
X149250000Y-59024998D01*
X149250000Y-58050000D01*
X148500001Y-58050000D01*
X148500001Y-58324986D01*
X147193245Y-58324986D01*
X147162052Y-58168170D01*
X147162051Y-58168169D01*
X147162051Y-58168165D01*
X147156278Y-58154228D01*
X147111487Y-58046090D01*
X147086633Y-57986088D01*
X147086628Y-57986079D01*
X146977139Y-57822218D01*
X146977136Y-57822214D01*
X146837785Y-57682863D01*
X146837781Y-57682860D01*
X146673920Y-57573371D01*
X146673907Y-57573364D01*
X146491839Y-57497950D01*
X146491829Y-57497947D01*
X146298543Y-57459500D01*
X146298541Y-57459500D01*
X146101459Y-57459500D01*
X146101457Y-57459500D01*
X145908170Y-57497947D01*
X145908160Y-57497950D01*
X145726092Y-57573364D01*
X145726079Y-57573371D01*
X145562218Y-57682860D01*
X145562214Y-57682863D01*
X145422863Y-57822214D01*
X145422860Y-57822218D01*
X145313371Y-57986079D01*
X145313364Y-57986092D01*
X145237950Y-58168160D01*
X145237947Y-58168170D01*
X145199500Y-58361456D01*
X145199500Y-58361459D01*
X145199500Y-58558541D01*
X145199500Y-58558543D01*
X145199499Y-58558543D01*
X145237947Y-58751829D01*
X145237950Y-58751839D01*
X145311302Y-58928926D01*
X145313368Y-58933914D01*
X145349792Y-58988427D01*
X145374971Y-59026110D01*
X145395848Y-59092787D01*
X145377363Y-59160167D01*
X145374971Y-59163890D01*
X145313366Y-59256089D01*
X145237950Y-59438160D01*
X145237947Y-59438170D01*
X145199500Y-59631456D01*
X145199500Y-59631459D01*
X145199500Y-59828541D01*
X145199500Y-59828543D01*
X145199499Y-59828543D01*
X145237947Y-60021829D01*
X145237950Y-60021839D01*
X145294137Y-60157486D01*
X145313368Y-60203914D01*
X145325543Y-60222135D01*
X145374971Y-60296110D01*
X145395848Y-60362787D01*
X145377363Y-60430167D01*
X145374971Y-60433890D01*
X145313366Y-60526089D01*
X145237950Y-60708160D01*
X145237947Y-60708170D01*
X145199500Y-60901456D01*
X145199500Y-61098545D01*
X145218081Y-61191959D01*
X145211854Y-61261551D01*
X145184145Y-61303831D01*
X142474298Y-64013681D01*
X142412975Y-64047166D01*
X142386617Y-64050000D01*
X141699000Y-64050000D01*
X141631961Y-64030315D01*
X141586206Y-63977511D01*
X141575000Y-63926000D01*
X141575000Y-63800000D01*
X141449000Y-63800000D01*
X141381961Y-63780315D01*
X141336206Y-63727511D01*
X141325000Y-63676000D01*
X141325000Y-63550000D01*
X141825000Y-63550000D01*
X142524999Y-63550000D01*
X142524999Y-63501692D01*
X142524998Y-63501677D01*
X142514855Y-63402392D01*
X142461547Y-63241518D01*
X142461542Y-63241507D01*
X142372575Y-63097271D01*
X142372572Y-63097267D01*
X142252732Y-62977427D01*
X142252728Y-62977424D01*
X142108492Y-62888457D01*
X142108481Y-62888452D01*
X141947606Y-62835144D01*
X141848322Y-62825000D01*
X141825000Y-62825000D01*
X141825000Y-63550000D01*
X141325000Y-63550000D01*
X141325000Y-62829957D01*
X141168364Y-62846419D01*
X141041518Y-62888452D01*
X141041507Y-62888457D01*
X140897271Y-62977424D01*
X140897265Y-62977428D01*
X140888031Y-62986663D01*
X140860270Y-63001820D01*
X140833384Y-63018499D01*
X140829827Y-63018442D01*
X140826707Y-63020146D01*
X140795156Y-63017888D01*
X140763523Y-63017383D01*
X140760221Y-63015388D01*
X140757015Y-63015159D01*
X140745192Y-63006307D01*
X140712672Y-62986660D01*
X140703044Y-62977032D01*
X140703040Y-62977029D01*
X140558705Y-62888001D01*
X140558699Y-62887998D01*
X140558697Y-62887997D01*
X140524035Y-62876511D01*
X140470409Y-62858741D01*
X140468450Y-62857384D01*
X140466077Y-62857215D01*
X140439886Y-62837607D01*
X140412964Y-62818967D01*
X140412049Y-62816767D01*
X140410145Y-62815342D01*
X140398711Y-62784685D01*
X140386142Y-62754451D01*
X140386561Y-62752107D01*
X140385730Y-62749877D01*
X140392685Y-62717909D01*
X140398457Y-62685676D01*
X140400235Y-62683206D01*
X140400584Y-62681605D01*
X140421729Y-62653358D01*
X140438274Y-62636813D01*
X140499597Y-62603332D01*
X140525951Y-62600499D01*
X140737871Y-62600499D01*
X140737872Y-62600499D01*
X140788026Y-62595107D01*
X140797484Y-62594091D01*
X140801474Y-62593148D01*
X140858515Y-62593145D01*
X140862514Y-62594090D01*
X140862517Y-62594091D01*
X140922127Y-62600500D01*
X141237872Y-62600499D01*
X141297483Y-62594091D01*
X141432331Y-62543796D01*
X141547546Y-62457546D01*
X141553056Y-62450186D01*
X141556710Y-62447450D01*
X141558608Y-62443296D01*
X141584427Y-62426703D01*
X141608991Y-62408316D01*
X141614618Y-62407300D01*
X141617386Y-62405522D01*
X141652321Y-62400499D01*
X141682120Y-62400499D01*
X141682127Y-62400500D01*
X142027872Y-62400499D01*
X142087483Y-62394091D01*
X142087489Y-62394088D01*
X142095025Y-62392308D01*
X142095321Y-62393561D01*
X142157063Y-62389142D01*
X142170655Y-62393132D01*
X142172627Y-62393598D01*
X142232155Y-62399999D01*
X142232172Y-62400000D01*
X142280000Y-62400000D01*
X142280000Y-62362694D01*
X142299685Y-62295655D01*
X142329690Y-62263426D01*
X142337546Y-62257546D01*
X142423796Y-62142331D01*
X142474091Y-62007483D01*
X142480500Y-61947873D01*
X142480499Y-61323998D01*
X142483049Y-61315313D01*
X142481761Y-61306353D01*
X142492738Y-61282316D01*
X142500183Y-61256961D01*
X142507025Y-61251032D01*
X142510786Y-61242797D01*
X142533017Y-61228510D01*
X142552987Y-61211206D01*
X142563502Y-61208918D01*
X142569564Y-61205023D01*
X142604499Y-61200000D01*
X142656000Y-61200000D01*
X142723039Y-61219685D01*
X142768794Y-61272489D01*
X142780000Y-61324000D01*
X142780000Y-62400000D01*
X142827828Y-62400000D01*
X142827844Y-62399999D01*
X142887372Y-62393598D01*
X142887379Y-62393596D01*
X143022086Y-62343354D01*
X143022093Y-62343350D01*
X143137187Y-62257190D01*
X143137190Y-62257187D01*
X143223350Y-62142093D01*
X143223353Y-62142088D01*
X143241114Y-62094467D01*
X143282985Y-62038532D01*
X143348448Y-62014114D01*
X143381488Y-62016181D01*
X143400000Y-62019863D01*
X143400000Y-61216988D01*
X143409940Y-61234205D01*
X143465795Y-61290060D01*
X143534204Y-61329556D01*
X143610504Y-61350000D01*
X143689496Y-61350000D01*
X143765796Y-61329556D01*
X143834205Y-61290060D01*
X143890060Y-61234205D01*
X143900000Y-61216988D01*
X143900000Y-62019862D01*
X143941690Y-62011569D01*
X143941692Y-62011569D01*
X144123671Y-61936192D01*
X144123684Y-61936185D01*
X144287462Y-61826751D01*
X144287466Y-61826748D01*
X144426748Y-61687466D01*
X144426751Y-61687462D01*
X144536185Y-61523684D01*
X144536192Y-61523671D01*
X144611569Y-61341693D01*
X144611572Y-61341681D01*
X144649999Y-61148495D01*
X144650000Y-61148492D01*
X144650000Y-60750000D01*
X143950000Y-60750000D01*
X143950000Y-60250000D01*
X144650000Y-60250000D01*
X144650000Y-59851508D01*
X144649999Y-59851504D01*
X144611572Y-59658318D01*
X144611569Y-59658306D01*
X144536192Y-59476328D01*
X144536185Y-59476315D01*
X144426751Y-59312537D01*
X144426748Y-59312533D01*
X144287466Y-59173251D01*
X144287462Y-59173248D01*
X144123684Y-59063814D01*
X144123671Y-59063807D01*
X143941691Y-58988429D01*
X143941683Y-58988427D01*
X143900000Y-58980135D01*
X143900000Y-59783011D01*
X143890060Y-59765795D01*
X143834205Y-59709940D01*
X143765796Y-59670444D01*
X143689496Y-59650000D01*
X143610504Y-59650000D01*
X143534204Y-59670444D01*
X143465795Y-59709940D01*
X143409940Y-59765795D01*
X143400000Y-59783011D01*
X143400000Y-58980136D01*
X143399999Y-58980135D01*
X143358316Y-58988427D01*
X143358308Y-58988429D01*
X143176328Y-59063807D01*
X143176315Y-59063814D01*
X143012537Y-59173248D01*
X143012533Y-59173251D01*
X142873251Y-59312533D01*
X142873248Y-59312537D01*
X142763814Y-59476315D01*
X142763809Y-59476324D01*
X142759866Y-59485845D01*
X142716023Y-59540247D01*
X142649728Y-59562310D01*
X142582030Y-59545029D01*
X142576597Y-59541351D01*
X142442136Y-59463719D01*
X142362988Y-59442512D01*
X142295766Y-59424500D01*
X142295765Y-59424500D01*
X142268500Y-59424500D01*
X142201461Y-59404815D01*
X142155706Y-59352011D01*
X142144500Y-59300500D01*
X142144500Y-58638940D01*
X142164185Y-58571901D01*
X142180820Y-58551258D01*
X142221786Y-58510292D01*
X142221789Y-58510289D01*
X142309394Y-58379179D01*
X142318911Y-58356204D01*
X142339743Y-58305909D01*
X142369737Y-58233497D01*
X142400500Y-58078842D01*
X142400500Y-57921158D01*
X142400500Y-57921155D01*
X142400499Y-57921153D01*
X142380819Y-57822218D01*
X142369737Y-57766503D01*
X142368135Y-57762635D01*
X142309397Y-57620827D01*
X142309390Y-57620814D01*
X142221789Y-57489711D01*
X142221786Y-57489707D01*
X142110292Y-57378213D01*
X142110288Y-57378210D01*
X141979185Y-57290609D01*
X141979172Y-57290602D01*
X141833501Y-57230264D01*
X141833489Y-57230261D01*
X141678845Y-57199500D01*
X141678842Y-57199500D01*
X141521158Y-57199500D01*
X141521155Y-57199500D01*
X141366510Y-57230261D01*
X141366498Y-57230264D01*
X141220827Y-57290602D01*
X141220814Y-57290609D01*
X141089711Y-57378210D01*
X141089707Y-57378213D01*
X140978213Y-57489707D01*
X140978210Y-57489711D01*
X140890609Y-57620814D01*
X140890602Y-57620827D01*
X140830264Y-57766498D01*
X140830261Y-57766510D01*
X140799500Y-57921153D01*
X140799500Y-58078846D01*
X140830261Y-58233489D01*
X140830264Y-58233501D01*
X140890602Y-58379172D01*
X140890610Y-58379187D01*
X140922601Y-58427063D01*
X140943480Y-58493740D01*
X140943500Y-58495955D01*
X140943500Y-59502902D01*
X140923815Y-59569941D01*
X140871011Y-59615696D01*
X140801853Y-59625640D01*
X140738297Y-59596615D01*
X140731819Y-59590583D01*
X138330590Y-57189355D01*
X138330588Y-57189352D01*
X138211717Y-57070481D01*
X138211709Y-57070475D01*
X138099455Y-57005666D01*
X138099455Y-57005665D01*
X138099452Y-57005665D01*
X138074785Y-56991423D01*
X137922057Y-56950499D01*
X137763943Y-56950499D01*
X137756347Y-56950499D01*
X137756331Y-56950500D01*
X136134000Y-56950500D01*
X136066961Y-56930815D01*
X136021206Y-56878011D01*
X136010000Y-56826500D01*
X136010000Y-56600000D01*
X135310000Y-56600000D01*
X135310000Y-56100000D01*
X136010000Y-56100000D01*
X136010000Y-55851508D01*
X136009999Y-55851504D01*
X142650000Y-55851504D01*
X142650000Y-56100000D01*
X143350000Y-56100000D01*
X143350000Y-56600000D01*
X142650000Y-56600000D01*
X142650000Y-56848495D01*
X142688427Y-57041681D01*
X142688430Y-57041693D01*
X142763807Y-57223671D01*
X142763814Y-57223684D01*
X142873248Y-57387462D01*
X142873251Y-57387466D01*
X143012533Y-57526748D01*
X143012537Y-57526751D01*
X143176315Y-57636185D01*
X143176328Y-57636192D01*
X143358308Y-57711569D01*
X143400000Y-57719862D01*
X143400000Y-56916988D01*
X143409940Y-56934205D01*
X143465795Y-56990060D01*
X143534204Y-57029556D01*
X143610504Y-57050000D01*
X143689496Y-57050000D01*
X143765796Y-57029556D01*
X143834205Y-56990060D01*
X143890060Y-56934205D01*
X143900000Y-56916988D01*
X143900000Y-57719862D01*
X143941690Y-57711569D01*
X143941692Y-57711569D01*
X144123671Y-57636192D01*
X144123684Y-57636185D01*
X144287462Y-57526751D01*
X144287466Y-57526748D01*
X144426748Y-57387466D01*
X144426751Y-57387462D01*
X144501888Y-57275013D01*
X148500000Y-57275013D01*
X148500000Y-57550000D01*
X149250000Y-57550000D01*
X149250000Y-56575000D01*
X149249999Y-56574999D01*
X149200029Y-56575000D01*
X149200011Y-56575001D01*
X149097302Y-56585494D01*
X148930880Y-56640641D01*
X148930875Y-56640643D01*
X148781654Y-56732684D01*
X148657684Y-56856654D01*
X148565643Y-57005875D01*
X148565641Y-57005880D01*
X148510494Y-57172302D01*
X148510493Y-57172309D01*
X148500000Y-57275013D01*
X144501888Y-57275013D01*
X144536185Y-57223684D01*
X144536194Y-57223668D01*
X144611569Y-57041693D01*
X144611572Y-57041681D01*
X144649999Y-56848495D01*
X144650000Y-56848492D01*
X144650000Y-56600000D01*
X143950000Y-56600000D01*
X143950000Y-56100000D01*
X144650000Y-56100000D01*
X144650000Y-55851508D01*
X144649999Y-55851504D01*
X144611572Y-55658318D01*
X144611569Y-55658306D01*
X144536192Y-55476328D01*
X144536185Y-55476315D01*
X144426751Y-55312537D01*
X144426748Y-55312533D01*
X144287466Y-55173251D01*
X144287462Y-55173248D01*
X144123684Y-55063814D01*
X144123671Y-55063807D01*
X143941691Y-54988429D01*
X143941683Y-54988427D01*
X143900000Y-54980135D01*
X143900000Y-55783011D01*
X143890060Y-55765795D01*
X143834205Y-55709940D01*
X143765796Y-55670444D01*
X143689496Y-55650000D01*
X143610504Y-55650000D01*
X143534204Y-55670444D01*
X143465795Y-55709940D01*
X143409940Y-55765795D01*
X143400000Y-55783011D01*
X143400000Y-54980136D01*
X143399999Y-54980135D01*
X143358316Y-54988427D01*
X143358308Y-54988429D01*
X143176328Y-55063807D01*
X143176315Y-55063814D01*
X143012537Y-55173248D01*
X143012533Y-55173251D01*
X142873251Y-55312533D01*
X142873248Y-55312537D01*
X142763814Y-55476315D01*
X142763807Y-55476328D01*
X142688430Y-55658306D01*
X142688427Y-55658318D01*
X142650000Y-55851504D01*
X136009999Y-55851504D01*
X135971572Y-55658318D01*
X135971569Y-55658306D01*
X135896192Y-55476328D01*
X135896185Y-55476315D01*
X135786751Y-55312537D01*
X135786748Y-55312533D01*
X135647466Y-55173251D01*
X135647462Y-55173248D01*
X135483684Y-55063814D01*
X135483671Y-55063807D01*
X135301691Y-54988429D01*
X135301683Y-54988427D01*
X135260000Y-54980135D01*
X135260000Y-55783011D01*
X135250060Y-55765795D01*
X135194205Y-55709940D01*
X135125796Y-55670444D01*
X135049496Y-55650000D01*
X134970504Y-55650000D01*
X134894204Y-55670444D01*
X134825795Y-55709940D01*
X134769940Y-55765795D01*
X134760000Y-55783011D01*
X134760000Y-54980136D01*
X134759999Y-54980135D01*
X134718316Y-54988427D01*
X134718308Y-54988429D01*
X134536328Y-55063807D01*
X134536315Y-55063814D01*
X134372537Y-55173248D01*
X134372533Y-55173251D01*
X134233251Y-55312533D01*
X134233248Y-55312537D01*
X134123814Y-55476315D01*
X134123807Y-55476328D01*
X134048430Y-55658306D01*
X134048427Y-55658318D01*
X134010000Y-55851504D01*
X134010000Y-56100000D01*
X134710000Y-56100000D01*
X134710000Y-56600000D01*
X134010000Y-56600000D01*
X134010000Y-56826500D01*
X133990315Y-56893539D01*
X133937511Y-56939294D01*
X133886000Y-56950500D01*
X132437929Y-56950500D01*
X132370890Y-56930815D01*
X132338663Y-56900811D01*
X132257547Y-56792455D01*
X132257544Y-56792452D01*
X132142335Y-56706206D01*
X132142328Y-56706202D01*
X132007482Y-56655908D01*
X132007483Y-56655908D01*
X131947883Y-56649501D01*
X131947881Y-56649500D01*
X131947873Y-56649500D01*
X131947864Y-56649500D01*
X131052129Y-56649500D01*
X131052123Y-56649501D01*
X130992516Y-56655908D01*
X130857671Y-56706202D01*
X130857664Y-56706206D01*
X130742455Y-56792452D01*
X130742453Y-56792454D01*
X130698952Y-56850563D01*
X130643018Y-56892433D01*
X130573326Y-56897416D01*
X130512004Y-56863929D01*
X130500420Y-56850561D01*
X130457186Y-56792809D01*
X130342093Y-56706649D01*
X130342086Y-56706645D01*
X130207379Y-56656403D01*
X130207372Y-56656401D01*
X130147844Y-56650000D01*
X129950000Y-56650000D01*
X129950000Y-57276000D01*
X129930315Y-57343039D01*
X129877511Y-57388794D01*
X129826000Y-57400000D01*
X129700000Y-57400000D01*
X129700000Y-57526000D01*
X129680315Y-57593039D01*
X129627511Y-57638794D01*
X129576000Y-57650000D01*
X128800000Y-57650000D01*
X128800000Y-57697844D01*
X128806401Y-57757372D01*
X128806403Y-57757379D01*
X128815462Y-57781669D01*
X128820445Y-57851361D01*
X128815462Y-57868331D01*
X128806403Y-57892620D01*
X128806401Y-57892627D01*
X128800000Y-57952155D01*
X128800000Y-58000000D01*
X129576000Y-58000000D01*
X129584685Y-58002550D01*
X129593647Y-58001262D01*
X129617687Y-58012240D01*
X129643039Y-58019685D01*
X129648966Y-58026525D01*
X129657203Y-58030287D01*
X129671492Y-58052521D01*
X129688794Y-58072489D01*
X129691081Y-58083003D01*
X129694977Y-58089065D01*
X129700000Y-58124000D01*
X129700000Y-58175500D01*
X129680315Y-58242539D01*
X129627511Y-58288294D01*
X129576000Y-58299500D01*
X129252130Y-58299500D01*
X129252123Y-58299501D01*
X129192516Y-58305908D01*
X129057671Y-58356202D01*
X129057668Y-58356204D01*
X129032204Y-58375267D01*
X128966739Y-58399684D01*
X128957893Y-58400000D01*
X128800000Y-58400000D01*
X128800000Y-58447844D01*
X128806401Y-58507372D01*
X128806403Y-58507383D01*
X128824519Y-58555953D01*
X128829503Y-58625644D01*
X128824520Y-58642616D01*
X128805910Y-58692513D01*
X128805909Y-58692517D01*
X128799500Y-58752127D01*
X128799500Y-58752134D01*
X128799500Y-58752135D01*
X128799500Y-59247870D01*
X128799501Y-59247876D01*
X128805909Y-59307484D01*
X128814929Y-59331670D01*
X128819911Y-59401361D01*
X128814929Y-59418330D01*
X128805910Y-59442512D01*
X128805909Y-59442515D01*
X128805909Y-59442517D01*
X128799500Y-59502127D01*
X128799500Y-59502134D01*
X128799500Y-59502135D01*
X128799500Y-60097870D01*
X128799501Y-60097876D01*
X128805908Y-60157483D01*
X128856202Y-60292328D01*
X128856206Y-60292335D01*
X128942452Y-60407544D01*
X128942455Y-60407547D01*
X129057664Y-60493793D01*
X129057671Y-60493797D01*
X129192517Y-60544091D01*
X129192516Y-60544091D01*
X129199444Y-60544835D01*
X129252127Y-60550500D01*
X130147872Y-60550499D01*
X130207483Y-60544091D01*
X130342331Y-60493796D01*
X130457546Y-60407546D01*
X130500734Y-60349854D01*
X130556667Y-60307984D01*
X130626359Y-60303000D01*
X130687682Y-60336485D01*
X130699263Y-60349850D01*
X130742454Y-60407546D01*
X130772672Y-60430167D01*
X130857664Y-60493793D01*
X130857671Y-60493797D01*
X130992517Y-60544091D01*
X130992516Y-60544091D01*
X130999444Y-60544835D01*
X131052127Y-60550500D01*
X131947872Y-60550499D01*
X132007483Y-60544091D01*
X132142331Y-60493796D01*
X132257546Y-60407546D01*
X132343796Y-60292331D01*
X132394091Y-60157483D01*
X132400500Y-60097873D01*
X132400499Y-59502128D01*
X132394091Y-59442517D01*
X132385070Y-59418333D01*
X132380085Y-59348644D01*
X132385066Y-59331677D01*
X132394091Y-59307483D01*
X132400500Y-59247873D01*
X132400499Y-58924499D01*
X132420183Y-58857461D01*
X132472987Y-58811706D01*
X132524499Y-58800500D01*
X134548621Y-58800500D01*
X134615660Y-58820185D01*
X134661415Y-58872989D01*
X134671359Y-58942147D01*
X134642334Y-59005703D01*
X134596073Y-59039061D01*
X134536328Y-59063807D01*
X134536315Y-59063814D01*
X134372537Y-59173248D01*
X134372533Y-59173251D01*
X134233251Y-59312533D01*
X134233248Y-59312537D01*
X134123814Y-59476315D01*
X134123807Y-59476328D01*
X134048430Y-59658306D01*
X134048427Y-59658318D01*
X134010000Y-59851504D01*
X134010000Y-60250000D01*
X134710000Y-60250000D01*
X134710000Y-60750000D01*
X134010000Y-60750000D01*
X134010000Y-61148495D01*
X134048427Y-61341681D01*
X134048430Y-61341693D01*
X134123807Y-61523671D01*
X134123814Y-61523684D01*
X134233248Y-61687462D01*
X134233251Y-61687466D01*
X134372533Y-61826748D01*
X134372537Y-61826751D01*
X134536315Y-61936185D01*
X134536328Y-61936192D01*
X134718308Y-62011569D01*
X134760000Y-62019862D01*
X134760000Y-61216988D01*
X134769940Y-61234205D01*
X134825795Y-61290060D01*
X134894204Y-61329556D01*
X134970504Y-61350000D01*
X135049496Y-61350000D01*
X135125796Y-61329556D01*
X135194205Y-61290060D01*
X135250060Y-61234205D01*
X135260000Y-61216988D01*
X135260000Y-62019862D01*
X135278511Y-62016181D01*
X135348102Y-62022408D01*
X135403280Y-62065271D01*
X135418884Y-62094465D01*
X135436645Y-62142086D01*
X135436649Y-62142093D01*
X135522809Y-62257187D01*
X135522812Y-62257190D01*
X135637906Y-62343350D01*
X135637913Y-62343354D01*
X135772620Y-62393596D01*
X135772627Y-62393598D01*
X135832155Y-62399999D01*
X135832172Y-62400000D01*
X135880000Y-62400000D01*
X135880000Y-61324000D01*
X135882550Y-61315314D01*
X135881262Y-61306353D01*
X135892240Y-61282312D01*
X135899685Y-61256961D01*
X135906525Y-61251033D01*
X135910287Y-61242797D01*
X135932521Y-61228507D01*
X135952489Y-61211206D01*
X135963003Y-61208918D01*
X135969065Y-61205023D01*
X136004000Y-61200000D01*
X136055500Y-61200000D01*
X136122539Y-61219685D01*
X136168294Y-61272489D01*
X136179500Y-61324000D01*
X136179500Y-61947870D01*
X136179501Y-61947876D01*
X136185908Y-62007483D01*
X136236202Y-62142328D01*
X136236203Y-62142329D01*
X136236204Y-62142331D01*
X136322454Y-62257546D01*
X136330308Y-62263425D01*
X136372180Y-62319356D01*
X136380000Y-62362694D01*
X136380000Y-62400000D01*
X136427828Y-62400000D01*
X136427844Y-62399999D01*
X136487375Y-62393598D01*
X136494926Y-62391814D01*
X136495315Y-62393462D01*
X136555624Y-62389140D01*
X136572387Y-62394060D01*
X136572511Y-62394088D01*
X136572517Y-62394091D01*
X136632127Y-62400500D01*
X136882120Y-62400499D01*
X136882127Y-62400500D01*
X137007679Y-62400499D01*
X137022894Y-62404966D01*
X137074717Y-62420183D01*
X137106942Y-62450185D01*
X137112447Y-62457539D01*
X137112452Y-62457543D01*
X137112454Y-62457546D01*
X137112457Y-62457548D01*
X137227664Y-62543793D01*
X137227673Y-62543798D01*
X137336314Y-62584318D01*
X137392248Y-62626189D01*
X137416666Y-62691653D01*
X137401815Y-62759926D01*
X137352410Y-62809332D01*
X137292983Y-62824500D01*
X137119163Y-62824500D01*
X137119144Y-62824501D01*
X137019792Y-62834650D01*
X137019789Y-62834651D01*
X136858805Y-62887996D01*
X136858794Y-62888001D01*
X136714459Y-62977029D01*
X136714453Y-62977033D01*
X136704824Y-62986663D01*
X136643500Y-63020146D01*
X136573808Y-63015159D01*
X136529465Y-62986660D01*
X136520232Y-62977427D01*
X136520228Y-62977424D01*
X136375992Y-62888457D01*
X136375981Y-62888452D01*
X136215106Y-62835144D01*
X136115822Y-62825000D01*
X136092500Y-62825000D01*
X136092500Y-63676000D01*
X136072815Y-63743039D01*
X136020011Y-63788794D01*
X135968500Y-63800000D01*
X135842500Y-63800000D01*
X135842500Y-63875500D01*
X135822815Y-63942539D01*
X135770011Y-63988294D01*
X135718500Y-63999500D01*
X127850098Y-63999500D01*
X127783059Y-63979815D01*
X127762417Y-63963181D01*
X127579551Y-63780315D01*
X127300912Y-63501677D01*
X134892500Y-63501677D01*
X134892500Y-63550000D01*
X135592500Y-63550000D01*
X135592500Y-62824999D01*
X135569193Y-62825000D01*
X135569174Y-62825001D01*
X135469892Y-62835144D01*
X135309018Y-62888452D01*
X135309007Y-62888457D01*
X135164771Y-62977424D01*
X135164767Y-62977427D01*
X135044927Y-63097267D01*
X135044924Y-63097271D01*
X134955957Y-63241507D01*
X134955952Y-63241518D01*
X134902644Y-63402393D01*
X134892500Y-63501677D01*
X127300912Y-63501677D01*
X127133756Y-63334521D01*
X127100272Y-63273199D01*
X127103507Y-63208523D01*
X127117246Y-63166243D01*
X127150500Y-62956287D01*
X127150500Y-62743713D01*
X127117246Y-62533757D01*
X127051557Y-62331588D01*
X126955051Y-62142184D01*
X126955049Y-62142181D01*
X126955048Y-62142179D01*
X126830109Y-61970213D01*
X126679786Y-61819890D01*
X126507820Y-61694951D01*
X126318414Y-61598444D01*
X126318413Y-61598443D01*
X126318412Y-61598443D01*
X126116243Y-61532754D01*
X126116241Y-61532753D01*
X126116240Y-61532753D01*
X125954957Y-61507208D01*
X125906287Y-61499500D01*
X125693713Y-61499500D01*
X125645042Y-61507208D01*
X125483760Y-61532753D01*
X125281585Y-61598444D01*
X125092179Y-61694951D01*
X124920213Y-61819890D01*
X124769890Y-61970213D01*
X124644951Y-62142179D01*
X124548444Y-62331585D01*
X124482753Y-62533760D01*
X124453587Y-62717909D01*
X124449500Y-62743713D01*
X124449500Y-62956287D01*
X124454311Y-62986660D01*
X124482753Y-63166239D01*
X124482753Y-63166241D01*
X124482754Y-63166243D01*
X124543860Y-63354308D01*
X124548444Y-63368414D01*
X124644951Y-63557820D01*
X124769890Y-63729786D01*
X124920213Y-63880109D01*
X125092182Y-64005050D01*
X125100946Y-64009516D01*
X125151742Y-64057491D01*
X125168536Y-64125312D01*
X125145998Y-64191447D01*
X125100946Y-64230484D01*
X125092182Y-64234949D01*
X124920213Y-64359890D01*
X124769890Y-64510213D01*
X124644951Y-64682179D01*
X124548444Y-64871585D01*
X124482753Y-65073760D01*
X124449500Y-65283713D01*
X124449500Y-65496286D01*
X124482753Y-65706239D01*
X124482753Y-65706241D01*
X124482754Y-65706243D01*
X124545785Y-65900233D01*
X124548444Y-65908414D01*
X124644951Y-66097820D01*
X124769890Y-66269786D01*
X124920213Y-66420109D01*
X125092179Y-66545048D01*
X125092181Y-66545049D01*
X125092184Y-66545051D01*
X125101493Y-66549794D01*
X125152290Y-66597766D01*
X125169087Y-66665587D01*
X125146552Y-66731722D01*
X125101505Y-66770760D01*
X125092446Y-66775376D01*
X125092440Y-66775380D01*
X125038282Y-66814727D01*
X125038282Y-66814728D01*
X125670591Y-67447037D01*
X125607007Y-67464075D01*
X125492993Y-67529901D01*
X125399901Y-67622993D01*
X125334075Y-67737007D01*
X125317037Y-67800591D01*
X124684728Y-67168282D01*
X124684727Y-67168282D01*
X124645380Y-67222439D01*
X124548904Y-67411782D01*
X124483242Y-67613869D01*
X124483242Y-67613872D01*
X124450000Y-67823753D01*
X124450000Y-68036246D01*
X124483242Y-68246127D01*
X124483242Y-68246130D01*
X124548904Y-68448217D01*
X124645375Y-68637550D01*
X124684728Y-68691716D01*
X125317037Y-68059408D01*
X125334075Y-68122993D01*
X125399901Y-68237007D01*
X125492993Y-68330099D01*
X125607007Y-68395925D01*
X125670590Y-68412962D01*
X125038282Y-69045269D01*
X125038282Y-69045270D01*
X125092452Y-69084626D01*
X125092451Y-69084626D01*
X125101495Y-69089234D01*
X125152292Y-69137208D01*
X125169087Y-69205029D01*
X125146550Y-69271164D01*
X125101499Y-69310202D01*
X125092182Y-69314949D01*
X124920213Y-69439890D01*
X124769890Y-69590213D01*
X124644951Y-69762179D01*
X124548444Y-69951585D01*
X124482753Y-70153760D01*
X124449500Y-70363713D01*
X124449500Y-70576286D01*
X124481842Y-70780489D01*
X124482754Y-70786243D01*
X124542786Y-70971003D01*
X124548444Y-70988414D01*
X124644951Y-71177820D01*
X124769890Y-71349786D01*
X124920213Y-71500109D01*
X125092182Y-71625050D01*
X125100946Y-71629516D01*
X125151742Y-71677491D01*
X125168536Y-71745312D01*
X125145998Y-71811447D01*
X125100946Y-71850484D01*
X125092182Y-71854949D01*
X124920213Y-71979890D01*
X124769890Y-72130213D01*
X124644951Y-72302179D01*
X124548444Y-72491585D01*
X124482753Y-72693760D01*
X124466263Y-72797874D01*
X124449500Y-72903713D01*
X124449500Y-73116287D01*
X124459534Y-73179644D01*
X124481948Y-73321158D01*
X124482754Y-73326243D01*
X124532337Y-73478844D01*
X124548444Y-73528414D01*
X124644951Y-73717820D01*
X124769890Y-73889786D01*
X124883430Y-74003326D01*
X124916915Y-74064649D01*
X124911931Y-74134341D01*
X124870059Y-74190274D01*
X124839083Y-74207189D01*
X124707669Y-74256203D01*
X124707664Y-74256206D01*
X124592455Y-74342452D01*
X124592452Y-74342455D01*
X124506206Y-74457664D01*
X124506202Y-74457671D01*
X124455908Y-74592517D01*
X124449501Y-74652116D01*
X124449500Y-74652135D01*
X124449500Y-76447870D01*
X124449501Y-76447876D01*
X124455908Y-76507483D01*
X124506202Y-76642328D01*
X124506206Y-76642335D01*
X124592452Y-76757544D01*
X124592455Y-76757547D01*
X124707664Y-76843793D01*
X124707671Y-76843797D01*
X124842517Y-76894091D01*
X124842516Y-76894091D01*
X124849444Y-76894835D01*
X124902127Y-76900500D01*
X125602904Y-76900499D01*
X125669942Y-76920183D01*
X125715697Y-76972987D01*
X125725641Y-77042146D01*
X125696616Y-77105702D01*
X125690584Y-77112180D01*
X125239584Y-77563181D01*
X125178261Y-77596666D01*
X125151903Y-77599500D01*
X122437180Y-77599500D01*
X122370141Y-77579815D01*
X122337913Y-77549811D01*
X122333662Y-77544132D01*
X122257546Y-77442454D01*
X122200167Y-77399500D01*
X122142335Y-77356206D01*
X122142328Y-77356202D01*
X122007482Y-77305908D01*
X122007483Y-77305908D01*
X121947883Y-77299501D01*
X121947881Y-77299500D01*
X121947873Y-77299500D01*
X121947865Y-77299500D01*
X120501440Y-77299500D01*
X120434401Y-77279815D01*
X120388646Y-77227011D01*
X120385258Y-77218833D01*
X120343797Y-77107671D01*
X120343793Y-77107664D01*
X120257547Y-76992455D01*
X120257544Y-76992452D01*
X120142335Y-76906206D01*
X120142328Y-76906202D01*
X120007482Y-76855908D01*
X120007483Y-76855908D01*
X119947883Y-76849501D01*
X119947881Y-76849500D01*
X119947873Y-76849500D01*
X119947864Y-76849500D01*
X118852129Y-76849500D01*
X118852123Y-76849501D01*
X118792516Y-76855908D01*
X118657671Y-76906202D01*
X118657664Y-76906206D01*
X118542455Y-76992452D01*
X118542452Y-76992455D01*
X118456206Y-77107664D01*
X118456203Y-77107670D01*
X118414741Y-77218834D01*
X118372869Y-77274767D01*
X118307405Y-77299184D01*
X118298559Y-77299500D01*
X116852129Y-77299500D01*
X116852123Y-77299501D01*
X116792516Y-77305908D01*
X116657671Y-77356202D01*
X116657664Y-77356206D01*
X116542455Y-77442452D01*
X116542452Y-77442455D01*
X116456206Y-77557664D01*
X116456202Y-77557671D01*
X116405908Y-77692517D01*
X116400740Y-77740590D01*
X116399501Y-77752123D01*
X116399500Y-77752135D01*
X115100500Y-77752135D01*
X115100500Y-58276966D01*
X115120185Y-58209927D01*
X115172989Y-58164172D01*
X115242147Y-58154228D01*
X115305703Y-58183253D01*
X115336220Y-58223164D01*
X115388903Y-58332562D01*
X115388905Y-58332565D01*
X115553265Y-58594143D01*
X115745880Y-58835674D01*
X115964326Y-59054120D01*
X116205857Y-59246735D01*
X116467435Y-59411095D01*
X116745771Y-59545135D01*
X116786904Y-59559528D01*
X117037352Y-59647164D01*
X117037364Y-59647168D01*
X117338548Y-59715911D01*
X117338554Y-59715911D01*
X117338562Y-59715913D01*
X117543206Y-59738970D01*
X117645529Y-59750499D01*
X117645532Y-59750500D01*
X117645535Y-59750500D01*
X117954468Y-59750500D01*
X117954469Y-59750499D01*
X118111356Y-59732822D01*
X118261437Y-59715913D01*
X118261442Y-59715912D01*
X118261452Y-59715911D01*
X118562636Y-59647168D01*
X118854229Y-59545135D01*
X119132565Y-59411095D01*
X119394143Y-59246735D01*
X119635674Y-59054120D01*
X119854120Y-58835674D01*
X120046735Y-58594143D01*
X120211095Y-58332565D01*
X120345135Y-58054229D01*
X120447168Y-57762636D01*
X120515911Y-57461452D01*
X120550500Y-57154465D01*
X120550500Y-57102155D01*
X128800000Y-57102155D01*
X128800000Y-57150000D01*
X129450000Y-57150000D01*
X129450000Y-56650000D01*
X129252155Y-56650000D01*
X129192627Y-56656401D01*
X129192620Y-56656403D01*
X129057913Y-56706645D01*
X129057906Y-56706649D01*
X128942812Y-56792809D01*
X128942809Y-56792812D01*
X128856649Y-56907906D01*
X128856645Y-56907913D01*
X128806403Y-57042620D01*
X128806401Y-57042627D01*
X128800000Y-57102155D01*
X120550500Y-57102155D01*
X120550500Y-56845535D01*
X120534851Y-56706645D01*
X120515913Y-56538562D01*
X120515910Y-56538544D01*
X120447168Y-56237364D01*
X120447164Y-56237352D01*
X120345137Y-55945777D01*
X120345135Y-55945771D01*
X120299738Y-55851504D01*
X120211096Y-55667437D01*
X120200140Y-55650000D01*
X120046735Y-55405857D01*
X119854120Y-55164326D01*
X119635674Y-54945880D01*
X119394143Y-54753265D01*
X119132565Y-54588905D01*
X119132562Y-54588903D01*
X119023164Y-54536220D01*
X118971305Y-54489398D01*
X118952992Y-54421971D01*
X118974040Y-54355347D01*
X119027766Y-54310678D01*
X119076966Y-54300500D01*
X159123034Y-54300500D01*
X159130498Y-54302691D01*
G37*
%TD.AperFunction*%
%TD*%
M02*
