M48
; DRILL file {KiCad 9.0.4} date 2025-11-20T14:14:11-0600
; FORMAT={-:-/ absolute / metric / decimal}
; #@! TF.CreationDate,2025-11-20T14:14:11-06:00
; #@! TF.GenerationSoftware,Kicad,Pcbnew,9.0.4
; #@! TF.FileFunction,Plated,1,2,PTH
FMAT,2
METRIC
; #@! TA.AperFunction,Plated,PTH,ViaDrill
T1C0.300
; #@! TA.AperFunction,Plated,PTH,ComponentDrill
T2C0.600
; #@! TA.AperFunction,Plated,PTH,ComponentDrill
T3C0.650
; #@! TA.AperFunction,Plated,PTH,ComponentDrill
T4C0.700
; #@! TA.AperFunction,Plated,PTH,ComponentDrill
T5C1.000
; #@! TA.AperFunction,Plated,PTH,ComponentDrill
T6C3.000
%
G90
G05
T1
X129.6Y-65.8
X130.4Y-93.8
X130.6Y-83.6
X130.6Y-85.8
X132.8Y-71.2
X133.0Y-74.6
X134.4Y-70.757
X137.15Y-59.4
X138.2Y-69.8
X138.6Y-67.2
X138.931Y-79.171
X139.185Y-71.896
X139.4Y-78.2
X139.8Y-76.2
X140.94Y-71.34
X141.088Y-67.417
X141.59Y-68.547
X141.6Y-58.0
X141.6Y-78.8
X141.929Y-67.293
X142.0Y-81.2
X142.057Y-75.392
X142.114Y-70.534
X142.4Y-68.2
X142.6Y-83.0
X142.691Y-72.513
X142.742Y-71.107
X144.2Y-73.4
X146.715Y-68.115
X148.8Y-70.2
X148.856Y-69.352
X149.0Y-67.8
X150.0Y-83.8
X151.0Y-65.2
X152.346Y-69.535
X152.4Y-70.4
X152.6Y-65.4
X153.6Y-78.0
X158.0Y-83.4
T3
X146.2Y-58.46
X146.2Y-59.73
X146.2Y-61.0
X146.2Y-62.27
X146.2Y-63.54
X146.2Y-64.81
T4
X133.8Y-89.815
X133.8Y-91.595
X133.8Y-93.375
X133.8Y-95.155
X133.8Y-96.935
X133.8Y-98.715
X133.8Y-100.495
X133.8Y-102.275
X144.5Y-88.925
X144.5Y-90.705
X144.5Y-92.485
X144.5Y-94.265
X144.5Y-96.045
X144.5Y-97.825
X144.5Y-99.605
X144.5Y-101.385
T5
X125.8Y-62.85
X125.8Y-65.39
X125.8Y-67.93
X125.8Y-70.47
X125.8Y-73.01
X125.8Y-75.55
T6
X117.8Y-57.0
X118.0Y-122.0
X160.4Y-57.0
X160.4Y-122.2
T2
G00X135.01Y-56.75
M15
G01X135.01Y-55.95
M16
G05
G00X135.01Y-61.05
M15
G01X135.01Y-59.95
M16
G05
G00X143.65Y-56.75
M15
G01X143.65Y-55.95
M16
G05
G00X143.65Y-61.05
M15
G01X143.65Y-59.95
M16
G05
M30
