%TF.GenerationSoftware,KiCad,Pcbnew,9.0.4*%
%TF.CreationDate,2025-11-20T14:14:08-06:00*%
%TF.ProjectId,Ballmouse,42616c6c-6d6f-4757-9365-2e6b69636164,rev?*%
%TF.SameCoordinates,Original*%
%TF.FileFunction,Legend,Top*%
%TF.FilePolarity,Positive*%
%FSLAX46Y46*%
G04 Gerber Fmt 4.6, Leading zero omitted, Abs format (unit mm)*
G04 Created by KiCad (PCBNEW 9.0.4) date 2025-11-20 14:14:08*
%MOMM*%
%LPD*%
G01*
G04 APERTURE LIST*
%ADD10C,0.100000*%
%ADD11C,0.150000*%
%ADD12C,0.120000*%
%ADD13C,0.000000*%
G04 APERTURE END LIST*
D10*
X129775000Y-85050000D02*
X148625000Y-85050000D01*
X148625000Y-106200000D01*
X129775000Y-106200000D01*
X129775000Y-85050000D01*
D11*
X150261905Y-93454819D02*
X150261905Y-92454819D01*
X150261905Y-92454819D02*
X150500000Y-92454819D01*
X150500000Y-92454819D02*
X150642857Y-92502438D01*
X150642857Y-92502438D02*
X150738095Y-92597676D01*
X150738095Y-92597676D02*
X150785714Y-92692914D01*
X150785714Y-92692914D02*
X150833333Y-92883390D01*
X150833333Y-92883390D02*
X150833333Y-93026247D01*
X150833333Y-93026247D02*
X150785714Y-93216723D01*
X150785714Y-93216723D02*
X150738095Y-93311961D01*
X150738095Y-93311961D02*
X150642857Y-93407200D01*
X150642857Y-93407200D02*
X150500000Y-93454819D01*
X150500000Y-93454819D02*
X150261905Y-93454819D01*
X151690476Y-92454819D02*
X151500000Y-92454819D01*
X151500000Y-92454819D02*
X151404762Y-92502438D01*
X151404762Y-92502438D02*
X151357143Y-92550057D01*
X151357143Y-92550057D02*
X151261905Y-92692914D01*
X151261905Y-92692914D02*
X151214286Y-92883390D01*
X151214286Y-92883390D02*
X151214286Y-93264342D01*
X151214286Y-93264342D02*
X151261905Y-93359580D01*
X151261905Y-93359580D02*
X151309524Y-93407200D01*
X151309524Y-93407200D02*
X151404762Y-93454819D01*
X151404762Y-93454819D02*
X151595238Y-93454819D01*
X151595238Y-93454819D02*
X151690476Y-93407200D01*
X151690476Y-93407200D02*
X151738095Y-93359580D01*
X151738095Y-93359580D02*
X151785714Y-93264342D01*
X151785714Y-93264342D02*
X151785714Y-93026247D01*
X151785714Y-93026247D02*
X151738095Y-92931009D01*
X151738095Y-92931009D02*
X151690476Y-92883390D01*
X151690476Y-92883390D02*
X151595238Y-92835771D01*
X151595238Y-92835771D02*
X151404762Y-92835771D01*
X151404762Y-92835771D02*
X151309524Y-92883390D01*
X151309524Y-92883390D02*
X151261905Y-92931009D01*
X151261905Y-92931009D02*
X151214286Y-93026247D01*
X139923597Y-110230492D02*
X139923597Y-111230492D01*
X139923597Y-111230492D02*
X139685502Y-111230492D01*
X139685502Y-111230492D02*
X139542645Y-111182873D01*
X139542645Y-111182873D02*
X139447407Y-111087635D01*
X139447407Y-111087635D02*
X139399788Y-110992397D01*
X139399788Y-110992397D02*
X139352169Y-110801921D01*
X139352169Y-110801921D02*
X139352169Y-110659064D01*
X139352169Y-110659064D02*
X139399788Y-110468588D01*
X139399788Y-110468588D02*
X139447407Y-110373350D01*
X139447407Y-110373350D02*
X139542645Y-110278112D01*
X139542645Y-110278112D02*
X139685502Y-110230492D01*
X139685502Y-110230492D02*
X139923597Y-110230492D01*
X138447407Y-111230492D02*
X138923597Y-111230492D01*
X138923597Y-111230492D02*
X138971216Y-110754302D01*
X138971216Y-110754302D02*
X138923597Y-110801921D01*
X138923597Y-110801921D02*
X138828359Y-110849540D01*
X138828359Y-110849540D02*
X138590264Y-110849540D01*
X138590264Y-110849540D02*
X138495026Y-110801921D01*
X138495026Y-110801921D02*
X138447407Y-110754302D01*
X138447407Y-110754302D02*
X138399788Y-110659064D01*
X138399788Y-110659064D02*
X138399788Y-110420969D01*
X138399788Y-110420969D02*
X138447407Y-110325731D01*
X138447407Y-110325731D02*
X138495026Y-110278112D01*
X138495026Y-110278112D02*
X138590264Y-110230492D01*
X138590264Y-110230492D02*
X138828359Y-110230492D01*
X138828359Y-110230492D02*
X138923597Y-110278112D01*
X138923597Y-110278112D02*
X138971216Y-110325731D01*
X126861905Y-98254819D02*
X126861905Y-97254819D01*
X126861905Y-97254819D02*
X127100000Y-97254819D01*
X127100000Y-97254819D02*
X127242857Y-97302438D01*
X127242857Y-97302438D02*
X127338095Y-97397676D01*
X127338095Y-97397676D02*
X127385714Y-97492914D01*
X127385714Y-97492914D02*
X127433333Y-97683390D01*
X127433333Y-97683390D02*
X127433333Y-97826247D01*
X127433333Y-97826247D02*
X127385714Y-98016723D01*
X127385714Y-98016723D02*
X127338095Y-98111961D01*
X127338095Y-98111961D02*
X127242857Y-98207200D01*
X127242857Y-98207200D02*
X127100000Y-98254819D01*
X127100000Y-98254819D02*
X126861905Y-98254819D01*
X128290476Y-97588152D02*
X128290476Y-98254819D01*
X128052381Y-97207200D02*
X127814286Y-97921485D01*
X127814286Y-97921485D02*
X128433333Y-97921485D01*
X138461905Y-80654819D02*
X138461905Y-79654819D01*
X138461905Y-79654819D02*
X138700000Y-79654819D01*
X138700000Y-79654819D02*
X138842857Y-79702438D01*
X138842857Y-79702438D02*
X138938095Y-79797676D01*
X138938095Y-79797676D02*
X138985714Y-79892914D01*
X138985714Y-79892914D02*
X139033333Y-80083390D01*
X139033333Y-80083390D02*
X139033333Y-80226247D01*
X139033333Y-80226247D02*
X138985714Y-80416723D01*
X138985714Y-80416723D02*
X138938095Y-80511961D01*
X138938095Y-80511961D02*
X138842857Y-80607200D01*
X138842857Y-80607200D02*
X138700000Y-80654819D01*
X138700000Y-80654819D02*
X138461905Y-80654819D01*
X139366667Y-79654819D02*
X139985714Y-79654819D01*
X139985714Y-79654819D02*
X139652381Y-80035771D01*
X139652381Y-80035771D02*
X139795238Y-80035771D01*
X139795238Y-80035771D02*
X139890476Y-80083390D01*
X139890476Y-80083390D02*
X139938095Y-80131009D01*
X139938095Y-80131009D02*
X139985714Y-80226247D01*
X139985714Y-80226247D02*
X139985714Y-80464342D01*
X139985714Y-80464342D02*
X139938095Y-80559580D01*
X139938095Y-80559580D02*
X139890476Y-80607200D01*
X139890476Y-80607200D02*
X139795238Y-80654819D01*
X139795238Y-80654819D02*
X139509524Y-80654819D01*
X139509524Y-80654819D02*
X139414286Y-80607200D01*
X139414286Y-80607200D02*
X139366667Y-80559580D01*
X125466666Y-77384819D02*
X125466666Y-78099104D01*
X125466666Y-78099104D02*
X125419047Y-78241961D01*
X125419047Y-78241961D02*
X125323809Y-78337200D01*
X125323809Y-78337200D02*
X125180952Y-78384819D01*
X125180952Y-78384819D02*
X125085714Y-78384819D01*
X125895238Y-77480057D02*
X125942857Y-77432438D01*
X125942857Y-77432438D02*
X126038095Y-77384819D01*
X126038095Y-77384819D02*
X126276190Y-77384819D01*
X126276190Y-77384819D02*
X126371428Y-77432438D01*
X126371428Y-77432438D02*
X126419047Y-77480057D01*
X126419047Y-77480057D02*
X126466666Y-77575295D01*
X126466666Y-77575295D02*
X126466666Y-77670533D01*
X126466666Y-77670533D02*
X126419047Y-77813390D01*
X126419047Y-77813390D02*
X125847619Y-78384819D01*
X125847619Y-78384819D02*
X126466666Y-78384819D01*
X132957142Y-64159580D02*
X132909523Y-64207200D01*
X132909523Y-64207200D02*
X132766666Y-64254819D01*
X132766666Y-64254819D02*
X132671428Y-64254819D01*
X132671428Y-64254819D02*
X132528571Y-64207200D01*
X132528571Y-64207200D02*
X132433333Y-64111961D01*
X132433333Y-64111961D02*
X132385714Y-64016723D01*
X132385714Y-64016723D02*
X132338095Y-63826247D01*
X132338095Y-63826247D02*
X132338095Y-63683390D01*
X132338095Y-63683390D02*
X132385714Y-63492914D01*
X132385714Y-63492914D02*
X132433333Y-63397676D01*
X132433333Y-63397676D02*
X132528571Y-63302438D01*
X132528571Y-63302438D02*
X132671428Y-63254819D01*
X132671428Y-63254819D02*
X132766666Y-63254819D01*
X132766666Y-63254819D02*
X132909523Y-63302438D01*
X132909523Y-63302438D02*
X132957142Y-63350057D01*
X133909523Y-64254819D02*
X133338095Y-64254819D01*
X133623809Y-64254819D02*
X133623809Y-63254819D01*
X133623809Y-63254819D02*
X133528571Y-63397676D01*
X133528571Y-63397676D02*
X133433333Y-63492914D01*
X133433333Y-63492914D02*
X133338095Y-63540533D01*
X134766666Y-63254819D02*
X134576190Y-63254819D01*
X134576190Y-63254819D02*
X134480952Y-63302438D01*
X134480952Y-63302438D02*
X134433333Y-63350057D01*
X134433333Y-63350057D02*
X134338095Y-63492914D01*
X134338095Y-63492914D02*
X134290476Y-63683390D01*
X134290476Y-63683390D02*
X134290476Y-64064342D01*
X134290476Y-64064342D02*
X134338095Y-64159580D01*
X134338095Y-64159580D02*
X134385714Y-64207200D01*
X134385714Y-64207200D02*
X134480952Y-64254819D01*
X134480952Y-64254819D02*
X134671428Y-64254819D01*
X134671428Y-64254819D02*
X134766666Y-64207200D01*
X134766666Y-64207200D02*
X134814285Y-64159580D01*
X134814285Y-64159580D02*
X134861904Y-64064342D01*
X134861904Y-64064342D02*
X134861904Y-63826247D01*
X134861904Y-63826247D02*
X134814285Y-63731009D01*
X134814285Y-63731009D02*
X134766666Y-63683390D01*
X134766666Y-63683390D02*
X134671428Y-63635771D01*
X134671428Y-63635771D02*
X134480952Y-63635771D01*
X134480952Y-63635771D02*
X134385714Y-63683390D01*
X134385714Y-63683390D02*
X134338095Y-63731009D01*
X134338095Y-63731009D02*
X134290476Y-63826247D01*
X143233333Y-64159580D02*
X143185714Y-64207200D01*
X143185714Y-64207200D02*
X143042857Y-64254819D01*
X143042857Y-64254819D02*
X142947619Y-64254819D01*
X142947619Y-64254819D02*
X142804762Y-64207200D01*
X142804762Y-64207200D02*
X142709524Y-64111961D01*
X142709524Y-64111961D02*
X142661905Y-64016723D01*
X142661905Y-64016723D02*
X142614286Y-63826247D01*
X142614286Y-63826247D02*
X142614286Y-63683390D01*
X142614286Y-63683390D02*
X142661905Y-63492914D01*
X142661905Y-63492914D02*
X142709524Y-63397676D01*
X142709524Y-63397676D02*
X142804762Y-63302438D01*
X142804762Y-63302438D02*
X142947619Y-63254819D01*
X142947619Y-63254819D02*
X143042857Y-63254819D01*
X143042857Y-63254819D02*
X143185714Y-63302438D01*
X143185714Y-63302438D02*
X143233333Y-63350057D01*
X143804762Y-63683390D02*
X143709524Y-63635771D01*
X143709524Y-63635771D02*
X143661905Y-63588152D01*
X143661905Y-63588152D02*
X143614286Y-63492914D01*
X143614286Y-63492914D02*
X143614286Y-63445295D01*
X143614286Y-63445295D02*
X143661905Y-63350057D01*
X143661905Y-63350057D02*
X143709524Y-63302438D01*
X143709524Y-63302438D02*
X143804762Y-63254819D01*
X143804762Y-63254819D02*
X143995238Y-63254819D01*
X143995238Y-63254819D02*
X144090476Y-63302438D01*
X144090476Y-63302438D02*
X144138095Y-63350057D01*
X144138095Y-63350057D02*
X144185714Y-63445295D01*
X144185714Y-63445295D02*
X144185714Y-63492914D01*
X144185714Y-63492914D02*
X144138095Y-63588152D01*
X144138095Y-63588152D02*
X144090476Y-63635771D01*
X144090476Y-63635771D02*
X143995238Y-63683390D01*
X143995238Y-63683390D02*
X143804762Y-63683390D01*
X143804762Y-63683390D02*
X143709524Y-63731009D01*
X143709524Y-63731009D02*
X143661905Y-63778628D01*
X143661905Y-63778628D02*
X143614286Y-63873866D01*
X143614286Y-63873866D02*
X143614286Y-64064342D01*
X143614286Y-64064342D02*
X143661905Y-64159580D01*
X143661905Y-64159580D02*
X143709524Y-64207200D01*
X143709524Y-64207200D02*
X143804762Y-64254819D01*
X143804762Y-64254819D02*
X143995238Y-64254819D01*
X143995238Y-64254819D02*
X144090476Y-64207200D01*
X144090476Y-64207200D02*
X144138095Y-64159580D01*
X144138095Y-64159580D02*
X144185714Y-64064342D01*
X144185714Y-64064342D02*
X144185714Y-63873866D01*
X144185714Y-63873866D02*
X144138095Y-63778628D01*
X144138095Y-63778628D02*
X144090476Y-63731009D01*
X144090476Y-63731009D02*
X143995238Y-63683390D01*
X150354819Y-72511904D02*
X151164342Y-72511904D01*
X151164342Y-72511904D02*
X151259580Y-72464285D01*
X151259580Y-72464285D02*
X151307200Y-72416666D01*
X151307200Y-72416666D02*
X151354819Y-72321428D01*
X151354819Y-72321428D02*
X151354819Y-72130952D01*
X151354819Y-72130952D02*
X151307200Y-72035714D01*
X151307200Y-72035714D02*
X151259580Y-71988095D01*
X151259580Y-71988095D02*
X151164342Y-71940476D01*
X151164342Y-71940476D02*
X150354819Y-71940476D01*
X150688152Y-71035714D02*
X151354819Y-71035714D01*
X150307200Y-71273809D02*
X151021485Y-71511904D01*
X151021485Y-71511904D02*
X151021485Y-70892857D01*
X154838095Y-59254819D02*
X154838095Y-60064342D01*
X154838095Y-60064342D02*
X154885714Y-60159580D01*
X154885714Y-60159580D02*
X154933333Y-60207200D01*
X154933333Y-60207200D02*
X155028571Y-60254819D01*
X155028571Y-60254819D02*
X155219047Y-60254819D01*
X155219047Y-60254819D02*
X155314285Y-60207200D01*
X155314285Y-60207200D02*
X155361904Y-60159580D01*
X155361904Y-60159580D02*
X155409523Y-60064342D01*
X155409523Y-60064342D02*
X155409523Y-59254819D01*
X155790476Y-59254819D02*
X156409523Y-59254819D01*
X156409523Y-59254819D02*
X156076190Y-59635771D01*
X156076190Y-59635771D02*
X156219047Y-59635771D01*
X156219047Y-59635771D02*
X156314285Y-59683390D01*
X156314285Y-59683390D02*
X156361904Y-59731009D01*
X156361904Y-59731009D02*
X156409523Y-59826247D01*
X156409523Y-59826247D02*
X156409523Y-60064342D01*
X156409523Y-60064342D02*
X156361904Y-60159580D01*
X156361904Y-60159580D02*
X156314285Y-60207200D01*
X156314285Y-60207200D02*
X156219047Y-60254819D01*
X156219047Y-60254819D02*
X155933333Y-60254819D01*
X155933333Y-60254819D02*
X155838095Y-60207200D01*
X155838095Y-60207200D02*
X155790476Y-60159580D01*
X133372319Y-70619404D02*
X134181842Y-70619404D01*
X134181842Y-70619404D02*
X134277080Y-70571785D01*
X134277080Y-70571785D02*
X134324700Y-70524166D01*
X134324700Y-70524166D02*
X134372319Y-70428928D01*
X134372319Y-70428928D02*
X134372319Y-70238452D01*
X134372319Y-70238452D02*
X134324700Y-70143214D01*
X134324700Y-70143214D02*
X134277080Y-70095595D01*
X134277080Y-70095595D02*
X134181842Y-70047976D01*
X134181842Y-70047976D02*
X133372319Y-70047976D01*
X133467557Y-69619404D02*
X133419938Y-69571785D01*
X133419938Y-69571785D02*
X133372319Y-69476547D01*
X133372319Y-69476547D02*
X133372319Y-69238452D01*
X133372319Y-69238452D02*
X133419938Y-69143214D01*
X133419938Y-69143214D02*
X133467557Y-69095595D01*
X133467557Y-69095595D02*
X133562795Y-69047976D01*
X133562795Y-69047976D02*
X133658033Y-69047976D01*
X133658033Y-69047976D02*
X133800890Y-69095595D01*
X133800890Y-69095595D02*
X134372319Y-69667023D01*
X134372319Y-69667023D02*
X134372319Y-69047976D01*
X157291667Y-77107200D02*
X157434524Y-77154819D01*
X157434524Y-77154819D02*
X157672619Y-77154819D01*
X157672619Y-77154819D02*
X157767857Y-77107200D01*
X157767857Y-77107200D02*
X157815476Y-77059580D01*
X157815476Y-77059580D02*
X157863095Y-76964342D01*
X157863095Y-76964342D02*
X157863095Y-76869104D01*
X157863095Y-76869104D02*
X157815476Y-76773866D01*
X157815476Y-76773866D02*
X157767857Y-76726247D01*
X157767857Y-76726247D02*
X157672619Y-76678628D01*
X157672619Y-76678628D02*
X157482143Y-76631009D01*
X157482143Y-76631009D02*
X157386905Y-76583390D01*
X157386905Y-76583390D02*
X157339286Y-76535771D01*
X157339286Y-76535771D02*
X157291667Y-76440533D01*
X157291667Y-76440533D02*
X157291667Y-76345295D01*
X157291667Y-76345295D02*
X157339286Y-76250057D01*
X157339286Y-76250057D02*
X157386905Y-76202438D01*
X157386905Y-76202438D02*
X157482143Y-76154819D01*
X157482143Y-76154819D02*
X157720238Y-76154819D01*
X157720238Y-76154819D02*
X157863095Y-76202438D01*
X158196429Y-76154819D02*
X158434524Y-77154819D01*
X158434524Y-77154819D02*
X158625000Y-76440533D01*
X158625000Y-76440533D02*
X158815476Y-77154819D01*
X158815476Y-77154819D02*
X159053572Y-76154819D01*
X159910714Y-76154819D02*
X159434524Y-76154819D01*
X159434524Y-76154819D02*
X159386905Y-76631009D01*
X159386905Y-76631009D02*
X159434524Y-76583390D01*
X159434524Y-76583390D02*
X159529762Y-76535771D01*
X159529762Y-76535771D02*
X159767857Y-76535771D01*
X159767857Y-76535771D02*
X159863095Y-76583390D01*
X159863095Y-76583390D02*
X159910714Y-76631009D01*
X159910714Y-76631009D02*
X159958333Y-76726247D01*
X159958333Y-76726247D02*
X159958333Y-76964342D01*
X159958333Y-76964342D02*
X159910714Y-77059580D01*
X159910714Y-77059580D02*
X159863095Y-77107200D01*
X159863095Y-77107200D02*
X159767857Y-77154819D01*
X159767857Y-77154819D02*
X159529762Y-77154819D01*
X159529762Y-77154819D02*
X159434524Y-77107200D01*
X159434524Y-77107200D02*
X159386905Y-77059580D01*
X156766667Y-114107200D02*
X156909524Y-114154819D01*
X156909524Y-114154819D02*
X157147619Y-114154819D01*
X157147619Y-114154819D02*
X157242857Y-114107200D01*
X157242857Y-114107200D02*
X157290476Y-114059580D01*
X157290476Y-114059580D02*
X157338095Y-113964342D01*
X157338095Y-113964342D02*
X157338095Y-113869104D01*
X157338095Y-113869104D02*
X157290476Y-113773866D01*
X157290476Y-113773866D02*
X157242857Y-113726247D01*
X157242857Y-113726247D02*
X157147619Y-113678628D01*
X157147619Y-113678628D02*
X156957143Y-113631009D01*
X156957143Y-113631009D02*
X156861905Y-113583390D01*
X156861905Y-113583390D02*
X156814286Y-113535771D01*
X156814286Y-113535771D02*
X156766667Y-113440533D01*
X156766667Y-113440533D02*
X156766667Y-113345295D01*
X156766667Y-113345295D02*
X156814286Y-113250057D01*
X156814286Y-113250057D02*
X156861905Y-113202438D01*
X156861905Y-113202438D02*
X156957143Y-113154819D01*
X156957143Y-113154819D02*
X157195238Y-113154819D01*
X157195238Y-113154819D02*
X157338095Y-113202438D01*
X157671429Y-113154819D02*
X157909524Y-114154819D01*
X157909524Y-114154819D02*
X158100000Y-113440533D01*
X158100000Y-113440533D02*
X158290476Y-114154819D01*
X158290476Y-114154819D02*
X158528572Y-113154819D01*
X159338095Y-113488152D02*
X159338095Y-114154819D01*
X159100000Y-113107200D02*
X158861905Y-113821485D01*
X158861905Y-113821485D02*
X159480952Y-113821485D01*
X137666667Y-114107200D02*
X137809524Y-114154819D01*
X137809524Y-114154819D02*
X138047619Y-114154819D01*
X138047619Y-114154819D02*
X138142857Y-114107200D01*
X138142857Y-114107200D02*
X138190476Y-114059580D01*
X138190476Y-114059580D02*
X138238095Y-113964342D01*
X138238095Y-113964342D02*
X138238095Y-113869104D01*
X138238095Y-113869104D02*
X138190476Y-113773866D01*
X138190476Y-113773866D02*
X138142857Y-113726247D01*
X138142857Y-113726247D02*
X138047619Y-113678628D01*
X138047619Y-113678628D02*
X137857143Y-113631009D01*
X137857143Y-113631009D02*
X137761905Y-113583390D01*
X137761905Y-113583390D02*
X137714286Y-113535771D01*
X137714286Y-113535771D02*
X137666667Y-113440533D01*
X137666667Y-113440533D02*
X137666667Y-113345295D01*
X137666667Y-113345295D02*
X137714286Y-113250057D01*
X137714286Y-113250057D02*
X137761905Y-113202438D01*
X137761905Y-113202438D02*
X137857143Y-113154819D01*
X137857143Y-113154819D02*
X138095238Y-113154819D01*
X138095238Y-113154819D02*
X138238095Y-113202438D01*
X138571429Y-113154819D02*
X138809524Y-114154819D01*
X138809524Y-114154819D02*
X139000000Y-113440533D01*
X139000000Y-113440533D02*
X139190476Y-114154819D01*
X139190476Y-114154819D02*
X139428572Y-113154819D01*
X139714286Y-113154819D02*
X140333333Y-113154819D01*
X140333333Y-113154819D02*
X140000000Y-113535771D01*
X140000000Y-113535771D02*
X140142857Y-113535771D01*
X140142857Y-113535771D02*
X140238095Y-113583390D01*
X140238095Y-113583390D02*
X140285714Y-113631009D01*
X140285714Y-113631009D02*
X140333333Y-113726247D01*
X140333333Y-113726247D02*
X140333333Y-113964342D01*
X140333333Y-113964342D02*
X140285714Y-114059580D01*
X140285714Y-114059580D02*
X140238095Y-114107200D01*
X140238095Y-114107200D02*
X140142857Y-114154819D01*
X140142857Y-114154819D02*
X139857143Y-114154819D01*
X139857143Y-114154819D02*
X139761905Y-114107200D01*
X139761905Y-114107200D02*
X139714286Y-114059580D01*
X118566667Y-114107200D02*
X118709524Y-114154819D01*
X118709524Y-114154819D02*
X118947619Y-114154819D01*
X118947619Y-114154819D02*
X119042857Y-114107200D01*
X119042857Y-114107200D02*
X119090476Y-114059580D01*
X119090476Y-114059580D02*
X119138095Y-113964342D01*
X119138095Y-113964342D02*
X119138095Y-113869104D01*
X119138095Y-113869104D02*
X119090476Y-113773866D01*
X119090476Y-113773866D02*
X119042857Y-113726247D01*
X119042857Y-113726247D02*
X118947619Y-113678628D01*
X118947619Y-113678628D02*
X118757143Y-113631009D01*
X118757143Y-113631009D02*
X118661905Y-113583390D01*
X118661905Y-113583390D02*
X118614286Y-113535771D01*
X118614286Y-113535771D02*
X118566667Y-113440533D01*
X118566667Y-113440533D02*
X118566667Y-113345295D01*
X118566667Y-113345295D02*
X118614286Y-113250057D01*
X118614286Y-113250057D02*
X118661905Y-113202438D01*
X118661905Y-113202438D02*
X118757143Y-113154819D01*
X118757143Y-113154819D02*
X118995238Y-113154819D01*
X118995238Y-113154819D02*
X119138095Y-113202438D01*
X119471429Y-113154819D02*
X119709524Y-114154819D01*
X119709524Y-114154819D02*
X119900000Y-113440533D01*
X119900000Y-113440533D02*
X120090476Y-114154819D01*
X120090476Y-114154819D02*
X120328572Y-113154819D01*
X120661905Y-113250057D02*
X120709524Y-113202438D01*
X120709524Y-113202438D02*
X120804762Y-113154819D01*
X120804762Y-113154819D02*
X121042857Y-113154819D01*
X121042857Y-113154819D02*
X121138095Y-113202438D01*
X121138095Y-113202438D02*
X121185714Y-113250057D01*
X121185714Y-113250057D02*
X121233333Y-113345295D01*
X121233333Y-113345295D02*
X121233333Y-113440533D01*
X121233333Y-113440533D02*
X121185714Y-113583390D01*
X121185714Y-113583390D02*
X120614286Y-114154819D01*
X120614286Y-114154819D02*
X121233333Y-114154819D01*
X118066667Y-77107200D02*
X118209524Y-77154819D01*
X118209524Y-77154819D02*
X118447619Y-77154819D01*
X118447619Y-77154819D02*
X118542857Y-77107200D01*
X118542857Y-77107200D02*
X118590476Y-77059580D01*
X118590476Y-77059580D02*
X118638095Y-76964342D01*
X118638095Y-76964342D02*
X118638095Y-76869104D01*
X118638095Y-76869104D02*
X118590476Y-76773866D01*
X118590476Y-76773866D02*
X118542857Y-76726247D01*
X118542857Y-76726247D02*
X118447619Y-76678628D01*
X118447619Y-76678628D02*
X118257143Y-76631009D01*
X118257143Y-76631009D02*
X118161905Y-76583390D01*
X118161905Y-76583390D02*
X118114286Y-76535771D01*
X118114286Y-76535771D02*
X118066667Y-76440533D01*
X118066667Y-76440533D02*
X118066667Y-76345295D01*
X118066667Y-76345295D02*
X118114286Y-76250057D01*
X118114286Y-76250057D02*
X118161905Y-76202438D01*
X118161905Y-76202438D02*
X118257143Y-76154819D01*
X118257143Y-76154819D02*
X118495238Y-76154819D01*
X118495238Y-76154819D02*
X118638095Y-76202438D01*
X118971429Y-76154819D02*
X119209524Y-77154819D01*
X119209524Y-77154819D02*
X119400000Y-76440533D01*
X119400000Y-76440533D02*
X119590476Y-77154819D01*
X119590476Y-77154819D02*
X119828572Y-76154819D01*
X120733333Y-77154819D02*
X120161905Y-77154819D01*
X120447619Y-77154819D02*
X120447619Y-76154819D01*
X120447619Y-76154819D02*
X120352381Y-76297676D01*
X120352381Y-76297676D02*
X120257143Y-76392914D01*
X120257143Y-76392914D02*
X120161905Y-76440533D01*
X154509523Y-67254819D02*
X154176190Y-66778628D01*
X153938095Y-67254819D02*
X153938095Y-66254819D01*
X153938095Y-66254819D02*
X154319047Y-66254819D01*
X154319047Y-66254819D02*
X154414285Y-66302438D01*
X154414285Y-66302438D02*
X154461904Y-66350057D01*
X154461904Y-66350057D02*
X154509523Y-66445295D01*
X154509523Y-66445295D02*
X154509523Y-66588152D01*
X154509523Y-66588152D02*
X154461904Y-66683390D01*
X154461904Y-66683390D02*
X154414285Y-66731009D01*
X154414285Y-66731009D02*
X154319047Y-66778628D01*
X154319047Y-66778628D02*
X153938095Y-66778628D01*
X154938095Y-67254819D02*
X154938095Y-66254819D01*
X154938095Y-66254819D02*
X155509523Y-67254819D01*
X155509523Y-67254819D02*
X155509523Y-66254819D01*
X155938095Y-66350057D02*
X155985714Y-66302438D01*
X155985714Y-66302438D02*
X156080952Y-66254819D01*
X156080952Y-66254819D02*
X156319047Y-66254819D01*
X156319047Y-66254819D02*
X156414285Y-66302438D01*
X156414285Y-66302438D02*
X156461904Y-66350057D01*
X156461904Y-66350057D02*
X156509523Y-66445295D01*
X156509523Y-66445295D02*
X156509523Y-66540533D01*
X156509523Y-66540533D02*
X156461904Y-66683390D01*
X156461904Y-66683390D02*
X155890476Y-67254819D01*
X155890476Y-67254819D02*
X156509523Y-67254819D01*
X129909523Y-56254819D02*
X129576190Y-55778628D01*
X129338095Y-56254819D02*
X129338095Y-55254819D01*
X129338095Y-55254819D02*
X129719047Y-55254819D01*
X129719047Y-55254819D02*
X129814285Y-55302438D01*
X129814285Y-55302438D02*
X129861904Y-55350057D01*
X129861904Y-55350057D02*
X129909523Y-55445295D01*
X129909523Y-55445295D02*
X129909523Y-55588152D01*
X129909523Y-55588152D02*
X129861904Y-55683390D01*
X129861904Y-55683390D02*
X129814285Y-55731009D01*
X129814285Y-55731009D02*
X129719047Y-55778628D01*
X129719047Y-55778628D02*
X129338095Y-55778628D01*
X130338095Y-56254819D02*
X130338095Y-55254819D01*
X130338095Y-55254819D02*
X130909523Y-56254819D01*
X130909523Y-56254819D02*
X130909523Y-55254819D01*
X131909523Y-56254819D02*
X131338095Y-56254819D01*
X131623809Y-56254819D02*
X131623809Y-55254819D01*
X131623809Y-55254819D02*
X131528571Y-55397676D01*
X131528571Y-55397676D02*
X131433333Y-55492914D01*
X131433333Y-55492914D02*
X131338095Y-55540533D01*
X124233333Y-92054819D02*
X123900000Y-91578628D01*
X123661905Y-92054819D02*
X123661905Y-91054819D01*
X123661905Y-91054819D02*
X124042857Y-91054819D01*
X124042857Y-91054819D02*
X124138095Y-91102438D01*
X124138095Y-91102438D02*
X124185714Y-91150057D01*
X124185714Y-91150057D02*
X124233333Y-91245295D01*
X124233333Y-91245295D02*
X124233333Y-91388152D01*
X124233333Y-91388152D02*
X124185714Y-91483390D01*
X124185714Y-91483390D02*
X124138095Y-91531009D01*
X124138095Y-91531009D02*
X124042857Y-91578628D01*
X124042857Y-91578628D02*
X123661905Y-91578628D01*
X125185714Y-92054819D02*
X124614286Y-92054819D01*
X124900000Y-92054819D02*
X124900000Y-91054819D01*
X124900000Y-91054819D02*
X124804762Y-91197676D01*
X124804762Y-91197676D02*
X124709524Y-91292914D01*
X124709524Y-91292914D02*
X124614286Y-91340533D01*
X125000057Y-87557738D02*
X124952438Y-87652976D01*
X124952438Y-87652976D02*
X124857200Y-87748214D01*
X124857200Y-87748214D02*
X124714342Y-87891071D01*
X124714342Y-87891071D02*
X124666723Y-87986309D01*
X124666723Y-87986309D02*
X124666723Y-88081547D01*
X124904819Y-88033928D02*
X124857200Y-88129166D01*
X124857200Y-88129166D02*
X124761961Y-88224404D01*
X124761961Y-88224404D02*
X124571485Y-88272023D01*
X124571485Y-88272023D02*
X124238152Y-88272023D01*
X124238152Y-88272023D02*
X124047676Y-88224404D01*
X124047676Y-88224404D02*
X123952438Y-88129166D01*
X123952438Y-88129166D02*
X123904819Y-88033928D01*
X123904819Y-88033928D02*
X123904819Y-87843452D01*
X123904819Y-87843452D02*
X123952438Y-87748214D01*
X123952438Y-87748214D02*
X124047676Y-87652976D01*
X124047676Y-87652976D02*
X124238152Y-87605357D01*
X124238152Y-87605357D02*
X124571485Y-87605357D01*
X124571485Y-87605357D02*
X124761961Y-87652976D01*
X124761961Y-87652976D02*
X124857200Y-87748214D01*
X124857200Y-87748214D02*
X124904819Y-87843452D01*
X124904819Y-87843452D02*
X124904819Y-88033928D01*
X124904819Y-86652976D02*
X124904819Y-87224404D01*
X124904819Y-86938690D02*
X123904819Y-86938690D01*
X123904819Y-86938690D02*
X124047676Y-87033928D01*
X124047676Y-87033928D02*
X124142914Y-87129166D01*
X124142914Y-87129166D02*
X124190533Y-87224404D01*
X133209819Y-56609523D02*
X133924104Y-56609523D01*
X133924104Y-56609523D02*
X134066961Y-56657142D01*
X134066961Y-56657142D02*
X134162200Y-56752380D01*
X134162200Y-56752380D02*
X134209819Y-56895237D01*
X134209819Y-56895237D02*
X134209819Y-56990475D01*
X134209819Y-55609523D02*
X134209819Y-56180951D01*
X134209819Y-55895237D02*
X133209819Y-55895237D01*
X133209819Y-55895237D02*
X133352676Y-55990475D01*
X133352676Y-55990475D02*
X133447914Y-56085713D01*
X133447914Y-56085713D02*
X133495533Y-56180951D01*
X134209819Y-54657142D02*
X134209819Y-55228570D01*
X134209819Y-54942856D02*
X133209819Y-54942856D01*
X133209819Y-54942856D02*
X133352676Y-55038094D01*
X133352676Y-55038094D02*
X133447914Y-55133332D01*
X133447914Y-55133332D02*
X133495533Y-55228570D01*
X145866666Y-56054819D02*
X145866666Y-56769104D01*
X145866666Y-56769104D02*
X145819047Y-56911961D01*
X145819047Y-56911961D02*
X145723809Y-57007200D01*
X145723809Y-57007200D02*
X145580952Y-57054819D01*
X145580952Y-57054819D02*
X145485714Y-57054819D01*
X146866666Y-57054819D02*
X146295238Y-57054819D01*
X146580952Y-57054819D02*
X146580952Y-56054819D01*
X146580952Y-56054819D02*
X146485714Y-56197676D01*
X146485714Y-56197676D02*
X146390476Y-56292914D01*
X146390476Y-56292914D02*
X146295238Y-56340533D01*
X158894819Y-62875594D02*
X157894819Y-62875594D01*
X157894819Y-62875594D02*
X157894819Y-62637499D01*
X157894819Y-62637499D02*
X157942438Y-62494642D01*
X157942438Y-62494642D02*
X158037676Y-62399404D01*
X158037676Y-62399404D02*
X158132914Y-62351785D01*
X158132914Y-62351785D02*
X158323390Y-62304166D01*
X158323390Y-62304166D02*
X158466247Y-62304166D01*
X158466247Y-62304166D02*
X158656723Y-62351785D01*
X158656723Y-62351785D02*
X158751961Y-62399404D01*
X158751961Y-62399404D02*
X158847200Y-62494642D01*
X158847200Y-62494642D02*
X158894819Y-62637499D01*
X158894819Y-62637499D02*
X158894819Y-62875594D01*
X157990057Y-61923213D02*
X157942438Y-61875594D01*
X157942438Y-61875594D02*
X157894819Y-61780356D01*
X157894819Y-61780356D02*
X157894819Y-61542261D01*
X157894819Y-61542261D02*
X157942438Y-61447023D01*
X157942438Y-61447023D02*
X157990057Y-61399404D01*
X157990057Y-61399404D02*
X158085295Y-61351785D01*
X158085295Y-61351785D02*
X158180533Y-61351785D01*
X158180533Y-61351785D02*
X158323390Y-61399404D01*
X158323390Y-61399404D02*
X158894819Y-61970832D01*
X158894819Y-61970832D02*
X158894819Y-61351785D01*
X158854819Y-74800594D02*
X157854819Y-74800594D01*
X157854819Y-74800594D02*
X157854819Y-74562499D01*
X157854819Y-74562499D02*
X157902438Y-74419642D01*
X157902438Y-74419642D02*
X157997676Y-74324404D01*
X157997676Y-74324404D02*
X158092914Y-74276785D01*
X158092914Y-74276785D02*
X158283390Y-74229166D01*
X158283390Y-74229166D02*
X158426247Y-74229166D01*
X158426247Y-74229166D02*
X158616723Y-74276785D01*
X158616723Y-74276785D02*
X158711961Y-74324404D01*
X158711961Y-74324404D02*
X158807200Y-74419642D01*
X158807200Y-74419642D02*
X158854819Y-74562499D01*
X158854819Y-74562499D02*
X158854819Y-74800594D01*
X158854819Y-73276785D02*
X158854819Y-73848213D01*
X158854819Y-73562499D02*
X157854819Y-73562499D01*
X157854819Y-73562499D02*
X157997676Y-73657737D01*
X157997676Y-73657737D02*
X158092914Y-73752975D01*
X158092914Y-73752975D02*
X158140533Y-73848213D01*
X154357142Y-91959580D02*
X154309523Y-92007200D01*
X154309523Y-92007200D02*
X154166666Y-92054819D01*
X154166666Y-92054819D02*
X154071428Y-92054819D01*
X154071428Y-92054819D02*
X153928571Y-92007200D01*
X153928571Y-92007200D02*
X153833333Y-91911961D01*
X153833333Y-91911961D02*
X153785714Y-91816723D01*
X153785714Y-91816723D02*
X153738095Y-91626247D01*
X153738095Y-91626247D02*
X153738095Y-91483390D01*
X153738095Y-91483390D02*
X153785714Y-91292914D01*
X153785714Y-91292914D02*
X153833333Y-91197676D01*
X153833333Y-91197676D02*
X153928571Y-91102438D01*
X153928571Y-91102438D02*
X154071428Y-91054819D01*
X154071428Y-91054819D02*
X154166666Y-91054819D01*
X154166666Y-91054819D02*
X154309523Y-91102438D01*
X154309523Y-91102438D02*
X154357142Y-91150057D01*
X155309523Y-92054819D02*
X154738095Y-92054819D01*
X155023809Y-92054819D02*
X155023809Y-91054819D01*
X155023809Y-91054819D02*
X154928571Y-91197676D01*
X154928571Y-91197676D02*
X154833333Y-91292914D01*
X154833333Y-91292914D02*
X154738095Y-91340533D01*
X155690476Y-91150057D02*
X155738095Y-91102438D01*
X155738095Y-91102438D02*
X155833333Y-91054819D01*
X155833333Y-91054819D02*
X156071428Y-91054819D01*
X156071428Y-91054819D02*
X156166666Y-91102438D01*
X156166666Y-91102438D02*
X156214285Y-91150057D01*
X156214285Y-91150057D02*
X156261904Y-91245295D01*
X156261904Y-91245295D02*
X156261904Y-91340533D01*
X156261904Y-91340533D02*
X156214285Y-91483390D01*
X156214285Y-91483390D02*
X155642857Y-92054819D01*
X155642857Y-92054819D02*
X156261904Y-92054819D01*
X154207142Y-89559580D02*
X154159523Y-89607200D01*
X154159523Y-89607200D02*
X154016666Y-89654819D01*
X154016666Y-89654819D02*
X153921428Y-89654819D01*
X153921428Y-89654819D02*
X153778571Y-89607200D01*
X153778571Y-89607200D02*
X153683333Y-89511961D01*
X153683333Y-89511961D02*
X153635714Y-89416723D01*
X153635714Y-89416723D02*
X153588095Y-89226247D01*
X153588095Y-89226247D02*
X153588095Y-89083390D01*
X153588095Y-89083390D02*
X153635714Y-88892914D01*
X153635714Y-88892914D02*
X153683333Y-88797676D01*
X153683333Y-88797676D02*
X153778571Y-88702438D01*
X153778571Y-88702438D02*
X153921428Y-88654819D01*
X153921428Y-88654819D02*
X154016666Y-88654819D01*
X154016666Y-88654819D02*
X154159523Y-88702438D01*
X154159523Y-88702438D02*
X154207142Y-88750057D01*
X155159523Y-89654819D02*
X154588095Y-89654819D01*
X154873809Y-89654819D02*
X154873809Y-88654819D01*
X154873809Y-88654819D02*
X154778571Y-88797676D01*
X154778571Y-88797676D02*
X154683333Y-88892914D01*
X154683333Y-88892914D02*
X154588095Y-88940533D01*
X156111904Y-89654819D02*
X155540476Y-89654819D01*
X155826190Y-89654819D02*
X155826190Y-88654819D01*
X155826190Y-88654819D02*
X155730952Y-88797676D01*
X155730952Y-88797676D02*
X155635714Y-88892914D01*
X155635714Y-88892914D02*
X155540476Y-88940533D01*
X156359580Y-75242857D02*
X156407200Y-75290476D01*
X156407200Y-75290476D02*
X156454819Y-75433333D01*
X156454819Y-75433333D02*
X156454819Y-75528571D01*
X156454819Y-75528571D02*
X156407200Y-75671428D01*
X156407200Y-75671428D02*
X156311961Y-75766666D01*
X156311961Y-75766666D02*
X156216723Y-75814285D01*
X156216723Y-75814285D02*
X156026247Y-75861904D01*
X156026247Y-75861904D02*
X155883390Y-75861904D01*
X155883390Y-75861904D02*
X155692914Y-75814285D01*
X155692914Y-75814285D02*
X155597676Y-75766666D01*
X155597676Y-75766666D02*
X155502438Y-75671428D01*
X155502438Y-75671428D02*
X155454819Y-75528571D01*
X155454819Y-75528571D02*
X155454819Y-75433333D01*
X155454819Y-75433333D02*
X155502438Y-75290476D01*
X155502438Y-75290476D02*
X155550057Y-75242857D01*
X156454819Y-74290476D02*
X156454819Y-74861904D01*
X156454819Y-74576190D02*
X155454819Y-74576190D01*
X155454819Y-74576190D02*
X155597676Y-74671428D01*
X155597676Y-74671428D02*
X155692914Y-74766666D01*
X155692914Y-74766666D02*
X155740533Y-74861904D01*
X155454819Y-73671428D02*
X155454819Y-73576190D01*
X155454819Y-73576190D02*
X155502438Y-73480952D01*
X155502438Y-73480952D02*
X155550057Y-73433333D01*
X155550057Y-73433333D02*
X155645295Y-73385714D01*
X155645295Y-73385714D02*
X155835771Y-73338095D01*
X155835771Y-73338095D02*
X156073866Y-73338095D01*
X156073866Y-73338095D02*
X156264342Y-73385714D01*
X156264342Y-73385714D02*
X156359580Y-73433333D01*
X156359580Y-73433333D02*
X156407200Y-73480952D01*
X156407200Y-73480952D02*
X156454819Y-73576190D01*
X156454819Y-73576190D02*
X156454819Y-73671428D01*
X156454819Y-73671428D02*
X156407200Y-73766666D01*
X156407200Y-73766666D02*
X156359580Y-73814285D01*
X156359580Y-73814285D02*
X156264342Y-73861904D01*
X156264342Y-73861904D02*
X156073866Y-73909523D01*
X156073866Y-73909523D02*
X155835771Y-73909523D01*
X155835771Y-73909523D02*
X155645295Y-73861904D01*
X155645295Y-73861904D02*
X155550057Y-73814285D01*
X155550057Y-73814285D02*
X155502438Y-73766666D01*
X155502438Y-73766666D02*
X155454819Y-73671428D01*
X148409580Y-71916666D02*
X148457200Y-71964285D01*
X148457200Y-71964285D02*
X148504819Y-72107142D01*
X148504819Y-72107142D02*
X148504819Y-72202380D01*
X148504819Y-72202380D02*
X148457200Y-72345237D01*
X148457200Y-72345237D02*
X148361961Y-72440475D01*
X148361961Y-72440475D02*
X148266723Y-72488094D01*
X148266723Y-72488094D02*
X148076247Y-72535713D01*
X148076247Y-72535713D02*
X147933390Y-72535713D01*
X147933390Y-72535713D02*
X147742914Y-72488094D01*
X147742914Y-72488094D02*
X147647676Y-72440475D01*
X147647676Y-72440475D02*
X147552438Y-72345237D01*
X147552438Y-72345237D02*
X147504819Y-72202380D01*
X147504819Y-72202380D02*
X147504819Y-72107142D01*
X147504819Y-72107142D02*
X147552438Y-71964285D01*
X147552438Y-71964285D02*
X147600057Y-71916666D01*
X148504819Y-71440475D02*
X148504819Y-71249999D01*
X148504819Y-71249999D02*
X148457200Y-71154761D01*
X148457200Y-71154761D02*
X148409580Y-71107142D01*
X148409580Y-71107142D02*
X148266723Y-71011904D01*
X148266723Y-71011904D02*
X148076247Y-70964285D01*
X148076247Y-70964285D02*
X147695295Y-70964285D01*
X147695295Y-70964285D02*
X147600057Y-71011904D01*
X147600057Y-71011904D02*
X147552438Y-71059523D01*
X147552438Y-71059523D02*
X147504819Y-71154761D01*
X147504819Y-71154761D02*
X147504819Y-71345237D01*
X147504819Y-71345237D02*
X147552438Y-71440475D01*
X147552438Y-71440475D02*
X147600057Y-71488094D01*
X147600057Y-71488094D02*
X147695295Y-71535713D01*
X147695295Y-71535713D02*
X147933390Y-71535713D01*
X147933390Y-71535713D02*
X148028628Y-71488094D01*
X148028628Y-71488094D02*
X148076247Y-71440475D01*
X148076247Y-71440475D02*
X148123866Y-71345237D01*
X148123866Y-71345237D02*
X148123866Y-71154761D01*
X148123866Y-71154761D02*
X148076247Y-71059523D01*
X148076247Y-71059523D02*
X148028628Y-71011904D01*
X148028628Y-71011904D02*
X147933390Y-70964285D01*
X153183333Y-58109580D02*
X153135714Y-58157200D01*
X153135714Y-58157200D02*
X152992857Y-58204819D01*
X152992857Y-58204819D02*
X152897619Y-58204819D01*
X152897619Y-58204819D02*
X152754762Y-58157200D01*
X152754762Y-58157200D02*
X152659524Y-58061961D01*
X152659524Y-58061961D02*
X152611905Y-57966723D01*
X152611905Y-57966723D02*
X152564286Y-57776247D01*
X152564286Y-57776247D02*
X152564286Y-57633390D01*
X152564286Y-57633390D02*
X152611905Y-57442914D01*
X152611905Y-57442914D02*
X152659524Y-57347676D01*
X152659524Y-57347676D02*
X152754762Y-57252438D01*
X152754762Y-57252438D02*
X152897619Y-57204819D01*
X152897619Y-57204819D02*
X152992857Y-57204819D01*
X152992857Y-57204819D02*
X153135714Y-57252438D01*
X153135714Y-57252438D02*
X153183333Y-57300057D01*
X153516667Y-57204819D02*
X154183333Y-57204819D01*
X154183333Y-57204819D02*
X153754762Y-58204819D01*
X151033333Y-69959580D02*
X150985714Y-70007200D01*
X150985714Y-70007200D02*
X150842857Y-70054819D01*
X150842857Y-70054819D02*
X150747619Y-70054819D01*
X150747619Y-70054819D02*
X150604762Y-70007200D01*
X150604762Y-70007200D02*
X150509524Y-69911961D01*
X150509524Y-69911961D02*
X150461905Y-69816723D01*
X150461905Y-69816723D02*
X150414286Y-69626247D01*
X150414286Y-69626247D02*
X150414286Y-69483390D01*
X150414286Y-69483390D02*
X150461905Y-69292914D01*
X150461905Y-69292914D02*
X150509524Y-69197676D01*
X150509524Y-69197676D02*
X150604762Y-69102438D01*
X150604762Y-69102438D02*
X150747619Y-69054819D01*
X150747619Y-69054819D02*
X150842857Y-69054819D01*
X150842857Y-69054819D02*
X150985714Y-69102438D01*
X150985714Y-69102438D02*
X151033333Y-69150057D01*
X151890476Y-69054819D02*
X151700000Y-69054819D01*
X151700000Y-69054819D02*
X151604762Y-69102438D01*
X151604762Y-69102438D02*
X151557143Y-69150057D01*
X151557143Y-69150057D02*
X151461905Y-69292914D01*
X151461905Y-69292914D02*
X151414286Y-69483390D01*
X151414286Y-69483390D02*
X151414286Y-69864342D01*
X151414286Y-69864342D02*
X151461905Y-69959580D01*
X151461905Y-69959580D02*
X151509524Y-70007200D01*
X151509524Y-70007200D02*
X151604762Y-70054819D01*
X151604762Y-70054819D02*
X151795238Y-70054819D01*
X151795238Y-70054819D02*
X151890476Y-70007200D01*
X151890476Y-70007200D02*
X151938095Y-69959580D01*
X151938095Y-69959580D02*
X151985714Y-69864342D01*
X151985714Y-69864342D02*
X151985714Y-69626247D01*
X151985714Y-69626247D02*
X151938095Y-69531009D01*
X151938095Y-69531009D02*
X151890476Y-69483390D01*
X151890476Y-69483390D02*
X151795238Y-69435771D01*
X151795238Y-69435771D02*
X151604762Y-69435771D01*
X151604762Y-69435771D02*
X151509524Y-69483390D01*
X151509524Y-69483390D02*
X151461905Y-69531009D01*
X151461905Y-69531009D02*
X151414286Y-69626247D01*
X142433333Y-78559580D02*
X142385714Y-78607200D01*
X142385714Y-78607200D02*
X142242857Y-78654819D01*
X142242857Y-78654819D02*
X142147619Y-78654819D01*
X142147619Y-78654819D02*
X142004762Y-78607200D01*
X142004762Y-78607200D02*
X141909524Y-78511961D01*
X141909524Y-78511961D02*
X141861905Y-78416723D01*
X141861905Y-78416723D02*
X141814286Y-78226247D01*
X141814286Y-78226247D02*
X141814286Y-78083390D01*
X141814286Y-78083390D02*
X141861905Y-77892914D01*
X141861905Y-77892914D02*
X141909524Y-77797676D01*
X141909524Y-77797676D02*
X142004762Y-77702438D01*
X142004762Y-77702438D02*
X142147619Y-77654819D01*
X142147619Y-77654819D02*
X142242857Y-77654819D01*
X142242857Y-77654819D02*
X142385714Y-77702438D01*
X142385714Y-77702438D02*
X142433333Y-77750057D01*
X143338095Y-77654819D02*
X142861905Y-77654819D01*
X142861905Y-77654819D02*
X142814286Y-78131009D01*
X142814286Y-78131009D02*
X142861905Y-78083390D01*
X142861905Y-78083390D02*
X142957143Y-78035771D01*
X142957143Y-78035771D02*
X143195238Y-78035771D01*
X143195238Y-78035771D02*
X143290476Y-78083390D01*
X143290476Y-78083390D02*
X143338095Y-78131009D01*
X143338095Y-78131009D02*
X143385714Y-78226247D01*
X143385714Y-78226247D02*
X143385714Y-78464342D01*
X143385714Y-78464342D02*
X143338095Y-78559580D01*
X143338095Y-78559580D02*
X143290476Y-78607200D01*
X143290476Y-78607200D02*
X143195238Y-78654819D01*
X143195238Y-78654819D02*
X142957143Y-78654819D01*
X142957143Y-78654819D02*
X142861905Y-78607200D01*
X142861905Y-78607200D02*
X142814286Y-78559580D01*
X135433333Y-78639580D02*
X135385714Y-78687200D01*
X135385714Y-78687200D02*
X135242857Y-78734819D01*
X135242857Y-78734819D02*
X135147619Y-78734819D01*
X135147619Y-78734819D02*
X135004762Y-78687200D01*
X135004762Y-78687200D02*
X134909524Y-78591961D01*
X134909524Y-78591961D02*
X134861905Y-78496723D01*
X134861905Y-78496723D02*
X134814286Y-78306247D01*
X134814286Y-78306247D02*
X134814286Y-78163390D01*
X134814286Y-78163390D02*
X134861905Y-77972914D01*
X134861905Y-77972914D02*
X134909524Y-77877676D01*
X134909524Y-77877676D02*
X135004762Y-77782438D01*
X135004762Y-77782438D02*
X135147619Y-77734819D01*
X135147619Y-77734819D02*
X135242857Y-77734819D01*
X135242857Y-77734819D02*
X135385714Y-77782438D01*
X135385714Y-77782438D02*
X135433333Y-77830057D01*
X136290476Y-78068152D02*
X136290476Y-78734819D01*
X136052381Y-77687200D02*
X135814286Y-78401485D01*
X135814286Y-78401485D02*
X136433333Y-78401485D01*
X132233333Y-75239580D02*
X132185714Y-75287200D01*
X132185714Y-75287200D02*
X132042857Y-75334819D01*
X132042857Y-75334819D02*
X131947619Y-75334819D01*
X131947619Y-75334819D02*
X131804762Y-75287200D01*
X131804762Y-75287200D02*
X131709524Y-75191961D01*
X131709524Y-75191961D02*
X131661905Y-75096723D01*
X131661905Y-75096723D02*
X131614286Y-74906247D01*
X131614286Y-74906247D02*
X131614286Y-74763390D01*
X131614286Y-74763390D02*
X131661905Y-74572914D01*
X131661905Y-74572914D02*
X131709524Y-74477676D01*
X131709524Y-74477676D02*
X131804762Y-74382438D01*
X131804762Y-74382438D02*
X131947619Y-74334819D01*
X131947619Y-74334819D02*
X132042857Y-74334819D01*
X132042857Y-74334819D02*
X132185714Y-74382438D01*
X132185714Y-74382438D02*
X132233333Y-74430057D01*
X132566667Y-74334819D02*
X133185714Y-74334819D01*
X133185714Y-74334819D02*
X132852381Y-74715771D01*
X132852381Y-74715771D02*
X132995238Y-74715771D01*
X132995238Y-74715771D02*
X133090476Y-74763390D01*
X133090476Y-74763390D02*
X133138095Y-74811009D01*
X133138095Y-74811009D02*
X133185714Y-74906247D01*
X133185714Y-74906247D02*
X133185714Y-75144342D01*
X133185714Y-75144342D02*
X133138095Y-75239580D01*
X133138095Y-75239580D02*
X133090476Y-75287200D01*
X133090476Y-75287200D02*
X132995238Y-75334819D01*
X132995238Y-75334819D02*
X132709524Y-75334819D01*
X132709524Y-75334819D02*
X132614286Y-75287200D01*
X132614286Y-75287200D02*
X132566667Y-75239580D01*
X129365833Y-66159580D02*
X129318214Y-66207200D01*
X129318214Y-66207200D02*
X129175357Y-66254819D01*
X129175357Y-66254819D02*
X129080119Y-66254819D01*
X129080119Y-66254819D02*
X128937262Y-66207200D01*
X128937262Y-66207200D02*
X128842024Y-66111961D01*
X128842024Y-66111961D02*
X128794405Y-66016723D01*
X128794405Y-66016723D02*
X128746786Y-65826247D01*
X128746786Y-65826247D02*
X128746786Y-65683390D01*
X128746786Y-65683390D02*
X128794405Y-65492914D01*
X128794405Y-65492914D02*
X128842024Y-65397676D01*
X128842024Y-65397676D02*
X128937262Y-65302438D01*
X128937262Y-65302438D02*
X129080119Y-65254819D01*
X129080119Y-65254819D02*
X129175357Y-65254819D01*
X129175357Y-65254819D02*
X129318214Y-65302438D01*
X129318214Y-65302438D02*
X129365833Y-65350057D01*
X129746786Y-65350057D02*
X129794405Y-65302438D01*
X129794405Y-65302438D02*
X129889643Y-65254819D01*
X129889643Y-65254819D02*
X130127738Y-65254819D01*
X130127738Y-65254819D02*
X130222976Y-65302438D01*
X130222976Y-65302438D02*
X130270595Y-65350057D01*
X130270595Y-65350057D02*
X130318214Y-65445295D01*
X130318214Y-65445295D02*
X130318214Y-65540533D01*
X130318214Y-65540533D02*
X130270595Y-65683390D01*
X130270595Y-65683390D02*
X129699167Y-66254819D01*
X129699167Y-66254819D02*
X130318214Y-66254819D01*
X146833333Y-69959580D02*
X146785714Y-70007200D01*
X146785714Y-70007200D02*
X146642857Y-70054819D01*
X146642857Y-70054819D02*
X146547619Y-70054819D01*
X146547619Y-70054819D02*
X146404762Y-70007200D01*
X146404762Y-70007200D02*
X146309524Y-69911961D01*
X146309524Y-69911961D02*
X146261905Y-69816723D01*
X146261905Y-69816723D02*
X146214286Y-69626247D01*
X146214286Y-69626247D02*
X146214286Y-69483390D01*
X146214286Y-69483390D02*
X146261905Y-69292914D01*
X146261905Y-69292914D02*
X146309524Y-69197676D01*
X146309524Y-69197676D02*
X146404762Y-69102438D01*
X146404762Y-69102438D02*
X146547619Y-69054819D01*
X146547619Y-69054819D02*
X146642857Y-69054819D01*
X146642857Y-69054819D02*
X146785714Y-69102438D01*
X146785714Y-69102438D02*
X146833333Y-69150057D01*
X147785714Y-70054819D02*
X147214286Y-70054819D01*
X147500000Y-70054819D02*
X147500000Y-69054819D01*
X147500000Y-69054819D02*
X147404762Y-69197676D01*
X147404762Y-69197676D02*
X147309524Y-69292914D01*
X147309524Y-69292914D02*
X147214286Y-69340533D01*
D12*
%TO.C,D6*%
X149400000Y-96900000D02*
X149400000Y-97000000D01*
D11*
X152650000Y-95825000D02*
X154625000Y-95825000D01*
X152800000Y-96950000D02*
X152625000Y-96950000D01*
X154625000Y-95825000D02*
X154625000Y-96950000D01*
X154625000Y-96950000D02*
X152800000Y-96950000D01*
D12*
X149400000Y-97000000D02*
X152600000Y-97000000D01*
X152600000Y-94200000D01*
X149400000Y-94200000D01*
X149400000Y-97000000D01*
%TO.C,D5*%
X140785503Y-106785312D02*
X140785503Y-106685312D01*
D11*
X137535503Y-107860312D02*
X135560503Y-107860312D01*
X137385503Y-106735312D02*
X137560503Y-106735312D01*
X135560503Y-107860312D02*
X135560503Y-106735312D01*
X135560503Y-106735312D02*
X137385503Y-106735312D01*
D12*
X140785503Y-106685312D02*
X137585503Y-106685312D01*
X137585503Y-109485312D01*
X140785503Y-109485312D01*
X140785503Y-106685312D01*
%TO.C,D4*%
X126000000Y-96900000D02*
X126000000Y-97000000D01*
D11*
X129250000Y-95825000D02*
X131225000Y-95825000D01*
X129400000Y-96950000D02*
X129225000Y-96950000D01*
X131225000Y-95825000D02*
X131225000Y-96950000D01*
X131225000Y-96950000D02*
X129400000Y-96950000D01*
D12*
X126000000Y-97000000D02*
X129200000Y-97000000D01*
X129200000Y-94200000D01*
X126000000Y-94200000D01*
X126000000Y-97000000D01*
%TO.C,D3*%
X137600000Y-84100000D02*
X137600000Y-84200000D01*
D11*
X140850000Y-83025000D02*
X142825000Y-83025000D01*
X141000000Y-84150000D02*
X140825000Y-84150000D01*
X142825000Y-83025000D02*
X142825000Y-84150000D01*
X142825000Y-84150000D02*
X141000000Y-84150000D01*
D12*
X137600000Y-84200000D02*
X140800000Y-84200000D01*
X140800000Y-81400000D01*
X137600000Y-81400000D01*
X137600000Y-84200000D01*
D13*
%TO.C,kibuzzard-691E3A1E*%
G36*
X151255556Y-123411378D02*
G01*
X150957511Y-123411378D01*
X150827325Y-123411378D01*
X149938913Y-123411378D01*
X149442489Y-123411378D01*
X149144444Y-123411378D01*
X148765618Y-123411378D01*
X149077563Y-122371559D01*
X149456795Y-122371559D01*
X149471102Y-122470987D01*
X149810157Y-123216338D01*
X149858798Y-123269986D01*
X149938913Y-123287868D01*
X150012589Y-123268555D01*
X150061946Y-123216338D01*
X150347637Y-122588298D01*
X150466810Y-122588298D01*
X150511159Y-122682718D01*
X150596280Y-122732790D01*
X150684263Y-122691302D01*
X150698569Y-122678426D01*
X150698569Y-123161974D01*
X150727182Y-123263548D01*
X150827325Y-123292160D01*
X150928898Y-123263548D01*
X150957511Y-123163405D01*
X150957511Y-122419485D01*
X150928898Y-122317196D01*
X150828755Y-122287868D01*
X150731474Y-122312189D01*
X150708584Y-122330787D01*
X150526896Y-122493877D01*
X150483262Y-122542518D01*
X150466810Y-122588298D01*
X150347637Y-122588298D01*
X150401001Y-122470987D01*
X150417454Y-122372275D01*
X150335193Y-122303605D01*
X150229328Y-122282861D01*
X150162089Y-122363691D01*
X149936052Y-122920200D01*
X149710014Y-122363691D01*
X149644206Y-122282146D01*
X149536910Y-122303605D01*
X149456795Y-122371559D01*
X149077563Y-122371559D01*
X149144444Y-122148622D01*
X149442489Y-122148622D01*
X150957511Y-122148622D01*
X151255556Y-122148622D01*
X151634382Y-122148622D01*
X151255556Y-123411378D01*
G37*
%TO.C,kibuzzard-691E3A0F*%
G36*
X138185503Y-123514688D02*
G01*
X137678827Y-123514688D01*
X137114592Y-123514688D01*
X135835336Y-123514688D01*
X135008441Y-123514688D01*
X133245207Y-123514688D01*
X130883691Y-123514688D01*
X130428898Y-123514688D01*
X129672532Y-123514688D01*
X128789700Y-123514688D01*
X126542489Y-123514688D01*
X126321173Y-123514688D01*
X125814497Y-123514688D01*
X125814497Y-121801717D01*
X126321173Y-121801717D01*
X126321173Y-123056652D01*
X126324821Y-123141774D01*
X126347926Y-123209871D01*
X126416023Y-123265808D01*
X126542489Y-123282833D01*
X127138340Y-123282833D01*
X127278994Y-123264998D01*
X127405866Y-123211493D01*
X127518956Y-123122318D01*
X127607725Y-123007471D01*
X127661636Y-122876951D01*
X127680687Y-122730758D01*
X127668931Y-122662661D01*
X127765808Y-122662661D01*
X127784859Y-122818582D01*
X127842012Y-122962073D01*
X127937268Y-123093133D01*
X128056843Y-123197171D01*
X128186958Y-123259593D01*
X128327611Y-123280401D01*
X128466845Y-123258512D01*
X128582976Y-123192847D01*
X128651681Y-123258512D01*
X128789700Y-123280401D01*
X128916166Y-123263376D01*
X128984263Y-123208655D01*
X129007368Y-123144206D01*
X129011016Y-123061516D01*
X129011016Y-122271102D01*
X129007368Y-122189628D01*
X128984263Y-122122747D01*
X128917382Y-122066810D01*
X128792132Y-122049785D01*
X128644993Y-122074714D01*
X128582976Y-122149499D01*
X128470494Y-122076538D01*
X128327611Y-122052217D01*
X128188174Y-122073025D01*
X128058464Y-122135447D01*
X127938484Y-122239485D01*
X127842553Y-122369735D01*
X127784994Y-122510793D01*
X127765808Y-122662661D01*
X127668931Y-122662661D01*
X127648462Y-122544099D01*
X127551788Y-122373247D01*
X127611981Y-122243133D01*
X127632046Y-122100858D01*
X127615292Y-121966150D01*
X127565029Y-121844142D01*
X127481259Y-121734835D01*
X127449168Y-121709299D01*
X129169099Y-121709299D01*
X129169099Y-122786695D01*
X129175179Y-122935354D01*
X129193419Y-123050572D01*
X129283405Y-123201359D01*
X129434192Y-123269456D01*
X129536338Y-123281313D01*
X129672532Y-123285265D01*
X129726037Y-123281617D01*
X129773462Y-123259728D01*
X129814807Y-123192847D01*
X129828183Y-123066381D01*
X129814807Y-122947210D01*
X129773462Y-122883977D01*
X129726037Y-122863305D01*
X129674964Y-122859657D01*
X129617811Y-122846280D01*
X129609299Y-122759943D01*
X129609299Y-121711731D01*
X129609156Y-121709299D01*
X129925465Y-121709299D01*
X129925465Y-122786695D01*
X129931545Y-122935354D01*
X129949785Y-123050572D01*
X130039771Y-123201359D01*
X130190558Y-123269456D01*
X130292704Y-123281313D01*
X130428898Y-123285265D01*
X130482403Y-123281617D01*
X130529828Y-123259728D01*
X130571173Y-123192847D01*
X130584549Y-123066381D01*
X130571173Y-122947210D01*
X130529828Y-122883977D01*
X130482403Y-122863305D01*
X130431330Y-122859657D01*
X130374177Y-122846280D01*
X130365665Y-122759943D01*
X130365665Y-121804149D01*
X130664807Y-121804149D01*
X130664807Y-123059084D01*
X130669671Y-123144206D01*
X130692775Y-123211087D01*
X130758441Y-123265808D01*
X130883691Y-123282833D01*
X131012589Y-123265808D01*
X131080687Y-123211087D01*
X131103791Y-123145422D01*
X131107439Y-123063948D01*
X131107439Y-122370815D01*
X131389557Y-122755079D01*
X131469814Y-122829864D01*
X131579256Y-122854793D01*
X131646137Y-122847496D01*
X131697210Y-122825608D01*
X131728827Y-122801288D01*
X131751931Y-122774535D01*
X131766524Y-122755079D01*
X132051073Y-122368383D01*
X132051073Y-123059084D01*
X132054721Y-123142990D01*
X132077825Y-123209871D01*
X132145923Y-123265808D01*
X132272389Y-123282833D01*
X132400072Y-123265808D01*
X132466953Y-123212303D01*
X132491273Y-123146638D01*
X132496137Y-123063948D01*
X132496137Y-122667525D01*
X132598283Y-122667525D01*
X132620712Y-122841687D01*
X132687999Y-122994500D01*
X132800143Y-123125966D01*
X132939310Y-123226625D01*
X133087665Y-123287021D01*
X133245207Y-123307153D01*
X133401264Y-123287426D01*
X133548402Y-123228247D01*
X133686624Y-123129614D01*
X133798093Y-122999094D01*
X133864974Y-122844254D01*
X133887268Y-122665093D01*
X133866325Y-122494309D01*
X133803497Y-122341901D01*
X133746285Y-122268670D01*
X133994278Y-122268670D01*
X133994278Y-122665093D01*
X134011842Y-122829391D01*
X134064537Y-122975314D01*
X134152361Y-123102861D01*
X134266396Y-123201494D01*
X134397727Y-123260674D01*
X134546352Y-123280401D01*
X134678290Y-123252432D01*
X134796853Y-123168526D01*
X134863126Y-123254256D01*
X135008441Y-123282833D01*
X135115451Y-123269456D01*
X135181116Y-123239056D01*
X135215165Y-123189199D01*
X135228541Y-123133262D01*
X135229573Y-123078541D01*
X135339199Y-123078541D01*
X135381456Y-123167918D01*
X135508226Y-123241488D01*
X135674517Y-123290737D01*
X135835336Y-123307153D01*
X136030581Y-123290323D01*
X136182438Y-123239834D01*
X136290907Y-123155685D01*
X136355989Y-123037877D01*
X136377682Y-122886409D01*
X136344850Y-122711302D01*
X136311858Y-122672389D01*
X136450644Y-122672389D01*
X136460068Y-122783047D01*
X136488340Y-122891273D01*
X136535157Y-122995851D01*
X136600215Y-123095565D01*
X136689288Y-123183423D01*
X136808155Y-123252432D01*
X136951645Y-123297121D01*
X137114592Y-123312017D01*
X137335908Y-123298185D01*
X137493991Y-123256688D01*
X137588841Y-123187527D01*
X137620458Y-123090701D01*
X137588841Y-122978827D01*
X137523176Y-122891273D01*
X137442918Y-122862089D01*
X137331044Y-122893705D01*
X137134049Y-122925322D01*
X136990558Y-122891273D01*
X136917597Y-122798856D01*
X137435622Y-122798856D01*
X137534424Y-122780311D01*
X137611946Y-122724678D01*
X137662107Y-122634996D01*
X137678827Y-122514306D01*
X137642650Y-122343455D01*
X137534120Y-122181116D01*
X137423462Y-122093292D01*
X137284430Y-122040598D01*
X137117024Y-122023033D01*
X136932864Y-122043165D01*
X136772755Y-122103561D01*
X136636695Y-122204220D01*
X136533333Y-122336767D01*
X136471316Y-122492823D01*
X136450644Y-122672389D01*
X136311858Y-122672389D01*
X136250000Y-122599428D01*
X136133262Y-122543491D01*
X136000715Y-122511874D01*
X135961803Y-122505794D01*
X135922890Y-122499714D01*
X135888841Y-122492418D01*
X135857225Y-122483906D01*
X135830472Y-122475393D01*
X135807368Y-122464449D01*
X135791559Y-122451073D01*
X135780615Y-122434049D01*
X135776967Y-122412160D01*
X135866953Y-122363519D01*
X136017740Y-122407296D01*
X136151502Y-122451073D01*
X136273104Y-122358655D01*
X136326001Y-122206652D01*
X136231760Y-122105722D01*
X136062124Y-122045529D01*
X135893705Y-122025465D01*
X135738730Y-122036409D01*
X135611048Y-122069242D01*
X135510658Y-122123963D01*
X135413072Y-122244653D01*
X135380544Y-122409728D01*
X135399240Y-122546379D01*
X135455329Y-122657189D01*
X135548811Y-122742158D01*
X135679685Y-122801288D01*
X135811016Y-122834120D01*
X135931402Y-122868169D01*
X135966667Y-122910730D01*
X135874249Y-122949642D01*
X135693062Y-122890057D01*
X135524034Y-122830472D01*
X135429185Y-122879113D01*
X135361695Y-122992203D01*
X135339199Y-123078541D01*
X135229573Y-123078541D01*
X135229757Y-123068813D01*
X135229757Y-122268670D01*
X135226109Y-122187196D01*
X135203004Y-122120315D01*
X135134907Y-122064378D01*
X135008441Y-122047353D01*
X134880758Y-122064378D01*
X134813877Y-122119099D01*
X134790773Y-122184764D01*
X134787124Y-122266237D01*
X134787124Y-122665093D01*
X134739700Y-122792775D01*
X134612017Y-122840200D01*
X134483119Y-122793991D01*
X134436910Y-122665093D01*
X134436910Y-122271102D01*
X134433262Y-122187196D01*
X134410157Y-122120315D01*
X134342060Y-122064378D01*
X134215594Y-122047353D01*
X134089127Y-122064378D01*
X134021030Y-122119099D01*
X133997926Y-122184764D01*
X133994278Y-122268670D01*
X133746285Y-122268670D01*
X133698784Y-122207868D01*
X133564076Y-122103831D01*
X133411262Y-122041408D01*
X133240343Y-122020601D01*
X133073343Y-122041814D01*
X132922556Y-122105452D01*
X132787983Y-122211516D01*
X132682594Y-122347035D01*
X132619361Y-122499038D01*
X132598283Y-122667525D01*
X132496137Y-122667525D01*
X132496137Y-121809013D01*
X132491273Y-121723891D01*
X132468169Y-121657010D01*
X132401288Y-121602289D01*
X132274821Y-121585265D01*
X132145923Y-121599857D01*
X132072961Y-121655794D01*
X131579256Y-122290558D01*
X131083119Y-121653362D01*
X131067310Y-121636338D01*
X131049070Y-121618097D01*
X131028398Y-121605937D01*
X130996781Y-121594993D01*
X130953004Y-121588913D01*
X130888555Y-121585265D01*
X130759657Y-121602289D01*
X130691559Y-121657010D01*
X130668455Y-121722675D01*
X130664807Y-121804149D01*
X130365665Y-121804149D01*
X130365665Y-121711731D01*
X130360801Y-121629041D01*
X130337697Y-121560944D01*
X130272031Y-121505007D01*
X130146781Y-121487983D01*
X130020315Y-121505007D01*
X129952217Y-121559728D01*
X129929113Y-121625393D01*
X129925465Y-121709299D01*
X129609156Y-121709299D01*
X129604435Y-121629041D01*
X129581330Y-121560944D01*
X129515665Y-121505007D01*
X129390415Y-121487983D01*
X129263948Y-121505007D01*
X129195851Y-121559728D01*
X129172747Y-121625393D01*
X129169099Y-121709299D01*
X127449168Y-121709299D01*
X127373438Y-121649038D01*
X127251025Y-121597560D01*
X127114020Y-121580401D01*
X126544921Y-121580401D01*
X126416023Y-121597425D01*
X126347926Y-121653362D01*
X126324821Y-121720243D01*
X126321173Y-121801717D01*
X125814497Y-121801717D01*
X125814497Y-121285312D01*
X126321173Y-121285312D01*
X137678827Y-121285312D01*
X138185503Y-121285312D01*
X138185503Y-123514688D01*
G37*
G36*
X127161445Y-122044921D02*
G01*
X127186981Y-122120315D01*
X127169957Y-122195708D01*
X127111588Y-122212732D01*
X127082403Y-122212732D01*
X126934049Y-122252861D01*
X126890272Y-122392704D01*
X126931617Y-122537411D01*
X127070243Y-122579971D01*
X127101860Y-122579971D01*
X127204006Y-122603076D01*
X127235622Y-122704006D01*
X127222246Y-122780615D01*
X127185765Y-122821960D01*
X127148069Y-122835336D01*
X127114020Y-122837768D01*
X126766237Y-122837768D01*
X126766237Y-122025465D01*
X127060515Y-122025465D01*
X127161445Y-122044921D01*
G37*
G36*
X133386266Y-122519170D02*
G01*
X133442203Y-122662661D01*
X133376538Y-122813448D01*
X133240343Y-122862089D01*
X133106581Y-122813448D01*
X133043348Y-122665093D01*
X133100501Y-122522818D01*
X133237911Y-122465665D01*
X133386266Y-122519170D01*
G37*
G36*
X128506366Y-122541059D02*
G01*
X128556223Y-122665093D01*
X128506366Y-122787911D01*
X128388412Y-122840200D01*
X128260730Y-122787911D01*
X128206009Y-122667525D01*
X128258298Y-122543491D01*
X128383548Y-122489986D01*
X128506366Y-122541059D01*
G37*
G36*
X137216738Y-122440129D02*
G01*
X137255651Y-122511874D01*
X137189986Y-122570243D01*
X136917597Y-122570243D01*
X136974750Y-122462017D01*
X137112160Y-122414592D01*
X137216738Y-122440129D01*
G37*
%TO.C,kibuzzard-691E39CE*%
G36*
X124050811Y-76160753D02*
G01*
X123544134Y-76160753D01*
X122712375Y-76160753D01*
X121946280Y-76160753D01*
X120248712Y-76160753D01*
X119331831Y-76160753D01*
X118714092Y-76160753D01*
X116919242Y-76160753D01*
X116055866Y-76160753D01*
X115549189Y-76160753D01*
X115549189Y-74373605D01*
X116099642Y-74373605D01*
X116123963Y-74542632D01*
X116700358Y-75809728D01*
X116783047Y-75900930D01*
X116919242Y-75931330D01*
X117044492Y-75898498D01*
X117128398Y-75809728D01*
X117463614Y-75072818D01*
X117833691Y-75072818D01*
X117849195Y-75249750D01*
X117895708Y-75410873D01*
X117965933Y-75550411D01*
X118052575Y-75662589D01*
X118153809Y-75753791D01*
X118267811Y-75830401D01*
X118386373Y-75889682D01*
X118501288Y-75928898D01*
X118611034Y-75950787D01*
X118714092Y-75958083D01*
X118871364Y-75942950D01*
X119022151Y-75897552D01*
X119166452Y-75821888D01*
X119266166Y-75747711D01*
X119300215Y-75658941D01*
X119246710Y-75517883D01*
X119159156Y-75413913D01*
X119076466Y-75379256D01*
X118954864Y-75427897D01*
X118832654Y-75488090D01*
X118704363Y-75508155D01*
X118519528Y-75469242D01*
X118431670Y-75414825D01*
X118352933Y-75329399D01*
X118297300Y-75217829D01*
X118278755Y-75084979D01*
X118279971Y-75072818D01*
X119368312Y-75072818D01*
X119383816Y-75249750D01*
X119430329Y-75410873D01*
X119500554Y-75550411D01*
X119587196Y-75662589D01*
X119688430Y-75753791D01*
X119802432Y-75830401D01*
X119920994Y-75889682D01*
X120035908Y-75928898D01*
X120145655Y-75950787D01*
X120248712Y-75958083D01*
X120405985Y-75942950D01*
X120556772Y-75897552D01*
X120701073Y-75821888D01*
X120800787Y-75747711D01*
X120834835Y-75658941D01*
X120781330Y-75517883D01*
X120693777Y-75413913D01*
X120611087Y-75379256D01*
X120489485Y-75427897D01*
X120367275Y-75488090D01*
X120238984Y-75508155D01*
X120054149Y-75469242D01*
X119966291Y-75414825D01*
X119887554Y-75329399D01*
X119831921Y-75217829D01*
X119813376Y-75084979D01*
X119823712Y-74981617D01*
X119854721Y-74890415D01*
X119962947Y-74757868D01*
X120100358Y-74686123D01*
X120238984Y-74661803D01*
X120297353Y-74664235D01*
X120345994Y-74672747D01*
X120384907Y-74682475D01*
X120417740Y-74694635D01*
X120440844Y-74708011D01*
X120461516Y-74721388D01*
X120477325Y-74732332D01*
X120608655Y-74788269D01*
X120692561Y-74755436D01*
X120783763Y-74656938D01*
X120837268Y-74520744D01*
X120814163Y-74447783D01*
X120769170Y-74396710D01*
X120703505Y-74350501D01*
X120611087Y-74304943D01*
X120550016Y-74274837D01*
X120400850Y-74229439D01*
X120256009Y-74214306D01*
X120148695Y-74221602D01*
X120035908Y-74243491D01*
X119919170Y-74282099D01*
X119800000Y-74339557D01*
X119685998Y-74413734D01*
X119584764Y-74502504D01*
X119498426Y-74611642D01*
X119429113Y-74746924D01*
X119383512Y-74902575D01*
X119368312Y-75072818D01*
X118279971Y-75072818D01*
X118289092Y-74981617D01*
X118320100Y-74890415D01*
X118428326Y-74757868D01*
X118565737Y-74686123D01*
X118704363Y-74661803D01*
X118762732Y-74664235D01*
X118811373Y-74672747D01*
X118850286Y-74682475D01*
X118883119Y-74694635D01*
X118906223Y-74708011D01*
X118926896Y-74721388D01*
X118942704Y-74732332D01*
X119074034Y-74788269D01*
X119157940Y-74755436D01*
X119249142Y-74656938D01*
X119302647Y-74520744D01*
X119279542Y-74447783D01*
X119234549Y-74396710D01*
X119168884Y-74350501D01*
X119015395Y-74274837D01*
X118866230Y-74229439D01*
X118721388Y-74214306D01*
X118614074Y-74221602D01*
X118501288Y-74243491D01*
X118384549Y-74282099D01*
X118265379Y-74339557D01*
X118198498Y-74383074D01*
X118151377Y-74413734D01*
X118050143Y-74502504D01*
X117963805Y-74611642D01*
X117894492Y-74746924D01*
X117848891Y-74902575D01*
X117833691Y-75072818D01*
X117463614Y-75072818D01*
X117704793Y-74542632D01*
X117732761Y-74374821D01*
X117592918Y-74258083D01*
X117412947Y-74222818D01*
X117298641Y-74360229D01*
X117181903Y-74647641D01*
X116914378Y-75306295D01*
X116530114Y-74360229D01*
X116418240Y-74221602D01*
X116235837Y-74258083D01*
X116099642Y-74373605D01*
X115549189Y-74373605D01*
X115549189Y-72020601D01*
X116114235Y-72020601D01*
X116114235Y-73275536D01*
X116117883Y-73359442D01*
X116140987Y-73426323D01*
X116209084Y-73482260D01*
X116335551Y-73499285D01*
X116464449Y-73482260D01*
X116532546Y-73427539D01*
X116555651Y-73361874D01*
X116559299Y-73277969D01*
X116559299Y-73042060D01*
X116785479Y-73042060D01*
X117045708Y-73394707D01*
X117181903Y-73507797D01*
X117354578Y-73440916D01*
X117471316Y-73297425D01*
X117405651Y-73129614D01*
X117230544Y-72896137D01*
X117237096Y-72888841D01*
X117534549Y-72888841D01*
X117543974Y-72999499D01*
X117572246Y-73107725D01*
X117619063Y-73212303D01*
X117684120Y-73312017D01*
X117773194Y-73399875D01*
X117892060Y-73468884D01*
X118035551Y-73513573D01*
X118198498Y-73528469D01*
X118419814Y-73514637D01*
X118577897Y-73473140D01*
X118672747Y-73403979D01*
X118704363Y-73307153D01*
X118700927Y-73294993D01*
X118835694Y-73294993D01*
X118877951Y-73384371D01*
X119004721Y-73457940D01*
X119171012Y-73507189D01*
X119331831Y-73523605D01*
X119527076Y-73506775D01*
X119678933Y-73456286D01*
X119787402Y-73372137D01*
X119852484Y-73254329D01*
X119874177Y-73102861D01*
X119841345Y-72927754D01*
X119808353Y-72888841D01*
X119947139Y-72888841D01*
X119956563Y-72999499D01*
X119984835Y-73107725D01*
X120031652Y-73212303D01*
X120096710Y-73312017D01*
X120185783Y-73399875D01*
X120304649Y-73468884D01*
X120448140Y-73513573D01*
X120611087Y-73528469D01*
X120832403Y-73514637D01*
X120990486Y-73473140D01*
X121085336Y-73403979D01*
X121116953Y-73307153D01*
X121085336Y-73195279D01*
X121019671Y-73107725D01*
X120939413Y-73078541D01*
X120827539Y-73110157D01*
X120630544Y-73141774D01*
X120487053Y-73107725D01*
X120414092Y-73015308D01*
X120932117Y-73015308D01*
X121030919Y-72996763D01*
X121108441Y-72941130D01*
X121158602Y-72851448D01*
X121175322Y-72730758D01*
X121139145Y-72559907D01*
X121092400Y-72489986D01*
X121236123Y-72489986D01*
X121268956Y-72650501D01*
X121382046Y-72704006D01*
X121442847Y-72704006D01*
X121442847Y-73012876D01*
X121456493Y-73165284D01*
X121497433Y-73288507D01*
X121565665Y-73382546D01*
X121662542Y-73448752D01*
X121789413Y-73488476D01*
X121946280Y-73501717D01*
X122025322Y-73498069D01*
X122092203Y-73474964D01*
X122149356Y-73408083D01*
X122167597Y-73282833D01*
X122153004Y-73170959D01*
X122104363Y-73111373D01*
X122038698Y-73088269D01*
X121948712Y-73083405D01*
X121896423Y-73063948D01*
X121883047Y-72990987D01*
X121883047Y-72708870D01*
X122009514Y-72711302D01*
X122092203Y-72705222D01*
X122159084Y-72679685D01*
X122212589Y-72612804D01*
X122230830Y-72492418D01*
X122217454Y-72384192D01*
X122185837Y-72317310D01*
X122133548Y-72283262D01*
X122076395Y-72269886D01*
X122011946Y-72268670D01*
X121883047Y-72273534D01*
X121883047Y-72078970D01*
X121878183Y-71997496D01*
X121853863Y-71929399D01*
X121786981Y-71874678D01*
X121664163Y-71857654D01*
X121536481Y-71873462D01*
X121469599Y-71924535D01*
X121446495Y-71987768D01*
X121442847Y-72069242D01*
X121442847Y-72280830D01*
X121391774Y-72280830D01*
X121377182Y-72287366D01*
X121275036Y-72333119D01*
X121236123Y-72489986D01*
X121092400Y-72489986D01*
X121030615Y-72397568D01*
X120958870Y-72340627D01*
X120919957Y-72309744D01*
X120780925Y-72257050D01*
X120613519Y-72239485D01*
X120429359Y-72259617D01*
X120269250Y-72320013D01*
X120133190Y-72420672D01*
X120029828Y-72553219D01*
X119967811Y-72709275D01*
X119947139Y-72888841D01*
X119808353Y-72888841D01*
X119746495Y-72815880D01*
X119629757Y-72759943D01*
X119497210Y-72728326D01*
X119458298Y-72722246D01*
X119419385Y-72716166D01*
X119385336Y-72708870D01*
X119353720Y-72700358D01*
X119326967Y-72691845D01*
X119303863Y-72680901D01*
X119288054Y-72667525D01*
X119277110Y-72650501D01*
X119273462Y-72628612D01*
X119363448Y-72579971D01*
X119514235Y-72623748D01*
X119647997Y-72667525D01*
X119769599Y-72575107D01*
X119822496Y-72423104D01*
X119728255Y-72322175D01*
X119558619Y-72261981D01*
X119548283Y-72260750D01*
X119390200Y-72241917D01*
X119235225Y-72252861D01*
X119107543Y-72285694D01*
X119007153Y-72340415D01*
X118909567Y-72461105D01*
X118877039Y-72626180D01*
X118895735Y-72762831D01*
X118951824Y-72873641D01*
X119045306Y-72958611D01*
X119176180Y-73017740D01*
X119307511Y-73050572D01*
X119427897Y-73084621D01*
X119463162Y-73127182D01*
X119370744Y-73166094D01*
X119189557Y-73106509D01*
X119020529Y-73046924D01*
X118925680Y-73095565D01*
X118858190Y-73208655D01*
X118835694Y-73294993D01*
X118700927Y-73294993D01*
X118672747Y-73195279D01*
X118607082Y-73107725D01*
X118526824Y-73078541D01*
X118414950Y-73110157D01*
X118217954Y-73141774D01*
X118074464Y-73107725D01*
X118001502Y-73015308D01*
X118519528Y-73015308D01*
X118618330Y-72996763D01*
X118695851Y-72941130D01*
X118746012Y-72851448D01*
X118762732Y-72730758D01*
X118726556Y-72559907D01*
X118618026Y-72397568D01*
X118507368Y-72309744D01*
X118368336Y-72257050D01*
X118200930Y-72239485D01*
X118191202Y-72240548D01*
X118016770Y-72259617D01*
X117856660Y-72320013D01*
X117720601Y-72420672D01*
X117617239Y-72553219D01*
X117555222Y-72709275D01*
X117534549Y-72888841D01*
X117237096Y-72888841D01*
X117349444Y-72763726D01*
X117420784Y-72606454D01*
X117444564Y-72424320D01*
X117429363Y-72279918D01*
X117383763Y-72148283D01*
X117314145Y-72036105D01*
X117226896Y-71950072D01*
X117129006Y-71885622D01*
X117027468Y-71838197D01*
X116925626Y-71809013D01*
X116826824Y-71799285D01*
X116337983Y-71799285D01*
X116323391Y-71801212D01*
X116209084Y-71816309D01*
X116140987Y-71872246D01*
X116117883Y-71939127D01*
X116114235Y-72020601D01*
X115549189Y-72020601D01*
X115549189Y-69586123D01*
X116102074Y-69586123D01*
X116102074Y-70841059D01*
X116105722Y-70926180D01*
X116128827Y-70994278D01*
X116196924Y-71050215D01*
X116323391Y-71067239D01*
X116919242Y-71067239D01*
X117059895Y-71049404D01*
X117186767Y-70995899D01*
X117299857Y-70906724D01*
X117388627Y-70791877D01*
X117442537Y-70661357D01*
X117461588Y-70515165D01*
X117450671Y-70451931D01*
X117544278Y-70451931D01*
X117566706Y-70626093D01*
X117633993Y-70778906D01*
X117746137Y-70910372D01*
X117885304Y-71011032D01*
X118033659Y-71071427D01*
X118191202Y-71091559D01*
X118347258Y-71071833D01*
X118494397Y-71012653D01*
X118632618Y-70914020D01*
X118744087Y-70783500D01*
X118810968Y-70628660D01*
X118832959Y-70451931D01*
X118901359Y-70451931D01*
X118923788Y-70626093D01*
X118991075Y-70778906D01*
X119103219Y-70910372D01*
X119242386Y-71011032D01*
X119390741Y-71071427D01*
X119548283Y-71091559D01*
X119704340Y-71071833D01*
X119851478Y-71012653D01*
X119989700Y-70914020D01*
X120101168Y-70783500D01*
X120168050Y-70628660D01*
X120190343Y-70449499D01*
X120169401Y-70278716D01*
X120106573Y-70126307D01*
X120053161Y-70057940D01*
X120248712Y-70057940D01*
X120281545Y-70218455D01*
X120394635Y-70271960D01*
X120455436Y-70271960D01*
X120455436Y-70580830D01*
X120469083Y-70733238D01*
X120510022Y-70856462D01*
X120578255Y-70950501D01*
X120675131Y-71016706D01*
X120802003Y-71056430D01*
X120958870Y-71069671D01*
X121037911Y-71066023D01*
X121104793Y-71042918D01*
X121161946Y-70976037D01*
X121180186Y-70850787D01*
X121165594Y-70738913D01*
X121116953Y-70679328D01*
X121051288Y-70656223D01*
X120961302Y-70651359D01*
X120909013Y-70631903D01*
X120895637Y-70558941D01*
X120895637Y-70276824D01*
X121022103Y-70279256D01*
X121104793Y-70273176D01*
X121171674Y-70247639D01*
X121225179Y-70180758D01*
X121243419Y-70060372D01*
X121230043Y-69952146D01*
X121198426Y-69885265D01*
X121146137Y-69851216D01*
X121088984Y-69837840D01*
X121024535Y-69836624D01*
X120895637Y-69841488D01*
X120895637Y-69646924D01*
X120890773Y-69565451D01*
X120866452Y-69497353D01*
X120799571Y-69442632D01*
X120676753Y-69425608D01*
X120549070Y-69441416D01*
X120482189Y-69492489D01*
X120459084Y-69555722D01*
X120455436Y-69637196D01*
X120455436Y-69848784D01*
X120404363Y-69848784D01*
X120287625Y-69901073D01*
X120248712Y-70057940D01*
X120053161Y-70057940D01*
X120001860Y-69992275D01*
X119867151Y-69888237D01*
X119776896Y-69851369D01*
X119714338Y-69825815D01*
X119543419Y-69805007D01*
X119376419Y-69826220D01*
X119225632Y-69889859D01*
X119091059Y-69995923D01*
X118985670Y-70131442D01*
X118922437Y-70283445D01*
X118901359Y-70451931D01*
X118832959Y-70451931D01*
X118833262Y-70449499D01*
X118812319Y-70278716D01*
X118749491Y-70126307D01*
X118644778Y-69992275D01*
X118510070Y-69888237D01*
X118458727Y-69867264D01*
X118357256Y-69825815D01*
X118186338Y-69805007D01*
X118019337Y-69826220D01*
X117868550Y-69889859D01*
X117733977Y-69995923D01*
X117628588Y-70131442D01*
X117565355Y-70283445D01*
X117544278Y-70451931D01*
X117450671Y-70451931D01*
X117429363Y-70328505D01*
X117332690Y-70157654D01*
X117392883Y-70027539D01*
X117412947Y-69885265D01*
X117396193Y-69750556D01*
X117345931Y-69628549D01*
X117262160Y-69519242D01*
X117154340Y-69433445D01*
X117031927Y-69381966D01*
X116919242Y-69367853D01*
X116894921Y-69364807D01*
X116325823Y-69364807D01*
X116196924Y-69381831D01*
X116128827Y-69437768D01*
X116105722Y-69504649D01*
X116102074Y-69586123D01*
X115549189Y-69586123D01*
X115549189Y-67077468D01*
X116099642Y-67077468D01*
X116123963Y-67246495D01*
X116700358Y-68513591D01*
X116783047Y-68604793D01*
X116919242Y-68635193D01*
X117044492Y-68602361D01*
X117128398Y-68513591D01*
X117253413Y-68238770D01*
X117836123Y-68238770D01*
X117896924Y-68396853D01*
X117911516Y-68413877D01*
X117938269Y-68447926D01*
X117980830Y-68490486D01*
X118039199Y-68537911D01*
X118114592Y-68584120D01*
X118208226Y-68624249D01*
X118322532Y-68651001D01*
X118458727Y-68661946D01*
X118620458Y-68643705D01*
X118787053Y-68581688D01*
X118936624Y-68473462D01*
X119042418Y-68309299D01*
X119063209Y-68238770D01*
X119154292Y-68238770D01*
X119215093Y-68396853D01*
X119229685Y-68413877D01*
X119256438Y-68447926D01*
X119298999Y-68490486D01*
X119357368Y-68537911D01*
X119432761Y-68584120D01*
X119526395Y-68624249D01*
X119640701Y-68651001D01*
X119776896Y-68661946D01*
X119938627Y-68643705D01*
X120105222Y-68581688D01*
X120254793Y-68473462D01*
X120360587Y-68309299D01*
X120391595Y-68204113D01*
X120401931Y-68087983D01*
X120379131Y-67906187D01*
X120310730Y-67774249D01*
X120204024Y-67681831D01*
X120066309Y-67618598D01*
X119910658Y-67580901D01*
X119762303Y-67550501D01*
X119666237Y-67507940D01*
X119623677Y-67428898D01*
X119662589Y-67354721D01*
X119752575Y-67324320D01*
X119832833Y-67332833D01*
X119880258Y-67351073D01*
X119914306Y-67379041D01*
X119942275Y-67402146D01*
X120105222Y-67447139D01*
X120248712Y-67329185D01*
X120307082Y-67179614D01*
X120219528Y-67054363D01*
X120093332Y-66973295D01*
X119938491Y-66924654D01*
X119755007Y-66908441D01*
X119599086Y-66924789D01*
X119462081Y-66973836D01*
X119343991Y-67055579D01*
X119253465Y-67162184D01*
X119224821Y-67227381D01*
X119199150Y-67285813D01*
X119181044Y-67426466D01*
X119200501Y-67584549D01*
X119258870Y-67715880D01*
X119356152Y-67820458D01*
X119492346Y-67898283D01*
X119584460Y-67931420D01*
X119700286Y-67962732D01*
X119891202Y-68019886D01*
X119954435Y-68095279D01*
X119910658Y-68208369D01*
X119767167Y-68243634D01*
X119671102Y-68220529D01*
X119572604Y-68131760D01*
X119462891Y-68043125D01*
X119357503Y-68026911D01*
X119256438Y-68083119D01*
X119154292Y-68238770D01*
X119063209Y-68238770D01*
X119073426Y-68204113D01*
X119083763Y-68087983D01*
X119060962Y-67906187D01*
X118992561Y-67774249D01*
X118885855Y-67681831D01*
X118748140Y-67618598D01*
X118592489Y-67580901D01*
X118444134Y-67550501D01*
X118348069Y-67507940D01*
X118305508Y-67428898D01*
X118344421Y-67354721D01*
X118434406Y-67324320D01*
X118514664Y-67332833D01*
X118562089Y-67351073D01*
X118596137Y-67379041D01*
X118624106Y-67402146D01*
X118787053Y-67447139D01*
X118930544Y-67329185D01*
X118988913Y-67179614D01*
X118901359Y-67054363D01*
X118775163Y-66973295D01*
X118620323Y-66924654D01*
X118436838Y-66908441D01*
X118280917Y-66924789D01*
X118261731Y-66931658D01*
X118143912Y-66973836D01*
X118025823Y-67055579D01*
X117935296Y-67162184D01*
X117880981Y-67285813D01*
X117862876Y-67426466D01*
X117882332Y-67584549D01*
X117940701Y-67715880D01*
X118037983Y-67820458D01*
X118174177Y-67898283D01*
X118266291Y-67931420D01*
X118382117Y-67962732D01*
X118573033Y-68019886D01*
X118636266Y-68095279D01*
X118592489Y-68208369D01*
X118448999Y-68243634D01*
X118352933Y-68220529D01*
X118254435Y-68131760D01*
X118144723Y-68043125D01*
X118039334Y-68026911D01*
X117938269Y-68083119D01*
X117836123Y-68238770D01*
X117253413Y-68238770D01*
X117704793Y-67246495D01*
X117732761Y-67078684D01*
X117592918Y-66961946D01*
X117412947Y-66926681D01*
X117298641Y-67064092D01*
X116914378Y-68010157D01*
X116688197Y-67453296D01*
X116530114Y-67064092D01*
X116418240Y-66925465D01*
X116235837Y-66961946D01*
X116099642Y-67077468D01*
X115549189Y-67077468D01*
X115549189Y-65806724D01*
X116065594Y-65806724D01*
X116126395Y-65964807D01*
X116140987Y-65981831D01*
X116167740Y-66015880D01*
X116210300Y-66058441D01*
X116268670Y-66105866D01*
X116344063Y-66152074D01*
X116437697Y-66192203D01*
X116552003Y-66218956D01*
X116688197Y-66229900D01*
X116849928Y-66211660D01*
X117016524Y-66149642D01*
X117166094Y-66041416D01*
X117271888Y-65877253D01*
X117302897Y-65772067D01*
X117313233Y-65655937D01*
X117290433Y-65474142D01*
X117223292Y-65344635D01*
X117381330Y-65344635D01*
X117396835Y-65521567D01*
X117443348Y-65682690D01*
X117513573Y-65822228D01*
X117600215Y-65934406D01*
X117701448Y-66025608D01*
X117815451Y-66102217D01*
X117934013Y-66161499D01*
X118048927Y-66200715D01*
X118158673Y-66222604D01*
X118261731Y-66229900D01*
X118419003Y-66214767D01*
X118569790Y-66169369D01*
X118714092Y-66093705D01*
X118813805Y-66019528D01*
X118847854Y-65930758D01*
X118794349Y-65789700D01*
X118706795Y-65685730D01*
X118624106Y-65651073D01*
X118502504Y-65699714D01*
X118380293Y-65759907D01*
X118252003Y-65779971D01*
X118067167Y-65741059D01*
X117979310Y-65686642D01*
X117900572Y-65601216D01*
X117844939Y-65489646D01*
X117826395Y-65356795D01*
X117836731Y-65253433D01*
X117867740Y-65162232D01*
X117975966Y-65029685D01*
X118113376Y-64957940D01*
X118252003Y-64933619D01*
X118310372Y-64936052D01*
X118359013Y-64944564D01*
X118397926Y-64954292D01*
X118430758Y-64966452D01*
X118453863Y-64979828D01*
X118474535Y-64993205D01*
X118490343Y-65004149D01*
X118621674Y-65060086D01*
X118705579Y-65027253D01*
X118796781Y-64928755D01*
X118850286Y-64792561D01*
X118828723Y-64724464D01*
X119003505Y-64724464D01*
X119003505Y-65981831D01*
X119007153Y-66065737D01*
X119030258Y-66132618D01*
X119098355Y-66188555D01*
X119224821Y-66205579D01*
X120039557Y-66205579D01*
X120108870Y-66201931D01*
X120167239Y-66181259D01*
X120214664Y-66122890D01*
X120229256Y-66015880D01*
X120214664Y-65906438D01*
X120167239Y-65849285D01*
X120111302Y-65829828D01*
X120041989Y-65826180D01*
X119939843Y-65826180D01*
X119448569Y-65826180D01*
X119448569Y-64726896D01*
X119448463Y-64724464D01*
X120363019Y-64724464D01*
X120363019Y-65981831D01*
X120366667Y-66065737D01*
X120389771Y-66132618D01*
X120457868Y-66188555D01*
X120584335Y-66205579D01*
X120713233Y-66188555D01*
X120781330Y-66133834D01*
X120804435Y-66068169D01*
X120808083Y-65984263D01*
X120808083Y-65641345D01*
X121233691Y-66125322D01*
X121377182Y-66229900D01*
X121549857Y-66152074D01*
X121655651Y-65997639D01*
X121571745Y-65835908D01*
X121092632Y-65356795D01*
X121569313Y-64870386D01*
X121649571Y-64714735D01*
X121622818Y-64639950D01*
X121547425Y-64556652D01*
X121532833Y-64549843D01*
X121383262Y-64480043D01*
X121231259Y-64578541D01*
X120808083Y-65062518D01*
X120808083Y-64726896D01*
X120804435Y-64642990D01*
X120781330Y-64576109D01*
X120713233Y-64520172D01*
X120586767Y-64503147D01*
X120457868Y-64520172D01*
X120389771Y-64576109D01*
X120366667Y-64642990D01*
X120363019Y-64724464D01*
X119448463Y-64724464D01*
X119444921Y-64642990D01*
X119421817Y-64576109D01*
X119353720Y-64520172D01*
X119227253Y-64503147D01*
X119098355Y-64520172D01*
X119030258Y-64576109D01*
X119007153Y-64642990D01*
X119003505Y-64724464D01*
X118828723Y-64724464D01*
X118827182Y-64719599D01*
X118782189Y-64668526D01*
X118716524Y-64622318D01*
X118563034Y-64546654D01*
X118413869Y-64501256D01*
X118269027Y-64486123D01*
X118161713Y-64493419D01*
X118052575Y-64514600D01*
X118048927Y-64515308D01*
X117932189Y-64553916D01*
X117813019Y-64611373D01*
X117699016Y-64685551D01*
X117597783Y-64774320D01*
X117511445Y-64883459D01*
X117442132Y-65018741D01*
X117396531Y-65174392D01*
X117381330Y-65344635D01*
X117223292Y-65344635D01*
X117222031Y-65342203D01*
X117115325Y-65249785D01*
X116977611Y-65186552D01*
X116821960Y-65148856D01*
X116673605Y-65118455D01*
X116577539Y-65075894D01*
X116534979Y-64996853D01*
X116573891Y-64922675D01*
X116663877Y-64892275D01*
X116744134Y-64900787D01*
X116791559Y-64919027D01*
X116825608Y-64946996D01*
X116853577Y-64970100D01*
X117016524Y-65015093D01*
X117160014Y-64897139D01*
X117218383Y-64747568D01*
X117130830Y-64622318D01*
X117004634Y-64541249D01*
X116849793Y-64492608D01*
X116688197Y-64478329D01*
X116666309Y-64476395D01*
X116510388Y-64492744D01*
X116373383Y-64541790D01*
X116255293Y-64623534D01*
X116164767Y-64730138D01*
X116110451Y-64853767D01*
X116092346Y-64994421D01*
X116111803Y-65152504D01*
X116170172Y-65283834D01*
X116267454Y-65388412D01*
X116403648Y-65466237D01*
X116495762Y-65499374D01*
X116611588Y-65530687D01*
X116802504Y-65587840D01*
X116865737Y-65663233D01*
X116821960Y-65776323D01*
X116678469Y-65811588D01*
X116582403Y-65788484D01*
X116483906Y-65699714D01*
X116374193Y-65611079D01*
X116268805Y-65594866D01*
X116167740Y-65651073D01*
X116065594Y-65806724D01*
X115549189Y-65806724D01*
X115549189Y-63374678D01*
X116065594Y-63374678D01*
X116126395Y-63532761D01*
X116140987Y-63549785D01*
X116167740Y-63583834D01*
X116210300Y-63626395D01*
X116268670Y-63673820D01*
X116344063Y-63720029D01*
X116437697Y-63760157D01*
X116552003Y-63786910D01*
X116688197Y-63797854D01*
X116849928Y-63779614D01*
X117016524Y-63717597D01*
X117166094Y-63609371D01*
X117271888Y-63445207D01*
X117302897Y-63340021D01*
X117313233Y-63223891D01*
X117290433Y-63042096D01*
X117222031Y-62910157D01*
X117115325Y-62817740D01*
X116977611Y-62754506D01*
X116821960Y-62716810D01*
X116673605Y-62686409D01*
X116577539Y-62643848D01*
X116534979Y-62564807D01*
X116573891Y-62490629D01*
X116663877Y-62460229D01*
X116744134Y-62468741D01*
X116791559Y-62486981D01*
X116825608Y-62514950D01*
X116853577Y-62538054D01*
X117016524Y-62583047D01*
X117160014Y-62465093D01*
X117218383Y-62315522D01*
X117130830Y-62190272D01*
X117123258Y-62185408D01*
X117394707Y-62185408D01*
X117405651Y-62365379D01*
X117843419Y-63620315D01*
X117865308Y-63672604D01*
X117930973Y-63735837D01*
X118052575Y-63771102D01*
X118190594Y-63729757D01*
X118269027Y-63605722D01*
X118497639Y-62859084D01*
X118726252Y-63608155D01*
X118739628Y-63643419D01*
X118771245Y-63694492D01*
X118839342Y-63749213D01*
X118942704Y-63771102D01*
X119078290Y-63733405D01*
X119154292Y-63620315D01*
X119589628Y-62365379D01*
X119595308Y-62289986D01*
X119718526Y-62289986D01*
X119718526Y-63547353D01*
X119724607Y-63633691D01*
X119750143Y-63701788D01*
X119817024Y-63754077D01*
X119939843Y-63771102D01*
X120353290Y-63771102D01*
X120524294Y-63755369D01*
X120682225Y-63708172D01*
X120827083Y-63629511D01*
X120958870Y-63519385D01*
X121068464Y-63387066D01*
X121146745Y-63241828D01*
X121193714Y-63083669D01*
X121209371Y-62912589D01*
X121193714Y-62745994D01*
X121146745Y-62591559D01*
X121068464Y-62449285D01*
X120958870Y-62319170D01*
X120926498Y-62292418D01*
X121311516Y-62292418D01*
X121311516Y-63549785D01*
X121315165Y-63633691D01*
X121338269Y-63700572D01*
X121406366Y-63756509D01*
X121532833Y-63773534D01*
X121661731Y-63756509D01*
X121729828Y-63701788D01*
X121752933Y-63636123D01*
X121756581Y-63552217D01*
X121756581Y-62936910D01*
X121858727Y-62936910D01*
X121874383Y-63109129D01*
X121921352Y-63268276D01*
X121999633Y-63414351D01*
X122109227Y-63547353D01*
X122240862Y-63658011D01*
X122385265Y-63737053D01*
X122542436Y-63784478D01*
X122712375Y-63800286D01*
X122877678Y-63784250D01*
X123030669Y-63736141D01*
X123171347Y-63655959D01*
X123299714Y-63543705D01*
X123406648Y-63408955D01*
X123483029Y-63261284D01*
X123528858Y-63100693D01*
X123544134Y-62927182D01*
X123528630Y-62750630D01*
X123482117Y-62588215D01*
X123404596Y-62439937D01*
X123296066Y-62305794D01*
X123165343Y-62194604D01*
X123021245Y-62115182D01*
X122863770Y-62067530D01*
X122692918Y-62051645D01*
X122525563Y-62067758D01*
X122371280Y-62116094D01*
X122230070Y-62196656D01*
X122101931Y-62309442D01*
X121995529Y-62445333D01*
X121919528Y-62595207D01*
X121873927Y-62759067D01*
X121858727Y-62936910D01*
X121756581Y-62936910D01*
X121756581Y-62294850D01*
X121752933Y-62210944D01*
X121729828Y-62144063D01*
X121661731Y-62088126D01*
X121535265Y-62071102D01*
X121406366Y-62088126D01*
X121338269Y-62144063D01*
X121315165Y-62210944D01*
X121311516Y-62292418D01*
X120926498Y-62292418D01*
X120827539Y-62210640D01*
X120684049Y-62133119D01*
X120528398Y-62086606D01*
X120360587Y-62071102D01*
X119942275Y-62071102D01*
X119813376Y-62086910D01*
X119745279Y-62141631D01*
X119722175Y-62208512D01*
X119718526Y-62289986D01*
X119595308Y-62289986D01*
X119603004Y-62187840D01*
X119451001Y-62080830D01*
X119267382Y-62071102D01*
X119168884Y-62221888D01*
X118915951Y-62966094D01*
X118716524Y-62236481D01*
X118709227Y-62217024D01*
X118697067Y-62186624D01*
X118681259Y-62156223D01*
X118654506Y-62124607D01*
X118616810Y-62097854D01*
X118563305Y-62077182D01*
X118492775Y-62071102D01*
X118352933Y-62111838D01*
X118278755Y-62234049D01*
X118079328Y-62961230D01*
X117826395Y-62221888D01*
X117727897Y-62072318D01*
X117546710Y-62083262D01*
X117394707Y-62185408D01*
X117123258Y-62185408D01*
X117004634Y-62109204D01*
X116849793Y-62060563D01*
X116666309Y-62044349D01*
X116510388Y-62060698D01*
X116373383Y-62109744D01*
X116255293Y-62191488D01*
X116164767Y-62298093D01*
X116110451Y-62421722D01*
X116092346Y-62562375D01*
X116111803Y-62720458D01*
X116170172Y-62851788D01*
X116267454Y-62956366D01*
X116403648Y-63034192D01*
X116495762Y-63067328D01*
X116611588Y-63098641D01*
X116802504Y-63155794D01*
X116865737Y-63231187D01*
X116821960Y-63344278D01*
X116678469Y-63379542D01*
X116582403Y-63356438D01*
X116483906Y-63267668D01*
X116374193Y-63179034D01*
X116268805Y-63162820D01*
X116167740Y-63219027D01*
X116065594Y-63374678D01*
X115549189Y-63374678D01*
X115549189Y-61839247D01*
X116055866Y-61839247D01*
X123544134Y-61839247D01*
X124050811Y-61839247D01*
X124050811Y-76160753D01*
G37*
G36*
X122854041Y-62528022D02*
G01*
X122982332Y-62621960D01*
X123069886Y-62760891D01*
X123099070Y-62927182D01*
X123070190Y-63094689D01*
X122983548Y-63232403D01*
X122854954Y-63324517D01*
X122700215Y-63355222D01*
X122550340Y-63323605D01*
X122421745Y-63228755D01*
X122333280Y-63090129D01*
X122303791Y-62927182D01*
X122332976Y-62760891D01*
X122420529Y-62621960D01*
X122549428Y-62528022D01*
X122702647Y-62496710D01*
X122854041Y-62528022D01*
G37*
G36*
X120513805Y-62545959D02*
G01*
X120645136Y-62635336D01*
X120734514Y-62766667D01*
X120764306Y-62922318D01*
X120734514Y-63077665D01*
X120645136Y-63208083D01*
X120514413Y-63296549D01*
X120360587Y-63326037D01*
X120163591Y-63326037D01*
X120163591Y-62516166D01*
X120358155Y-62516166D01*
X120513805Y-62545959D01*
G37*
G36*
X116942346Y-69829328D02*
G01*
X116967883Y-69904721D01*
X116950858Y-69980114D01*
X116892489Y-69997139D01*
X116863305Y-69997139D01*
X116714950Y-70037268D01*
X116671173Y-70177110D01*
X116712518Y-70321817D01*
X116851144Y-70364378D01*
X116882761Y-70364378D01*
X116984907Y-70387482D01*
X117016524Y-70488412D01*
X117003147Y-70565021D01*
X116966667Y-70606366D01*
X116928970Y-70619742D01*
X116894921Y-70622175D01*
X116547139Y-70622175D01*
X116547139Y-69809871D01*
X116841416Y-69809871D01*
X116942346Y-69829328D01*
G37*
G36*
X116947210Y-72295422D02*
G01*
X116999499Y-72421888D01*
X116943562Y-72555651D01*
X116826824Y-72599428D01*
X116559299Y-72599428D01*
X116559299Y-72244349D01*
X116821960Y-72244349D01*
X116947210Y-72295422D01*
G37*
G36*
X118332260Y-70303577D02*
G01*
X118388197Y-70447067D01*
X118322532Y-70597854D01*
X118186338Y-70646495D01*
X118052575Y-70597854D01*
X117989342Y-70449499D01*
X118046495Y-70307225D01*
X118183906Y-70250072D01*
X118332260Y-70303577D01*
G37*
G36*
X119689342Y-70303577D02*
G01*
X119745279Y-70447067D01*
X119679614Y-70597854D01*
X119543419Y-70646495D01*
X119409657Y-70597854D01*
X119346423Y-70449499D01*
X119403577Y-70307225D01*
X119540987Y-70250072D01*
X119689342Y-70303577D01*
G37*
G36*
X118300644Y-72656581D02*
G01*
X118339557Y-72728326D01*
X118273891Y-72786695D01*
X118001502Y-72786695D01*
X118058655Y-72678469D01*
X118196066Y-72631044D01*
X118300644Y-72656581D01*
G37*
G36*
X120713233Y-72656581D02*
G01*
X120752146Y-72728326D01*
X120686481Y-72786695D01*
X120414092Y-72786695D01*
X120471245Y-72678469D01*
X120608655Y-72631044D01*
X120713233Y-72656581D01*
G37*
D12*
%TO.C,J2*%
X127180000Y-76930000D02*
X125800000Y-76930000D01*
X127180000Y-75550000D02*
X127180000Y-76930000D01*
X127180000Y-74280000D02*
X127180000Y-61470000D01*
X127180000Y-74280000D02*
X124420000Y-74280000D01*
X127180000Y-61470000D02*
X124420000Y-61470000D01*
X124420000Y-74280000D02*
X124420000Y-61470000D01*
%TO.C,C16*%
X136758080Y-64310000D02*
X136476920Y-64310000D01*
X136758080Y-63290000D02*
X136476920Y-63290000D01*
%TO.C,C8*%
X140659420Y-63290000D02*
X140940580Y-63290000D01*
X140659420Y-64310000D02*
X140940580Y-64310000D01*
%TO.C,U4*%
X149640000Y-74937500D02*
X149640000Y-75587500D01*
X149640000Y-74937500D02*
X149640000Y-74287500D01*
X152760000Y-74937500D02*
X152760000Y-75587500D01*
X152760000Y-74937500D02*
X152760000Y-74287500D01*
X149690000Y-76100000D02*
X149360000Y-76340000D01*
X149360000Y-75860000D01*
X149690000Y-76100000D01*
G36*
X149690000Y-76100000D02*
G01*
X149360000Y-76340000D01*
X149360000Y-75860000D01*
X149690000Y-76100000D01*
G37*
%TO.C,U3*%
X150650000Y-59440000D02*
X154410000Y-59440000D01*
X150650000Y-66260000D02*
X154410000Y-66260000D01*
X154410000Y-59440000D02*
X154410000Y-60700000D01*
X154410000Y-66260000D02*
X154410000Y-65000000D01*
X149370000Y-59540000D02*
X149130000Y-59210000D01*
X149610000Y-59210000D01*
X149370000Y-59540000D01*
G36*
X149370000Y-59540000D02*
G01*
X149130000Y-59210000D01*
X149610000Y-59210000D01*
X149370000Y-59540000D01*
G37*
%TO.C,U2*%
X136157500Y-73467500D02*
X136607500Y-73467500D01*
X143377500Y-73467500D02*
X142927500Y-73467500D01*
X136157500Y-73017500D02*
X136157500Y-73467500D01*
X143377500Y-73017500D02*
X143377500Y-73467500D01*
X136157500Y-66697500D02*
X136157500Y-66247500D01*
X143377500Y-66697500D02*
X143377500Y-66247500D01*
X136157500Y-66247500D02*
X136607500Y-66247500D01*
X143377500Y-66247500D02*
X142927500Y-66247500D01*
X136607500Y-74057500D02*
X136137500Y-74397500D01*
X136137500Y-73717500D01*
X136607500Y-74057500D01*
G36*
X136607500Y-74057500D02*
G01*
X136137500Y-74397500D01*
X136137500Y-73717500D01*
X136607500Y-74057500D01*
G37*
D11*
%TO.C,SW5*%
X156825000Y-77600000D02*
X158025000Y-77600000D01*
X156825000Y-79600000D02*
X156825000Y-78800000D01*
X158025000Y-80800000D02*
X156825000Y-80800000D01*
X159225000Y-77600000D02*
X160425000Y-77600000D01*
X160425000Y-78800000D02*
X160425000Y-79600000D01*
X160425000Y-80800000D02*
X159225000Y-80800000D01*
%TO.C,SW4*%
X156300000Y-114600000D02*
X157500000Y-114600000D01*
X156300000Y-116600000D02*
X156300000Y-115800000D01*
X157500000Y-117800000D02*
X156300000Y-117800000D01*
X158700000Y-114600000D02*
X159900000Y-114600000D01*
X159900000Y-115800000D02*
X159900000Y-116600000D01*
X159900000Y-117800000D02*
X158700000Y-117800000D01*
%TO.C,SW3*%
X137200000Y-114600000D02*
X138400000Y-114600000D01*
X137200000Y-116600000D02*
X137200000Y-115800000D01*
X138400000Y-117800000D02*
X137200000Y-117800000D01*
X139600000Y-114600000D02*
X140800000Y-114600000D01*
X140800000Y-115800000D02*
X140800000Y-116600000D01*
X140800000Y-117800000D02*
X139600000Y-117800000D01*
%TO.C,SW2*%
X118100000Y-114600000D02*
X119300000Y-114600000D01*
X118100000Y-116600000D02*
X118100000Y-115800000D01*
X119300000Y-117800000D02*
X118100000Y-117800000D01*
X120500000Y-114600000D02*
X121700000Y-114600000D01*
X121700000Y-115800000D02*
X121700000Y-116600000D01*
X121700000Y-117800000D02*
X120500000Y-117800000D01*
%TO.C,SW1*%
X117600000Y-77600000D02*
X118800000Y-77600000D01*
X117600000Y-79600000D02*
X117600000Y-78800000D01*
X118800000Y-80800000D02*
X117600000Y-80800000D01*
X120000000Y-77600000D02*
X121200000Y-77600000D01*
X121200000Y-78800000D02*
X121200000Y-79600000D01*
X121200000Y-80800000D02*
X120000000Y-80800000D01*
D12*
%TO.C,RN2*%
X155700000Y-67920000D02*
X154700000Y-67920000D01*
X155700000Y-71280000D02*
X154700000Y-71280000D01*
%TO.C,RN1*%
X131100000Y-56920000D02*
X130100000Y-56920000D01*
X131100000Y-60280000D02*
X130100000Y-60280000D01*
%TO.C,R1*%
X127227064Y-92335000D02*
X126772936Y-92335000D01*
X127227064Y-90865000D02*
X126772936Y-90865000D01*
%TO.C,Q1*%
X125290000Y-87462500D02*
X125290000Y-88112500D01*
X125290000Y-87462500D02*
X125290000Y-86812500D01*
X128410000Y-87462500D02*
X128410000Y-88112500D01*
X128410000Y-87462500D02*
X128410000Y-86812500D01*
X125340000Y-88625000D02*
X125010000Y-88865000D01*
X125010000Y-88385000D01*
X125340000Y-88625000D01*
G36*
X125340000Y-88625000D02*
G01*
X125010000Y-88865000D01*
X125010000Y-88385000D01*
X125340000Y-88625000D01*
G37*
%TO.C,J1*%
X147360000Y-65620000D02*
X146200000Y-65620000D01*
X147360000Y-64810000D02*
X147360000Y-65620000D01*
X147360000Y-64000000D02*
X147360000Y-57715000D01*
X147360000Y-64000000D02*
X146866708Y-64000000D01*
X147360000Y-57715000D02*
X146517923Y-57715000D01*
X145882077Y-57715000D02*
X145040000Y-57715000D01*
X145533292Y-64000000D02*
X145040000Y-64000000D01*
X145040000Y-64000000D02*
X145040000Y-57715000D01*
%TO.C,D2*%
X159360000Y-63315000D02*
X157440000Y-63315000D01*
X157440000Y-63315000D02*
X157440000Y-66000000D01*
X159360000Y-66000000D02*
X159360000Y-63315000D01*
%TO.C,D1*%
X157440000Y-72885000D02*
X159360000Y-72885000D01*
X159360000Y-72885000D02*
X159360000Y-70200000D01*
X157440000Y-70200000D02*
X157440000Y-72885000D01*
%TO.C,C12*%
X151538748Y-90865000D02*
X152061252Y-90865000D01*
X151538748Y-92335000D02*
X152061252Y-92335000D01*
%TO.C,C11*%
X151388748Y-88465000D02*
X151911252Y-88465000D01*
X151388748Y-89935000D02*
X151911252Y-89935000D01*
%TO.C,C10*%
X153565000Y-74873752D02*
X153565000Y-74351248D01*
X155035000Y-74873752D02*
X155035000Y-74351248D01*
%TO.C,C9*%
X148785000Y-74338748D02*
X148785000Y-74861252D01*
X147315000Y-74338748D02*
X147315000Y-74861252D01*
%TO.C,C7*%
X150711252Y-58535000D02*
X150188748Y-58535000D01*
X150711252Y-57065000D02*
X150188748Y-57065000D01*
%TO.C,C6*%
X150938748Y-67065000D02*
X151461252Y-67065000D01*
X150938748Y-68535000D02*
X151461252Y-68535000D01*
%TO.C,C5*%
X142338748Y-75865000D02*
X142861252Y-75865000D01*
X142338748Y-77335000D02*
X142861252Y-77335000D01*
%TO.C,C4*%
X135861252Y-77335000D02*
X135338748Y-77335000D01*
X135861252Y-75865000D02*
X135338748Y-75865000D01*
%TO.C,C3*%
X132661252Y-73935000D02*
X132138748Y-73935000D01*
X132661252Y-72465000D02*
X132138748Y-72465000D01*
%TO.C,C2*%
X132661252Y-66535000D02*
X132138748Y-66535000D01*
X132661252Y-65065000D02*
X132138748Y-65065000D01*
%TO.C,C1*%
X146738748Y-67065000D02*
X147261252Y-67065000D01*
X146738748Y-68535000D02*
X147261252Y-68535000D01*
%TD*%
M02*
